<svg width="200" height="120" viewBox="0 0 200 120" fill="none" xmlns="http://www.w3.org/2000/svg">
<path d="M102.102 16.6222C101.083 20.8726 100.064 25.123 99.0604 29.3812C96.9194 38.4271 94.7231 47.4572 92.6927 56.5268C91.9659 59.7738 90.3621 61.0142 86.9334 60.9036C79.7125 60.6744 79.7046 60.8641 77.5241 53.7301C72.7602 38.0953 67.9963 22.4606 63.2403 6.82581C61.8103 2.12512 62.1263 1.7222 67.1589 1.7143C73.7556 1.6985 73.7398 1.7064 75.4226 8.34267C78.6459 21.0148 81.893 33.6869 85.14 46.4065C86.965 45.7428 86.7596 43.9653 87.0914 42.5748C90.054 30.3609 93.1509 18.1707 95.758 5.87777C96.7219 1.31138 99.6134 1.7301 102.797 1.6906C105.926 1.659 108.596 1.51679 109.505 5.79877C112.451 19.6085 115.809 33.3393 119.025 47.0938C119.064 47.2518 119.404 47.3387 120.012 47.71C121.719 41.2317 123.409 34.8799 125.052 28.5122C126.949 21.1649 128.758 13.7939 130.677 6.4466C131.736 2.37793 138.625 -0.371388 142.093 1.96711C144.203 3.39707 142.71 5.40375 142.22 6.99172C138.056 20.6119 133.767 34.2005 129.524 47.7969C128.513 51.036 127.494 54.2831 126.514 57.5301C125.827 59.8133 124.531 60.9352 121.94 60.8641C112.602 60.6033 113.858 62.1755 111.654 53.0111C108.746 40.9236 105.815 28.8519 102.892 16.7723C102.623 16.717 102.363 16.6696 102.102 16.6222Z" fill="#F9F9F9"/>
<path d="M99.661 119.714C62.6874 119.208 30.2487 107.405 2.42372 83.3407C2.12351 83.08 1.80749 82.843 1.52308 82.5744C0.582942 81.6658 -0.617908 80.7731 0.369633 79.272C1.42828 77.6682 2.75553 78.6242 3.82208 79.2404C9.37601 82.448 15.1037 85.3158 20.9658 87.915C49.6361 100.642 79.7047 106.323 110.974 104.901C132.842 103.905 154.031 99.1808 174.366 90.9013C175.212 90.5537 176.136 90.3562 176.926 89.9138C178.846 88.8551 180.663 89.0052 181.714 90.9013C182.82 92.908 181.469 94.3932 179.81 95.4677C176.507 97.6087 173.284 99.884 169.847 101.78C147.916 113.852 124.27 119.271 99.661 119.714Z" fill="#FA9500"/>
<path d="M45.354 27.7934C44.8721 22.674 46.1045 17.681 42.3203 13.4148C37.8961 8.42973 32.2553 9.26717 26.7724 9.89129C23.5728 10.2547 20.4996 11.6531 17.3315 12.451C15.712 12.8618 13.9265 14.7579 12.3859 12.6801C11.0034 10.8077 12.5518 5.42761 14.6217 4.41637C21.8663 0.89282 29.5613 -0.576641 37.5485 0.363498C50.3154 1.88036 56.0353 8.32703 56.2881 21.252C56.4303 28.3465 56.3829 35.4489 56.3118 42.5513C56.2723 46.3039 56.8095 49.8986 58.753 53.1219C61.3048 57.3644 57.402 58.2018 55.2689 59.932C52.9857 61.7807 51.0975 61.3066 49.2805 58.9681C45.7964 54.4728 45.6384 54.4412 41.1194 57.8147C36.3081 61.4093 30.6515 62.7287 25.0028 63.0289C17.0234 63.4555 9.0757 55.5947 8.32517 47.5285C7.21913 35.6543 14.7165 26.9165 26.6381 26.0554C32.8478 25.6129 38.931 26.324 45.354 27.7934ZM34.096 34.011C31.2203 33.7582 28.5737 33.9636 26.1088 34.9353C22.3878 36.4048 20.2152 39.1225 20.073 43.286C19.9308 47.2124 20.6576 50.8466 24.6077 52.5136C29.8694 54.7415 34.9098 53.351 39.5789 50.5148C44.2954 47.6549 45.3224 42.9858 45.3935 37.9296C45.4172 36.0256 44.1611 34.8879 42.581 34.8642C39.6263 34.8089 36.8612 33.3 34.096 34.011Z" fill="#F9F9F9"/>
<path d="M170.471 0C174.951 0.110605 179.201 0.845335 183.286 2.3859C184.495 2.84412 185.782 3.37344 186.707 4.22668C189.077 6.40717 188.919 9.40139 187.647 11.7873C186.264 14.3707 184.51 11.6451 182.907 11.2896C179.114 10.4363 175.48 8.48495 171.348 10.0176C170.061 10.4995 168.441 10.46 167.043 10.223C163.48 9.6226 161.173 11.4081 159.964 14.2838C158.495 17.7836 159.94 20.9596 163.393 22.8952C168.236 25.605 173.726 26.5609 178.893 28.4096C184.147 30.2899 188.634 33.0155 190.625 38.5931C193.414 46.4223 189.859 55.2628 182.156 59.3078C178.198 61.3856 173.995 62.4995 169.389 62.6654C163.021 62.8945 157.033 61.4014 151.029 59.7818C148.098 58.9918 146.146 53.1218 147.853 50.5384C149.093 48.6502 150.61 49.8195 152.016 50.3725C158.605 52.9875 165.376 54.2121 172.454 52.9559C179.067 51.7788 182.425 46.0984 179.193 41.374C177.574 39.0039 174.785 38.1902 172.241 37.1947C166.703 35.0222 160.659 34.319 155.508 30.9535C147.26 25.5576 145.641 14.2048 152.388 6.94439C157.27 1.65117 163.638 0.023701 170.471 0Z" fill="#F9F9F9"/>
<path d="M176.318 82.519C173.055 82.8508 169.792 83.2854 166.521 83.475C165.131 83.554 163.014 84.7074 162.461 82.6059C161.979 80.7731 164.072 80.1094 165.384 79.3826C172.715 75.306 180.694 73.8445 188.935 74.5871C200.2 75.6062 201.314 77.4707 198.763 88.5944C196.945 96.5342 193.706 103.724 187.884 109.57C186.888 110.565 185.672 112.098 184.218 111.134C182.551 110.036 184.139 108.464 184.589 107.271C186.896 101.148 189.44 95.128 190.112 88.5233C190.483 84.897 188.966 83.1353 185.379 82.8508C182.369 82.6059 179.359 82.3136 176.318 82.519Z" fill="#FA9500"/>
</svg>
