<svg width="138" height="154" viewBox="0 0 138 154" fill="none" xmlns="http://www.w3.org/2000/svg">
<path d="M69.1204 153.496C68.7511 153.496 68.3763 153.496 68.007 153.496C65.6461 152.729 63.0839 152.338 60.9691 151.141C47.6038 143.588 34.3392 135.856 21.041 128.181C16.6381 125.635 12.224 123.112 7.84352 120.516C3.21126 117.775 1.04058 113.411 0 108.337C0 87.1504 0 65.9696 0 44.7831C1.09093 38.12 5.15256 33.9018 10.8814 30.6625C27.3125 21.37 43.6037 11.8313 59.9733 2.43255C65.3608 -0.661224 70.9721 -0.823465 76.4492 2.05772C81.4451 4.68155 86.2676 7.63546 91.1572 10.4607C102.369 16.9447 113.423 23.7253 124.836 29.8345C133.122 34.271 137.334 40.2124 137.094 49.9524C136.652 67.8661 136.685 85.8022 137.083 103.721C137.295 113.31 132.859 119.039 124.814 123.258C116.377 127.683 108.36 132.902 99.9574 137.4C89.7362 142.872 80.5388 150.318 69.1204 153.496ZM126.565 76.6607C126.565 66.999 126.464 57.3372 126.615 47.6755C126.671 44.1118 125.088 41.9187 122.134 40.3914C121.396 40.0054 120.629 39.6641 119.907 39.2445C104.226 30.1422 88.5333 21.0511 72.8743 11.9041C69.7022 10.0523 66.8266 10.3544 63.744 12.2118C56.9299 16.3126 50.0206 20.2511 43.1338 24.2232C33.5112 29.773 23.8551 35.2724 14.2381 40.8278C12.045 42.0921 10.5569 43.8376 10.5569 46.5957C10.5792 66.5682 10.5625 86.5462 10.5792 106.519C10.5792 108.678 11.3289 110.429 13.3653 111.593C20.1906 115.509 26.96 119.526 33.7686 123.476C43.6932 129.238 53.6795 134.889 63.5314 140.774C66.9497 142.816 69.9707 142.945 73.389 140.886C80.2031 136.785 87.1235 132.863 94.016 128.891C103.482 123.437 112.948 117.971 122.447 112.572C125.418 110.882 126.671 108.555 126.615 105.086C126.464 95.615 126.565 86.1322 126.565 76.6607Z" fill="#79EDD8"/>
<path d="M32.4148 76.6048C32.4148 71.8663 32.577 67.1221 32.37 62.3947C32.1518 57.3653 34.3841 53.8407 38.5184 51.4239C47.2962 46.2881 56.1076 41.2027 64.9749 36.2236C67.9736 34.5396 71.3079 34.4613 74.3457 36.0781C82.9166 40.6432 91.4035 45.3706 99.9015 50.0644C101.977 51.2113 102.766 53.9638 101.932 56.8562C101.295 59.066 99.4092 58.5177 97.8092 58.7359C93.3 59.3513 90.1391 56.3694 86.5922 54.5344C81.3389 51.8155 76.2311 48.8056 71.0114 46.0196C70.4072 45.6951 69.3107 45.6895 68.7232 46.0252C60.4601 50.7637 52.2306 55.5526 44.057 60.4423C43.3912 60.8395 42.871 62.0479 42.8654 62.8871C42.7814 71.9894 42.7758 81.0917 42.8765 90.1883C42.8877 91.0723 43.5311 92.331 44.264 92.773C52.3481 97.6291 60.4937 102.384 68.6785 107.073C69.3107 107.436 70.5191 107.364 71.1904 107C77.7752 103.425 84.3488 99.8277 90.8216 96.057C93.6469 94.4122 96.6175 94.043 99.661 94.5353C100.562 94.6807 101.753 96.029 101.938 96.9969C102.509 99.99 101.888 102.256 98.5756 103.917C90.3908 108.012 82.5305 112.745 74.4408 117.036C71.2296 118.737 67.789 118.536 64.5833 116.701C55.9845 111.789 47.3969 106.866 38.8205 101.914C34.5687 99.4585 32.1798 95.9675 32.3868 90.8093C32.5602 86.082 32.4148 81.3434 32.4148 76.6048Z" fill="#79EDD8"/>
</svg>
