<svg width="811" height="699" viewBox="0 0 811 699" fill="none" xmlns="http://www.w3.org/2000/svg">
<path d="M675.972 298.221C660.187 271.11 666.243 214.042 666.243 214.042L662.686 217.292C678.51 175.914 665.263 159.205 665.263 159.205C626.213 101.08 567.764 139.497 567.764 139.497C567.764 139.497 524.889 146.342 540.751 197.603C541.712 200.718 542.116 204.505 542.231 208.466C542.097 208.928 535.483 233.232 533.118 237.789C531.407 241.096 540.001 245.653 544.981 247.96C556.094 296.471 558.593 294.76 558.593 294.76C578.224 295.702 593.855 292.491 606.506 286.8C608.256 295.933 610.044 305.739 610.044 305.739C614.254 339.138 567.111 360.634 567.111 360.634L656.611 394.436L745.534 337.695C745.534 337.715 695.218 331.254 675.972 298.221Z" fill="white" stroke="#405391" stroke-width="2" stroke-miterlimit="10"/>
<path d="M228.414 596.212L527.581 569.024L701.371 617.574L702.178 629.937L403.011 657.125L229.221 608.575L228.414 596.212Z" fill="white" stroke="#405391" stroke-width="2" stroke-miterlimit="10" stroke-linejoin="round"/>
<path d="M236.526 597.346L529.637 580.137L484.8 396.282L198.303 409.665L236.526 597.346Z" fill="white" stroke="#405391" stroke-width="2" stroke-miterlimit="10" stroke-linejoin="round"/>
<path d="M354.329 409.242C354.79 411.261 353.771 413.203 352.06 413.587C350.349 413.972 348.58 412.664 348.118 410.645C347.657 408.627 348.676 406.685 350.387 406.3C352.118 405.915 353.867 407.223 354.329 409.242Z" fill="#2048AB"/>
<path d="M198.304 409.665L484.801 396.282L198.304 409.665L236.526 597.346L228.432 596.538L192.882 415.356L198.304 409.665Z" fill="white"/>
<path d="M198.304 409.665L484.801 396.282L198.304 409.665ZM198.304 409.665L236.526 597.346L228.432 596.538L192.882 415.356L198.304 409.665Z" stroke="#405391" stroke-width="2" stroke-miterlimit="10" stroke-linejoin="round"/>
<path d="M220.473 424.624L471.054 412.799L504.412 558.102L252.85 580.676L220.473 424.624Z" fill="#F38A3F"/>
<path d="M228.414 596.212L402.223 644.761L701.371 617.574L527.581 569.024L228.414 596.212Z" fill="white" stroke="#405391" stroke-width="2" stroke-miterlimit="10" stroke-linejoin="round"/>
<path d="M357.483 624.284L270.847 600.076L526.87 576.811L611.025 600.307L357.483 624.284Z" fill="white" stroke="#405391" stroke-width="2" stroke-miterlimit="10" stroke-linejoin="round"/>
<path d="M289.304 605.229L546.23 582.214" stroke="#405391" stroke-width="2" stroke-miterlimit="10" stroke-linejoin="round"/>
<path d="M310.875 611.325L567.821 588.309" stroke="#405391" stroke-width="2" stroke-miterlimit="10" stroke-linejoin="round"/>
<path d="M332.467 617.401L589.393 594.385" stroke="#405391" stroke-width="2" stroke-miterlimit="10" stroke-linejoin="round"/>
<path d="M301.82 597.577L386.686 621.188" stroke="#405391" stroke-width="2" stroke-miterlimit="10" stroke-linejoin="round"/>
<path d="M330.526 595.096L415.412 618.689" stroke="#405391" stroke-width="2" stroke-miterlimit="10" stroke-linecap="round" stroke-linejoin="round"/>
<path d="M355.175 592.693L440.061 616.285" stroke="#405391" stroke-width="2" stroke-miterlimit="10" stroke-linecap="round" stroke-linejoin="round"/>
<path d="M379.843 590.29L464.729 613.901" stroke="#405391" stroke-width="2" stroke-miterlimit="10" stroke-linecap="round" stroke-linejoin="round"/>
<path d="M404.49 587.886L489.376 611.498" stroke="#405391" stroke-width="2" stroke-miterlimit="10" stroke-linecap="round" stroke-linejoin="round"/>
<path d="M430.274 585.79L514.026 609.094" stroke="#405391" stroke-width="2" stroke-miterlimit="10" stroke-linecap="round" stroke-linejoin="round"/>
<path d="M454.827 583.367L539.444 606.883" stroke="#405391" stroke-width="2" stroke-miterlimit="10" stroke-linecap="round" stroke-linejoin="round"/>
<path d="M479.917 581.08L564.129 604.499" stroke="#405391" stroke-width="2" stroke-miterlimit="10" stroke-linecap="round" stroke-linejoin="round"/>
<path d="M505.413 578.907L588.741 602.095" stroke="#405391" stroke-width="2" stroke-miterlimit="10" stroke-linecap="round" stroke-linejoin="round"/>
<path d="M357.945 444.217L452.001 438.564C452.751 438.525 453.405 439.025 453.597 439.756L462.961 477.346C463.191 478.288 462.538 479.211 461.576 479.288L384.131 484.979C383.785 485.018 383.458 485.153 383.208 485.383L371.346 499.093C370.423 499.919 368.961 499.419 368.75 498.189L356.464 446.082C356.291 445.14 356.983 444.255 357.945 444.217Z" fill="white" stroke="#405391" stroke-width="2" stroke-miterlimit="10" stroke-linejoin="round"/>
<path d="M372.152 515.052L468.958 507.591L475.418 529.876L470.919 530.357L466.497 530.818L377.92 538.779L372.152 515.052Z" fill="white" stroke="#405391" stroke-width="2" stroke-miterlimit="10" stroke-linejoin="round"/>
<path d="M354.827 538.625L333.313 444.89L265.885 447.678L256.233 453.985L276.613 552.257L345.195 544.931L354.827 538.625Z" fill="white" stroke="#405391" stroke-width="2" stroke-miterlimit="10" stroke-linejoin="round"/>
<path d="M265.885 447.678L333.313 444.89L354.827 538.625L286.265 545.951L265.885 447.678Z" fill="white" stroke="#405391" stroke-width="2" stroke-miterlimit="10" stroke-linejoin="round"/>
<path d="M276.613 552.257L286.265 545.95" stroke="#405391" stroke-width="2" stroke-miterlimit="10"/>
<path d="M310.356 445.851L313.932 465.06C314.028 465.56 314.682 465.694 314.97 465.271L318.027 460.753C318.258 460.407 318.739 460.349 319.066 460.618L323.257 464.156C323.68 464.502 324.295 464.137 324.18 463.598L320.162 445.448L310.356 445.851Z" fill="#2048AB"/>
<path d="M288.65 487.998L330.968 484.691" stroke="#405391" stroke-width="2" stroke-miterlimit="10" stroke-linecap="round" stroke-linejoin="round"/>
<path d="M290.053 497.074L332.351 493.767" stroke="#405391" stroke-width="2" stroke-miterlimit="10" stroke-linecap="round" stroke-linejoin="round"/>
<path d="M392.8 455.907L407.047 454.888" stroke="#405391" stroke-width="2" stroke-miterlimit="10" stroke-linecap="round" stroke-linejoin="round"/>
<path d="M393.262 462.176L446.154 459.426" stroke="#405391" stroke-width="2" stroke-miterlimit="10" stroke-linecap="round" stroke-linejoin="round"/>
<path d="M394.108 468.79L447.001 466.04" stroke="#405391" stroke-width="2" stroke-miterlimit="10" stroke-linecap="round" stroke-linejoin="round"/>
<path d="M384.727 462.252C385.726 466.656 383.496 470.924 379.747 471.77C375.998 472.635 372.133 469.751 371.133 465.348C370.134 460.945 372.364 456.676 376.113 455.83C379.862 454.984 383.727 457.849 384.727 462.252Z" fill="white" stroke="#405391" stroke-width="2" stroke-miterlimit="10" stroke-linejoin="round"/>
<path d="M384.36 523.012C384.61 524.127 384.052 525.204 383.091 525.435C382.129 525.646 381.168 524.915 380.899 523.8C380.649 522.685 381.207 521.608 382.168 521.378C383.129 521.166 384.11 521.897 384.36 523.012Z" fill="#2048AB"/>
<path d="M391.34 522.204C391.59 523.319 391.032 524.396 390.071 524.627C389.109 524.838 388.148 524.108 387.879 522.993C387.629 521.877 388.187 520.801 389.148 520.57C390.109 520.358 391.09 521.089 391.34 522.204Z" fill="#2048AB"/>
<path d="M398.32 521.416C398.57 522.531 398.012 523.608 397.051 523.839C396.089 524.05 395.128 523.319 394.859 522.204C394.609 521.089 395.167 520.012 396.128 519.782C397.07 519.57 398.051 520.301 398.32 521.416Z" fill="#2048AB"/>
<path d="M742.592 353.962C742.592 353.962 738.689 332.812 736.574 406.742C734.613 475.943 733.844 548.565 733.844 548.565C733.844 548.565 696.352 549.662 656.226 567.178L630.25 577.965C630.25 577.965 697.678 615.305 745.668 630.225C789.87 643.954 794.004 610.209 788.736 528.223C788.736 528.203 763.607 359.807 742.592 353.962Z" fill="white" stroke="#405391" stroke-width="2" stroke-miterlimit="10" stroke-linejoin="round"/>
<path d="M565.265 121.538C565.265 121.538 508.93 151.591 541.174 181.759L579.454 143.496L565.265 121.538Z" fill="#2048AB"/>
<path d="M649.477 265.496C649.477 265.496 662.147 265.169 669.722 282.32C669.722 282.32 661.416 262.842 675.913 246.729L649.477 265.496Z" fill="#383838"/>
<path d="M565.264 121.538C565.264 121.538 496.356 189.027 537.654 170.107C623.944 130.594 619.522 230.155 619.522 230.155C619.522 230.155 631.404 219.33 627.02 230.655L649.496 265.496C649.496 265.496 697.544 247.326 700.101 186.816C700.966 166.377 680.855 72.6614 565.264 121.538Z" fill="#383838"/>
<path d="M594.835 161.57C596.123 171.895 594.835 213.139 613.062 216.157C631.289 219.176 609.928 164.377 609.928 164.377L594.835 161.57Z" fill="#383838"/>
<path d="M536.943 383.188C515.12 481.269 505.026 582.598 505.026 582.598C505.026 582.598 461.92 570.37 421.025 563.755L376.342 551.757C374.9 551.104 359.403 543.951 354.385 538.99C349.117 533.76 346.214 548.142 354.501 554.699C357 556.68 358.942 558.429 360.519 559.948L349.752 561.621C347.906 561.909 346.176 562.717 344.791 563.986C337.293 570.793 312.836 593.366 317.47 594.77C318.624 595.116 319.912 595.135 321.315 594.923C312.952 601.826 312.298 609.036 314.625 609.267C318.124 609.633 322.546 607.114 326.949 603.557C323.084 608.037 318.278 617.92 323.642 617.67C330.833 617.343 336.87 611.748 342.619 602.288C342.619 602.288 341.196 604.749 341.83 604.172L337.562 611.075C337.562 611.075 346.252 618.708 352.578 622.265C358.615 625.649 362.134 613.19 353.597 608.056C353.597 608.056 356.673 604.979 359.154 598.423C359.154 598.423 383.129 610.017 395.377 600.826L403.394 601.595C424.332 614.709 530.675 662.509 545.249 661.413C578.338 658.952 584.625 593.885 600.621 451.677C600.641 451.716 546.729 339.195 536.943 383.188Z" fill="white" stroke="#405391" stroke-width="2" stroke-miterlimit="10" stroke-linejoin="round"/>
<path d="M505.027 582.579C505.027 582.579 494.722 588.059 492.646 603.287" stroke="#405391" stroke-width="2" stroke-miterlimit="10"/>
<path d="M766.164 527.703C783.219 524.877 810.751 515.455 810.77 515.359C810.77 515.359 800.215 382.323 766.645 342.926C764.934 339.253 759.301 331.658 741.285 329.005C735.94 328.216 730.691 327.236 725.654 326.159C708.042 322.371 693.699 317.103 689.604 314.507C689.604 314.507 689.623 314.661 689.662 314.911C689.565 314.853 689.45 314.795 689.354 314.738C689.354 314.738 690.161 318.295 688.892 322.448C688.777 322.813 688.662 323.179 688.508 323.563C688.45 323.717 688.373 323.89 688.296 324.044C688.027 324.64 687.739 325.255 687.374 325.851C681.875 334.927 645.402 338.58 608.948 319.314C608.948 319.314 546.327 354.827 529.638 367.152C504.028 421.721 493.03 544.951 493.03 539.221C493.03 537.663 545.211 565.005 579.127 566.486C579.32 576.157 570.821 698.311 570.821 698.311C570.821 698.311 718.29 705.848 783.622 671.084C783.622 671.084 757.878 585.31 760.896 561.371C761.319 558.525 765.434 534.683 766.164 527.703Z" fill="#F38A3F"/>
<path d="M571.302 120.75C571.302 120.75 499.087 103.906 503.624 122.5C508.181 141.093 526.85 157.321 526.85 157.321C526.85 157.321 505.566 156.783 516.737 167.588C527.907 178.394 537.252 177.587 537.252 177.587L571.302 120.75Z" fill="#383838"/>
<path d="M606.506 286.819C606.506 286.819 613.928 284.954 627.559 273.11" stroke="#405391" stroke-width="2" stroke-miterlimit="10"/>
<path d="M619.829 199.333C619.829 199.333 614.811 106.271 565.898 117.693" stroke="white" stroke-width="2" stroke-miterlimit="10"/>
<path d="M648.966 226.125C650.079 208.852 637.323 193.97 620.475 192.884C603.627 191.798 589.067 204.921 587.954 222.193C586.841 239.466 599.597 254.349 616.445 255.435C633.293 256.52 647.853 243.398 648.966 226.125Z" fill="#F38A3F"/>
<path d="M639.096 225.021C638.288 237.423 628.367 246.883 616.908 246.153C605.449 245.422 596.816 234.751 597.605 222.349C598.412 209.947 608.333 200.487 619.792 201.218C631.251 201.967 639.903 212.62 639.096 225.021Z" fill="white" stroke="#405391" stroke-width="2" stroke-miterlimit="10"/>
<path d="M551.364 215.158C551.383 217.657 552.96 219.676 554.882 219.657C556.805 219.638 558.343 217.6 558.324 215.1C558.305 212.6 556.728 210.581 554.806 210.601C552.883 210.601 551.345 212.639 551.364 215.158Z" fill="#383838"/>
<path d="M568.359 202.006C565.552 198.16 561.572 196.795 558.4 195.776C554.881 194.642 551.421 193.507 549.94 195.142C549.056 196.122 548.998 197.968 549.767 199.122C550.824 200.756 553.209 200.679 555.439 200.91C564.072 201.814 569.013 206.986 569.993 205.717C570.532 204.986 569.109 203.044 568.359 202.006Z" fill="#383838"/>
<path d="M551.999 260.112C551.999 260.112 561.478 259.727 567.649 253.401" stroke="#405391" stroke-width="2" stroke-miterlimit="10"/>
<path d="M516.064 107.252C516.698 107.175 545.154 99.4263 566.707 123.769" stroke="#383838" stroke-miterlimit="10"/>
<path d="M686.719 124.788L684.527 146.976C684.527 146.976 690.238 135.978 701.562 143.4" stroke="#383838" stroke-miterlimit="10"/>
<path d="M544.424 148.841C544.424 148.841 520.294 182.932 532.599 182.874C551.191 182.778 569.572 158.609 566.207 157.359C562.843 156.09 544.424 148.841 544.424 148.841Z" fill="#383838"/>
<path d="M326.969 603.557L336.409 583.521L346.657 575.407" fill="white"/>
<path d="M326.969 603.557L336.409 583.521L346.657 575.407" stroke="#405391" stroke-width="2" stroke-miterlimit="10"/>
<path d="M321.316 594.904L332.276 582.502" stroke="#405391" stroke-width="2" stroke-miterlimit="10"/>
<path d="M360.481 577.888L348.252 586.559L341.831 604.191" fill="white"/>
<path d="M360.481 577.888L348.252 586.559L341.831 604.191" stroke="#405391" stroke-width="2" stroke-miterlimit="10" stroke-linejoin="round"/>
<path d="M529.675 367.152C529.675 367.152 607.543 347.886 605.813 446.524L602.237 564.774C602.237 564.774 587.701 567.774 572.589 566.005" stroke="#405391" stroke-width="2" stroke-miterlimit="10"/>
<path d="M763.242 391.898C763.242 391.898 779.566 431.392 779.854 466.098C780.008 484.768 766.126 527.915 766.126 527.915" stroke="#405391" stroke-width="2" stroke-miterlimit="10"/>
<path d="M360.52 559.929L373.863 558.006" stroke="#405391" stroke-width="2" stroke-miterlimit="10" stroke-linejoin="round"/>
<path d="M86.3662 599.846H229.22" stroke="#405391" stroke-width="2" stroke-miterlimit="10" stroke-linejoin="round"/>
<path d="M505.047 294.683C505.047 297.298 502.932 299.413 500.317 299.413C497.702 299.413 495.587 297.298 495.587 294.683C495.587 292.068 497.702 289.953 500.317 289.953C502.932 289.953 505.047 292.068 505.047 294.683Z" fill="white" stroke="#405391" stroke-width="2" stroke-miterlimit="10" stroke-linejoin="round"/>
<path d="M728.384 260.247C728.384 262.862 726.269 264.977 723.655 264.977C721.04 264.977 718.925 262.862 718.925 260.247C718.925 257.632 721.04 255.517 723.655 255.517C726.269 255.517 728.384 257.632 728.384 260.247Z" fill="white" stroke="#405391" stroke-width="2" stroke-miterlimit="10" stroke-linejoin="round"/>
<path d="M450.711 148.265C450.711 150.88 448.596 152.995 445.981 152.995C443.366 152.995 441.251 150.88 441.251 148.265C441.251 145.65 443.366 143.535 445.981 143.535C448.596 143.535 450.711 145.65 450.711 148.265Z" fill="white" stroke="#405391" stroke-width="2" stroke-miterlimit="10" stroke-linejoin="round"/>
<path d="M279.537 285.242C279.537 287.857 277.422 289.972 274.807 289.972C272.193 289.972 270.078 287.857 270.078 285.242C270.078 282.628 272.193 280.512 274.807 280.512C277.422 280.512 279.537 282.628 279.537 285.242Z" fill="white" stroke="#405391" stroke-width="2" stroke-miterlimit="10" stroke-linejoin="round"/>
<path d="M440.965 268.61C447.021 268.284 451.828 263.304 451.828 257.17C451.828 250.844 446.694 245.71 440.369 245.71C439.215 245.71 438.1 245.883 437.042 246.21C435.101 238.212 427.91 232.251 419.296 232.251C410.76 232.251 403.626 238.096 401.608 245.999C400.8 245.806 399.954 245.71 399.089 245.71C392.763 245.71 387.63 250.844 387.63 257.17C387.63 263.188 392.283 268.13 398.185 268.591L440.965 268.61Z" fill="white" stroke="#405391" stroke-width="2" stroke-miterlimit="10" stroke-linejoin="round"/>
<path d="M445.963 78.3143C452.269 77.9874 457.287 72.7767 457.287 66.3739C457.287 59.7596 451.923 54.4143 445.309 54.4143C444.098 54.4143 442.944 54.5874 441.848 54.9335C439.81 46.5694 432.312 40.3589 423.333 40.3589C414.431 40.3589 406.971 46.4733 404.856 54.722C404.01 54.5297 403.126 54.4143 402.222 54.4143C395.608 54.4143 390.244 59.7788 390.244 66.3739C390.244 72.6614 395.108 77.8144 401.261 78.2951L445.963 78.3143Z" fill="white" stroke="#405391" stroke-width="2" stroke-miterlimit="10" stroke-linejoin="round"/>
<path d="M655.168 0V5.4222" stroke="#405391" stroke-width="2" stroke-miterlimit="10" stroke-linejoin="round"/>
<path d="M637.864 9.53687L642.555 12.248" stroke="#405391" stroke-width="2" stroke-miterlimit="10" stroke-linejoin="round"/>
<path d="M637.479 29.3029L642.171 26.5918" stroke="#405391" stroke-width="2" stroke-miterlimit="10" stroke-linejoin="round"/>
<path d="M654.399 39.5128V34.0906" stroke="#405391" stroke-width="2" stroke-miterlimit="10" stroke-linejoin="round"/>
<path d="M671.703 29.976L666.992 27.2649" stroke="#405391" stroke-width="2" stroke-miterlimit="10" stroke-linejoin="round"/>
<path d="M672.088 10.21L667.377 12.9211" stroke="#405391" stroke-width="2" stroke-miterlimit="10" stroke-linejoin="round"/>
<path d="M332.373 83.6597V89.1011" stroke="#405391" stroke-width="2" stroke-miterlimit="10" stroke-linejoin="round"/>
<path d="M315.068 93.2158L319.759 95.9269" stroke="#405391" stroke-width="2" stroke-miterlimit="10" stroke-linejoin="round"/>
<path d="M314.683 112.963L319.374 110.251" stroke="#405391" stroke-width="2" stroke-miterlimit="10" stroke-linejoin="round"/>
<path d="M331.603 123.192V117.77" stroke="#405391" stroke-width="2" stroke-miterlimit="10" stroke-linejoin="round"/>
<path d="M348.907 113.635L344.196 110.924" stroke="#405391" stroke-width="2" stroke-miterlimit="10" stroke-linejoin="round"/>
<path d="M349.291 93.8887L344.581 96.5998" stroke="#405391" stroke-width="2" stroke-miterlimit="10" stroke-linejoin="round"/>
<path d="M371.402 312.027V317.468" stroke="#405391" stroke-width="2" stroke-miterlimit="10" stroke-linejoin="round"/>
<path d="M354.098 321.583L358.789 324.294" stroke="#405391" stroke-width="2" stroke-miterlimit="10" stroke-linejoin="round"/>
<path d="M353.694 341.33L358.404 338.618" stroke="#405391" stroke-width="2" stroke-miterlimit="10" stroke-linejoin="round"/>
<path d="M370.613 351.559V346.117" stroke="#405391" stroke-width="2" stroke-miterlimit="10" stroke-linejoin="round"/>
<path d="M387.917 342.003L383.226 339.292" stroke="#405391" stroke-width="2" stroke-miterlimit="10" stroke-linejoin="round"/>
<path d="M388.302 322.256L383.611 324.967" stroke="#405391" stroke-width="2" stroke-miterlimit="10" stroke-linejoin="round"/>
<path d="M80.9435 545.989C102.064 545.989 119.185 543.329 119.185 540.048C119.185 536.766 102.064 534.106 80.9435 534.106C59.8231 534.106 42.7017 536.766 42.7017 540.048C42.7017 543.329 59.8231 545.989 80.9435 545.989Z" fill="#2048AB"/>
<path d="M71.4072 611.324H90.4801C97.5748 610.921 103.516 610.094 107.227 609.017L117.82 540.297H117.705C117.705 543.451 101.247 546.008 80.9437 546.008C60.6403 546.008 44.1823 543.451 44.1823 540.297H44.0669L54.6608 609.017C58.3715 610.094 64.3126 610.921 71.4072 611.324Z" fill="white" stroke="#405391" stroke-width="2" stroke-miterlimit="10" stroke-linejoin="round"/>
<path d="M27.4365 458.157C12.2858 458.157 0 470.424 0 485.576C0 488.056 0.365307 490.459 0.98056 492.748C1.82653 492.325 2.76864 492.075 3.78766 492.075C7.34459 492.075 10.2094 494.959 10.2094 498.497C10.2094 500.823 8.97886 502.842 7.1331 503.957C12.1513 509.495 19.3805 512.975 27.4365 512.975C42.5871 512.975 54.8729 500.689 54.8729 485.537C54.8537 470.424 42.5679 458.157 27.4365 458.157Z" fill="#2048AB"/>
<path d="M47.8541 478.019C47.8541 480.115 46.1622 481.807 44.0665 481.807C41.9708 481.807 40.2788 480.115 40.2788 478.019C40.2788 475.923 41.9708 474.231 44.0665 474.231C46.1622 474.231 47.8541 475.923 47.8541 478.019Z" fill="white" stroke="#405391" stroke-width="2" stroke-miterlimit="10" stroke-linejoin="round"/>
<path d="M144.822 483.182C153.408 470.695 150.246 453.613 137.76 445.027C125.274 436.441 108.193 439.603 99.607 452.089C91.0215 464.576 94.1833 481.658 106.669 490.244C119.155 498.83 136.237 495.668 144.822 483.182Z" fill="#2048AB"/>
<path d="M120.55 467.944C120.55 467.944 81.0973 490.882 84.3851 536.644" stroke="#405391" stroke-width="2" stroke-miterlimit="10" stroke-linejoin="round"/>
<path d="M68.2536 459.022C79.0398 469.655 96.4015 469.54 107.034 458.753C117.666 447.966 117.551 430.604 106.765 419.971C95.9785 409.338 78.6168 409.453 67.9844 420.24C57.3521 431.007 57.4674 448.389 68.2536 459.022Z" fill="#F38A3F"/>
<path d="M86.3279 440.698C86.3279 440.698 58.8914 508.533 84.1937 542.566" stroke="#405391" stroke-width="2" stroke-miterlimit="10" stroke-linejoin="round"/>
<path d="M28.3784 485.575C28.3784 485.575 71.5231 500.419 77.195 545.97" stroke="#405391" stroke-width="2" stroke-miterlimit="10" stroke-linejoin="round"/>
<path d="M112.245 479.269C127.396 479.269 139.682 491.555 139.682 506.707C139.682 509.187 139.316 511.591 138.701 513.879C137.855 513.456 136.913 513.206 135.894 513.206C132.337 513.206 129.453 516.09 129.453 519.628C129.453 521.954 130.684 523.973 132.529 525.088C127.511 530.626 120.282 534.106 112.226 534.106C97.0754 534.106 84.7896 521.82 84.7896 506.668C84.828 491.555 97.0946 479.269 112.245 479.269Z" fill="#F38A3F"/>
<path d="M91.8271 499.131C91.8271 501.227 93.5191 502.919 95.6148 502.919C97.7105 502.919 99.4025 501.227 99.4025 499.131C99.4025 497.035 97.7105 495.343 95.6148 495.343C93.5191 495.343 91.8271 497.055 91.8271 499.131Z" fill="white" stroke="#405391" stroke-width="2" stroke-miterlimit="10" stroke-linejoin="round"/>
<path d="M117.821 500.708C117.821 500.708 87.3664 512.821 79.8872 544.585" stroke="#405391" stroke-width="2" stroke-miterlimit="10" stroke-linejoin="round"/>
<path d="M240.122 594.366C241.526 599.115 239.526 603.883 235.662 605.018C231.797 606.152 227.529 603.23 226.144 598.5C224.741 593.75 226.741 588.982 230.605 587.847C234.45 586.713 238.719 589.636 240.122 594.366Z" fill="#2048AB"/>
<path d="M227.875 93.4466C190.479 96.2923 159.812 126.018 155.871 163.32C154.313 177.971 156.832 191.892 162.369 204.14C163.408 206.448 163.485 209.063 162.696 211.466L154.948 235.443C153.487 239.961 157.563 244.326 162.177 243.172L184.768 237.5C187.441 236.827 190.286 237.173 192.632 238.615C206.341 247.133 222.856 251.556 240.487 250.152C278.556 247.114 309.396 216.254 312.395 178.183C316.202 129.845 276.211 89.7741 227.875 93.4466Z" fill="white" stroke="#405391" stroke-width="2" stroke-miterlimit="10" stroke-linejoin="round"/>
<path d="M270.097 162.781V192.373C270.097 192.373 262.041 204.063 235.277 204.063C208.513 204.063 200.458 192.373 200.458 192.373V162.781" fill="#F38A3F"/>
<path d="M260.618 167.781V213.427" stroke="#405391" stroke-width="2" stroke-miterlimit="10"/>
<path d="M234.431 179.394L181.808 157.013C179.982 156.244 180.039 153.629 181.904 152.937L234.528 133.421C235.028 133.248 235.566 133.248 236.047 133.421L288.67 152.937C290.535 153.629 290.593 156.225 288.766 157.013L236.143 179.394C235.604 179.625 234.989 179.625 234.431 179.394Z" fill="#F38A3F"/>
<path d="M260.617 221.484C258.386 221.484 256.579 219.676 256.579 217.446C256.579 215.215 258.386 213.408 260.617 213.408C262.847 213.408 264.654 215.215 264.654 217.446C264.635 219.676 262.828 221.484 260.617 221.484Z" fill="#2048AB"/>
</svg>
