<svg width="173" height="187" viewBox="0 0 173 187" fill="none" xmlns="http://www.w3.org/2000/svg">
<path d="M148.731 112.017C148.32 108.488 148.591 104.868 149.451 101.465C153.827 84.1801 148.823 69.4534 139.983 58.4531C131.988 48.5001 129.993 33.7782 129.993 33.7782C124.119 13.8337 104.222 0 86.1124 0C68.0026 0 48.1635 13.0373 42.2943 32.9818C42.2943 32.9818 39.6423 48.7704 32.2419 58.4531C23.6725 69.6658 18.3975 84.1801 22.774 101.465C23.6338 104.868 23.9044 108.488 23.4938 112.017C23.1894 114.623 22.4987 117.331 21.0543 119.204H151.175C149.726 117.326 149.035 114.623 148.731 112.017Z" fill="#191919"/>
<path d="M100.474 141.62L97.1115 101.61C97.1115 101.61 93.1021 106.89 87.8465 108.121C82.5908 109.352 77.5525 105.249 77.4897 105.201C77.4269 105.153 73.2582 100.466 73.2582 100.466L70.4613 141.866C70.4564 142.363 70.413 142.85 70.3453 143.328L100.536 142.908C100.498 142.484 100.469 142.054 100.474 141.62Z" fill="white" stroke="#1E0A05" stroke-width="2.9698" stroke-miterlimit="10"/>
<path d="M68.1716 94.2054C68.1716 94.2054 75.0214 118.504 89.7739 116.795C102.102 115.366 98.3047 90.6143 98.3047 90.6143L68.1716 94.2054Z" fill="#191919"/>
<path d="M61.288 70.7665C61.4571 76.7904 56.7086 81.8151 50.6801 81.9841C44.6515 82.153 39.6229 77.4082 39.4538 71.3843C39.2848 65.3604 44.0332 60.3357 50.0618 60.1667C56.0903 59.993 61.1141 64.7426 61.288 70.7665Z" fill="white" stroke="#1E0A05" stroke-width="3.0487" stroke-miterlimit="10"/>
<path d="M131.785 70.7665C131.954 76.7904 127.206 81.8151 121.177 81.9841C115.149 82.153 110.12 77.4082 109.951 71.3843C109.782 65.3604 114.531 60.3357 120.559 60.1667C126.588 59.993 131.611 64.7426 131.785 70.7665Z" fill="white" stroke="#1E0A05" stroke-width="3.0487" stroke-miterlimit="10"/>
<path d="M86.1124 87.9501C110.064 87.9501 129.481 68.5482 129.481 44.6147C129.481 20.6812 110.064 1.2793 86.1124 1.2793C62.1604 1.2793 42.7435 20.6812 42.7435 44.6147C42.7435 68.5482 62.1604 87.9501 86.1124 87.9501Z" fill="#191919"/>
<path d="M122.129 51.3769C122.143 53.6262 119.607 74.8643 117.245 83.1134C114.004 94.4323 99.976 104.438 99.976 104.438C91.2713 109.328 81.301 109.497 72.4128 104.873C72.4128 104.873 57.6168 95.3929 55.3319 83.2051C52.337 67.2089 50.342 51.7437 50.342 51.7437C50.342 51.7437 46.6176 15.0211 85.3346 15.4893C124.052 15.9527 122.129 51.3769 122.129 51.3769Z" fill="white" stroke="#1E0A05" stroke-width="2.9698" stroke-miterlimit="10"/>
<path d="M104.667 46.9167C104.667 46.9167 112.299 47.8821 111.661 51.4395C111.661 51.4395 111.526 55.1417 104.555 54.157C97.5849 53.1675 94.1697 50.1845 94.4982 48.5096C94.9619 46.1541 100.995 46.1541 104.667 46.9167Z" fill="#191919"/>
<path d="M66.3408 46.9167C66.3408 46.9167 58.7086 47.8821 59.3462 51.4395C59.3462 51.4395 59.4814 55.1417 66.452 54.157C73.4225 53.1675 76.8377 50.1845 76.5092 48.5096C76.0503 46.1541 70.0169 46.1541 66.3408 46.9167Z" fill="#191919"/>
<path d="M100.812 67.5807C102.543 67.5807 103.947 66.1781 103.947 64.4481C103.947 62.718 102.543 61.3154 100.812 61.3154C99.0804 61.3154 97.6768 62.718 97.6768 64.4481C97.6768 66.1781 99.0804 67.5807 100.812 67.5807Z" fill="#191919"/>
<path d="M70.0701 67.5807C71.8015 67.5807 73.2051 66.1781 73.2051 64.4481C73.2051 62.718 71.8015 61.3154 70.0701 61.3154C68.3387 61.3154 66.9351 62.718 66.9351 64.4481C66.9351 66.1781 68.3387 67.5807 70.0701 67.5807Z" fill="#191919"/>
<path d="M86.5617 69.772L87.3394 76.351H83.673" stroke="black" stroke-width="3.0487" stroke-miterlimit="10" stroke-linecap="round" stroke-linejoin="round"/>
<path d="M76.5333 82.9634C76.5333 82.9634 79.9872 84.7783 85.1076 84.7783C90.3149 84.7783 94.4789 82.9634 94.4789 82.9634" stroke="black" stroke-width="2.8498" stroke-miterlimit="10" stroke-linecap="round" stroke-linejoin="round"/>
<path d="M48.6416 45.0586C48.6416 45.0586 85.3394 37.0122 85.3346 15.4845C85.3346 15.4845 47.9122 -1.25982 48.6416 45.0586Z" fill="#191919"/>
<path d="M121.086 45.0586C121.086 45.0586 84.3879 38.301 84.3927 15.4845C84.3927 15.4845 121.815 -1.25982 121.086 45.0586Z" fill="#191919"/>
<path d="M150.818 150.814L104.28 136.411H86.2041H86.0206H67.9446L21.4069 150.814C21.4069 150.814 1.52429 157.828 1.52429 185.872H86.0206H86.2041H170.7C170.7 157.828 150.818 150.814 150.818 150.814Z" fill="#E69051" stroke="#1E0A05" stroke-width="3.0487" stroke-miterlimit="10"/>
<path d="M73.751 134.615L45.6033 143.328C45.6033 143.328 54.9842 165.84 87.4891 165.84C122.11 165.84 126.675 143.328 126.675 143.328L98.7105 134.417" fill="white"/>
<path d="M73.751 134.615L45.6033 143.328C45.6033 143.328 54.9842 165.84 87.4891 165.84C122.11 165.84 126.675 143.328 126.675 143.328L98.7105 134.417" stroke="#1E0A05" stroke-width="3.0487" stroke-miterlimit="10"/>
<path d="M71.7125 133.805L71.5386 138.376L99.4496 137.647L99.0148 132.965L71.7125 133.805Z" fill="white"/>
</svg>
