<svg width="164" height="188" viewBox="0 0 164 188" fill="none" xmlns="http://www.w3.org/2000/svg">
<path d="M98.9443 144.217L94.9285 102.634C94.9285 102.634 90.2686 107.623 84.1467 108.774C78.0248 109.93 72.1451 106.033 72.072 105.987C71.9989 105.942 67.1288 101.497 67.1288 101.497L63.9719 144.377C63.9674 144.848 63.9171 145.309 63.844 145.761L99.0311 145.437C98.9762 145.035 98.9397 144.628 98.9443 144.217Z" fill="white" stroke="#1E0A05" stroke-width="3.0487" stroke-miterlimit="10"/>
<path d="M62.8526 99.1073C62.8526 99.1073 69.3537 124.189 86.4264 121.932C98.7798 120.296 96.3082 97.1748 96.3082 97.1748L62.8526 99.1073Z" fill="#191919"/>
<path d="M59.9699 72.2218C60.1481 78.467 55.2278 83.6706 48.9825 83.8442C42.7373 84.0224 37.5337 79.1021 37.3601 72.8569C37.182 66.6116 42.1023 61.408 48.3475 61.2344C54.5882 61.0608 59.7917 65.9766 59.9699 72.2218Z" fill="white" stroke="#1E0A05" stroke-width="3.0487" stroke-miterlimit="10"/>
<path d="M125.657 72.2218C125.835 78.467 120.914 83.6706 114.669 83.8442C108.424 84.0224 103.22 79.1021 103.047 72.8569C102.869 66.6116 107.789 61.408 114.034 61.2344C120.275 61.0608 125.483 65.9766 125.657 72.2218Z" fill="white" stroke="#1E0A05" stroke-width="3.0487" stroke-miterlimit="10"/>
<path d="M115.588 54.8155C115.656 68.3567 113.71 80.0567 111.745 88.3578C109.822 96.4898 104.331 102.191 96.5503 106.797L95.1341 107.637C86.9015 112.512 76.2385 112.681 67.8324 108.062C59.3532 103.407 53.4049 97.2437 51.5409 88.5406C48.1465 72.7059 47.6988 55.1581 47.6988 55.1581C47.6988 55.1581 42.9338 18.5274 79.5507 19.0071C116.163 19.4868 115.588 54.8155 115.588 54.8155Z" fill="white" stroke="#1E0A05" stroke-width="3.0487" stroke-miterlimit="10"/>
<path d="M98.501 50.918C98.501 50.918 105.719 51.987 105.116 55.9388C105.116 55.9388 104.988 60.046 98.396 58.9495C91.8035 57.8531 88.5736 54.5454 88.8842 52.686C89.3182 50.0682 95.0244 50.0682 98.501 50.918Z" fill="#191919"/>
<path d="M62.2542 50.918C62.2542 50.918 55.0359 51.987 55.6389 55.9388C55.6389 55.9388 55.7668 60.046 62.3592 58.9495C68.9517 57.8531 72.1816 54.5454 71.871 52.686C71.4324 50.0682 65.7263 50.0682 62.2542 50.918Z" fill="#191919"/>
<path d="M95.4265 70.4026C97.064 70.4026 98.3914 69.0752 98.3914 67.4377C98.3914 65.8001 97.064 64.4727 95.4265 64.4727C93.7889 64.4727 92.4615 65.8001 92.4615 67.4377C92.4615 69.0752 93.7889 70.4026 95.4265 70.4026Z" fill="#191919"/>
<path d="M66.3567 70.4026C67.9942 70.4026 69.3217 69.0752 69.3217 67.4377C69.3217 65.8001 67.9942 64.4727 66.3567 64.4727C64.7192 64.4727 63.3917 65.8001 63.3917 67.4377C63.3917 69.0752 64.7192 70.4026 66.3567 70.4026Z" fill="#191919"/>
<path d="M82.7076 72.541L83.5802 79.9375H78.2989" stroke="black" stroke-width="3.0487" stroke-miterlimit="10" stroke-linecap="round" stroke-linejoin="round"/>
<path d="M69.9385 85.8174C69.9385 85.8174 73.2644 87.5352 80.5741 87.5352C89.0351 87.5352 91.9452 85.8174 91.9452 85.8174" stroke="black" stroke-width="2.8498" stroke-miterlimit="10" stroke-linecap="round" stroke-linejoin="round"/>
<path d="M79.0938 92.7158H84.1284" stroke="black" stroke-width="2.8498" stroke-miterlimit="10" stroke-linecap="round" stroke-linejoin="round"/>
<path d="M110.05 20.816L80.2223 15.4297L51.0978 20.816L48.6673 29.8481L49.2658 40.2598C49.2658 40.2598 52.1531 28.4501 62.2039 30.8029C64.575 31.3557 67.4121 32.274 70.7289 32.8953C73.8263 33.5212 76.7822 33.8044 79.569 33.8455C79.898 33.8547 80.2406 33.8455 80.5741 33.8455C80.9076 33.8455 81.2503 33.8501 81.5792 33.8455C84.366 33.7999 87.3173 33.5166 90.4193 32.8953C93.7361 32.274 96.6371 31.5476 98.9443 30.8029C108.264 27.8013 111.695 39.7253 111.695 39.7253L112.485 29.8481L110.05 20.816Z" fill="#191919"/>
<path d="M56.8633 23.018C56.8633 23.018 42.1799 20.8845 39.6946 34.1835C37.2094 47.4826 48.6627 72.5366 48.6627 72.5366L47.2922 53.175C46.4287 44.81 48.4023 36.3947 52.8978 29.286L56.8633 23.018Z" fill="#191919"/>
<path d="M103.115 20.2584C103.115 20.2584 120.983 15.2695 123.007 34.1879C124.446 47.6241 114.793 70.4029 114.793 70.4029L115.09 64.7013C116.533 48.9307 113.865 38.6697 103.115 20.2584Z" fill="#191919"/>
<path d="M116.373 33.078C116.373 33.078 88.5873 17.1383 50.4947 31.8079C50.4947 31.8079 32.5768 10.1576 60.4222 1.65547C84.1284 -5.57656 113.815 11.9804 116.373 33.078Z" fill="#191919"/>
<path d="M142.72 152.884L98.7067 139.251H81.6112H81.4376H64.342L20.3285 152.884C20.3285 152.884 1.52435 159.522 1.52435 186.065H81.4376H81.6112H161.524C161.524 159.522 142.72 152.884 142.72 152.884Z" fill="#E69051" stroke="#1E0A05" stroke-width="3.0487" stroke-miterlimit="10"/>
<path d="M65.0593 139.028L50.8694 143.423C50.8694 143.423 55.447 160.953 81.6112 160.953C107.775 160.953 110.9 143.03 110.9 143.03L97.4275 138.859" fill="white"/>
<path d="M65.0593 139.028L50.8694 143.423C50.8694 143.423 55.447 160.953 81.6112 160.953C107.775 160.953 110.9 143.03 110.9 143.03L97.4275 138.859" stroke="#1E0A05" stroke-width="3.0487" stroke-miterlimit="10"/>
<path d="M65.1324 138.069L64.5978 144.355L74.2969 144.03L98.1904 143.596L97.6422 137.73L65.1324 138.069Z" fill="white"/>
</svg>
