<svg width="43" height="42" viewBox="0 0 43 42" fill="none" xmlns="http://www.w3.org/2000/svg">
<path d="M7.46597 3.79297C7.49288 3.21773 7.4912 2.71312 7.54671 2.21525C7.68463 0.953736 8.78131 -0.00669292 10.0395 3.5131e-05C11.306 0.00676318 12.396 0.975603 12.5221 2.2287C12.5726 2.72658 12.5726 3.2295 12.5978 3.79297C12.7828 3.79297 12.9594 3.79297 13.1344 3.79297C18.8162 3.79297 24.498 3.79297 30.1782 3.79297C30.3329 3.79297 30.486 3.79297 30.6407 3.79297C31.4414 3.79802 31.6062 3.96286 31.6129 4.74836C31.6197 5.41948 31.6062 6.09229 31.6483 6.76173C31.6819 7.27138 32.0082 7.60778 32.4809 7.76757C32.9569 7.92904 33.4329 7.84831 33.7474 7.45976C33.9526 7.20746 34.1175 6.84246 34.1276 6.52288C34.1696 5.20923 34.1595 3.89221 34.1393 2.57856C34.1292 1.8923 33.7323 1.42806 33.1352 1.30696C32.533 1.18417 32.0435 1.46339 31.7071 2.07732C31.6062 2.26402 31.4532 2.49446 31.2782 2.5466C31.0882 2.60379 30.7534 2.5466 30.6458 2.41036C30.5095 2.23711 30.449 1.90576 30.5146 1.69046C30.9317 0.299433 32.6592 -0.401966 33.9745 0.262429C34.9618 0.761987 35.3958 1.60131 35.416 2.68116C35.4227 3.02934 35.4177 3.37584 35.4177 3.79129C35.6128 3.79129 35.7726 3.78961 35.934 3.79129C37.3049 3.80138 38.6757 3.79129 40.0466 3.82661C41.5503 3.86698 42.9144 5.13017 42.9901 6.87106C42.9968 7.01066 42.9951 7.15027 42.9951 7.28988C42.9951 15.1667 42.9951 23.0453 42.9951 30.9222C42.9951 31.0904 43.0086 31.2636 42.9682 31.4234C42.8875 31.7447 42.6655 31.923 42.324 31.9045C42.0027 31.886 41.811 31.6959 41.7504 31.3881C41.7218 31.2384 41.7319 31.082 41.7319 30.9272C41.7319 25.8627 41.7319 20.7964 41.7319 15.7319C41.7319 15.5654 41.7319 15.3989 41.7319 15.1735C41.5335 15.1735 41.3568 15.1735 41.1819 15.1735C29.8889 15.1735 18.5958 15.1735 7.30282 15.1735C7.14975 15.1735 6.99333 15.1819 6.84194 15.1667C6.48031 15.1314 6.22633 14.8673 6.22465 14.541C6.22296 14.2147 6.47695 13.9507 6.83858 13.9153C6.99164 13.9002 7.14639 13.9086 7.29945 13.9086C18.579 13.9086 29.8569 13.9086 41.1365 13.9086C41.3165 13.9086 41.4965 13.9086 41.7319 13.9086C41.7319 13.732 41.7319 13.584 41.7319 13.4343C41.7319 11.3637 41.7336 9.29316 41.7319 7.2226C41.7303 5.81812 40.9902 5.06794 39.5891 5.06289C38.2603 5.05785 36.9298 5.06458 35.601 5.06794C35.5606 5.06794 35.5203 5.08476 35.3739 5.11672C35.3739 5.69029 35.421 6.29076 35.3638 6.88115C35.2411 8.14771 34.1477 9.10309 32.8845 9.10645C31.6079 9.10982 30.5095 8.13593 30.3935 6.84583C30.343 6.27899 30.3851 5.70374 30.3851 5.09822C24.419 5.09822 18.5252 5.09822 12.5288 5.09822C12.5288 5.70206 12.5726 6.30086 12.5204 6.89292C12.4111 8.13761 11.2841 9.11486 10.0294 9.10645C8.78131 9.09804 7.6779 8.14602 7.55848 6.91815C7.50129 6.32609 7.54839 5.72393 7.54839 5.09485C7.32973 5.0814 7.19517 5.06458 7.06061 5.06458C5.84283 5.06289 4.62505 5.05953 3.40896 5.06458C2.0112 5.0713 1.27112 5.82148 1.26944 7.22933C1.26775 9.29988 1.26944 11.3704 1.26944 13.441C1.26944 13.5789 1.26944 13.7169 1.26944 13.9103C1.95065 13.9103 2.60327 13.9103 3.25589 13.9103C3.59902 13.9103 3.86142 14.0398 3.94888 14.3947C4.05485 14.8253 3.75881 15.1617 3.25757 15.1718C2.61505 15.1836 1.97252 15.1752 1.26944 15.1752C1.26944 15.345 1.26944 15.4931 1.26944 15.6411C1.26944 23.1412 1.26944 30.6396 1.26944 38.1397C1.26944 39.5828 2.02129 40.3381 3.46951 40.3381C15.4909 40.3398 27.5105 40.3398 39.5319 40.3381C40.9834 40.3381 41.7319 39.5879 41.7336 38.1414C41.7353 37.1204 41.7319 36.0977 41.7353 35.0767C41.737 34.5587 41.9826 34.261 42.3829 34.2744C42.7664 34.2862 42.9951 34.5755 42.9968 35.0717C43.0002 36.1347 43.0019 37.1978 42.9968 38.2625C42.9867 40.2203 41.6815 41.5491 39.7219 41.6063C39.6513 41.608 39.5823 41.6063 39.5117 41.6063C27.5055 41.6063 15.4976 41.6046 3.49137 41.608C2.09026 41.608 0.956581 41.1118 0.351056 39.7981C0.125666 39.3087 0.0196995 38.7217 0.0196995 38.1784C-0.00384864 27.8508 -0.000484611 17.5249 0.0011974 7.19905C0.0011974 5.14027 1.31149 3.81652 3.377 3.79466C4.57964 3.7812 5.78396 3.79297 6.9866 3.79129C7.13798 3.79297 7.28936 3.79297 7.46597 3.79297ZM11.2707 4.58184C11.2791 4.58184 11.2892 4.58184 11.2976 4.58184C11.2976 3.95445 11.2976 3.32538 11.2976 2.69798C11.2976 2.66939 11.2976 2.64248 11.2959 2.61388C11.2589 1.81325 10.7543 1.27332 10.0395 1.26827C9.3246 1.26323 8.78467 1.80147 8.77121 2.59875C8.75103 3.89558 8.74767 5.19577 8.77962 6.49261C8.78635 6.792 8.90746 7.13345 9.08407 7.37566C9.3986 7.80794 9.88134 7.93241 10.396 7.7743C10.8905 7.62292 11.232 7.27979 11.2606 6.755C11.2993 6.0351 11.2707 5.30679 11.2707 4.58184Z" fill="#5C5C5C"/>
<path d="M21.4927 37.6082C20.9057 37.6082 20.3187 37.6149 19.73 37.6065C19.2069 37.5998 18.9765 37.3811 18.9748 36.8731C18.968 35.684 18.968 34.4965 18.9748 33.3073C18.9781 32.7959 19.2103 32.5605 19.7199 32.5571C20.9091 32.5487 22.0966 32.5487 23.2858 32.5571C23.7937 32.5605 24.0191 32.7976 24.0208 33.3174C24.0275 34.4914 24.0275 35.6671 24.0208 36.8412C24.0174 37.3794 23.7954 37.5981 23.2538 37.6065C22.6668 37.6149 22.0798 37.6082 21.4927 37.6082ZM20.2531 36.308C21.1092 36.308 21.9233 36.308 22.7358 36.308C22.7358 35.4703 22.7358 34.6647 22.7358 33.8438C21.8998 33.8438 21.084 33.8438 20.2531 33.8438C20.2531 34.6747 20.2531 35.4787 20.2531 36.308Z" fill="#5C5C5C"/>
<path d="M6.32614 17.4324C6.92661 17.4324 7.52877 17.4256 8.12925 17.434C8.60358 17.4425 8.83402 17.6544 8.83906 18.1237C8.85252 19.3398 8.85252 20.5559 8.83906 21.772C8.83402 22.2581 8.59685 22.475 8.09898 22.4784C6.90979 22.4851 5.72229 22.4851 4.53311 22.4784C4.04364 22.475 3.79639 22.2463 3.79134 21.7635C3.77789 20.5609 3.77789 19.3599 3.79134 18.1573C3.79639 17.6678 4.03523 17.4425 4.52134 17.434C5.1235 17.424 5.72566 17.4324 6.32614 17.4324ZM5.08649 18.7174C5.08649 19.5416 5.08649 20.3658 5.08649 21.1833C5.92918 21.1833 6.74327 21.1833 7.554 21.1833C7.554 20.3456 7.554 19.5433 7.554 18.7174C6.72814 18.7174 5.92413 18.7174 5.08649 18.7174Z" fill="#5C5C5C"/>
<path d="M6.30327 37.6081C5.71624 37.6081 5.12922 37.6149 4.5422 37.6064C4.03255 37.598 3.79875 37.3726 3.7937 36.8579C3.78361 35.6839 3.78361 34.5099 3.7937 33.3358C3.79707 32.8009 4.03591 32.5638 4.56406 32.5604C5.73811 32.5537 6.91215 32.5537 8.08788 32.5604C8.60762 32.5638 8.84142 32.7841 8.84647 33.2954C8.85824 34.4829 8.85656 35.6721 8.84647 36.8596C8.84142 37.3979 8.6194 37.6031 8.06602 37.6081C7.47731 37.6132 6.89029 37.6081 6.30327 37.6081ZM7.54291 36.3231C7.54291 35.4636 7.54291 34.6511 7.54291 33.8438C6.70358 33.8438 5.90126 33.8438 5.08549 33.8438C5.08549 34.6831 5.08549 35.4955 5.08549 36.3231C5.9164 36.3231 6.7204 36.3231 7.54291 36.3231Z" fill="#5C5C5C"/>
<path d="M34.1481 27.474C34.1481 26.9005 34.1413 26.3269 34.1497 25.755C34.1581 25.2016 34.3667 24.9846 34.9066 24.9813C36.0807 24.9729 37.2564 24.9746 38.4305 24.9813C38.9704 24.9846 39.2008 25.21 39.2042 25.7466C39.2126 26.9206 39.2143 28.0947 39.2042 29.2687C39.1991 29.7952 38.9536 30.0273 38.4187 30.0307C37.2581 30.0374 36.0975 30.0374 34.9369 30.0307C34.3768 30.0273 34.1598 29.8053 34.1514 29.2351C34.1413 28.6481 34.1481 28.061 34.1481 27.474ZM35.4365 28.7406C36.2943 28.7406 37.0983 28.7406 37.9057 28.7406C37.9057 27.8979 37.9057 27.0838 37.9057 26.2714C37.0647 26.2714 36.259 26.2714 35.4365 26.2714C35.4365 27.1057 35.4365 27.9113 35.4365 28.7406Z" fill="#5C5C5C"/>
<path d="M13.9102 37.6082C13.3097 37.6082 12.7075 37.6166 12.1071 37.6048C11.6327 37.5964 11.3973 37.3845 11.3922 36.9169C11.3771 35.7008 11.3771 34.4847 11.3922 33.2686C11.3973 32.7825 11.6395 32.5605 12.134 32.5571C13.3215 32.5487 14.5107 32.5487 15.6998 32.5571C16.1876 32.5605 16.4383 32.7909 16.4433 33.2736C16.4584 34.4763 16.4568 35.6772 16.445 36.8799C16.4399 37.3845 16.196 37.5981 15.6746 37.6048C15.0842 37.6149 14.4972 37.6082 13.9102 37.6082ZM15.1633 33.8522C14.3071 33.8522 13.4947 33.8522 12.679 33.8522C12.679 34.6899 12.679 35.4922 12.679 36.3147C13.5166 36.3147 14.329 36.3147 15.1633 36.3147C15.1633 35.4855 15.1633 34.6815 15.1633 33.8522Z" fill="#5C5C5C"/>
<path d="M29.0563 37.6081C28.4827 37.6081 27.9092 37.6131 27.3373 37.6064C26.7923 37.5997 26.5585 37.3844 26.5535 36.8512C26.5434 35.6771 26.5434 34.5031 26.5535 33.3291C26.5585 32.7959 26.799 32.5621 27.3289 32.5587C28.5029 32.552 29.677 32.552 30.8527 32.5587C31.3657 32.5621 31.6029 32.7858 31.6096 33.2988C31.6214 34.4863 31.6214 35.6755 31.6096 36.863C31.6046 37.3844 31.3775 37.598 30.8611 37.6064C30.2589 37.6148 29.6585 37.6081 29.0563 37.6081ZM30.3195 33.8505C29.4718 33.8505 28.6593 33.8505 27.8503 33.8505C27.8503 34.6949 27.8503 35.5073 27.8503 36.3197C28.6896 36.3197 29.4936 36.3197 30.3195 36.3197C30.3195 35.4921 30.3195 34.6881 30.3195 33.8505Z" fill="#5C5C5C"/>
<path d="M37.5181 19.9521C37.9033 20.3204 38.2262 20.6097 38.5256 20.9209C38.8452 21.2539 38.8503 21.6206 38.5677 21.8847C38.2986 22.1353 37.9521 22.1219 37.6359 21.8073C37.3196 21.4945 37.032 21.153 36.6788 20.7645C36.3743 21.0975 36.149 21.3633 35.9051 21.6122C35.4173 22.1101 35.0842 22.1824 34.7647 21.8746C34.4434 21.5668 34.5224 21.1984 35.0254 20.7022C35.2642 20.4668 35.5165 20.2464 35.8697 19.9218C35.4694 19.5652 35.0994 19.2725 34.7747 18.9361C34.4434 18.593 34.5325 18.1086 34.9278 17.9185C35.2205 17.7772 35.4711 17.8748 35.6914 18.0817C35.8546 18.2347 36.0127 18.3928 36.1658 18.556C36.3188 18.7191 36.4635 18.889 36.6855 19.138C37.0152 18.7713 37.2927 18.4416 37.5955 18.1355C37.9386 17.789 38.3204 17.7671 38.5879 18.043C38.8654 18.3289 38.8351 18.6754 38.4769 19.037C38.1842 19.3348 37.8747 19.614 37.5181 19.9521Z" fill="#5C5C5C"/>
<path d="M29.9221 27.5194C30.2451 27.8138 30.5293 28.0594 30.7984 28.3218C31.2206 28.7355 31.2879 29.119 31.0053 29.4067C30.6958 29.7229 30.3443 29.6623 29.8902 29.2048C29.6345 28.9475 29.3923 28.6784 29.0693 28.3352C28.7228 28.7069 28.4201 29.0467 28.0988 29.3697C27.8448 29.6253 27.5471 29.6977 27.2326 29.4655C26.9046 29.225 26.8861 28.823 27.2124 28.4832C27.5202 28.162 27.8566 27.8693 28.2418 27.5077C27.8768 27.1612 27.5572 26.8752 27.2578 26.5691C26.9096 26.2142 26.8878 25.8509 27.1754 25.575C27.4395 25.3227 27.8112 25.3497 28.1409 25.6692C28.4503 25.9703 28.7447 26.2882 29.0895 26.6431C29.4192 26.2966 29.7068 25.977 30.0129 25.6743C30.3527 25.3412 30.7446 25.3194 31.0087 25.5986C31.2576 25.861 31.224 26.2378 30.9061 26.5641C30.6151 26.8635 30.3073 27.1477 29.9221 27.5194Z" fill="#5C5C5C"/>
<path d="M28.698 20.3759C29.3591 19.7132 30.0268 19.0421 30.698 18.3743C30.8056 18.2667 30.9183 18.1523 31.0478 18.08C31.322 17.9269 31.5928 17.9605 31.8081 18.1943C32.0217 18.4265 32.0486 18.6922 31.867 18.9613C31.8047 19.0522 31.729 19.1363 31.65 19.2153C30.8611 20.0075 30.0722 20.7998 29.2783 21.587C28.8242 22.0377 28.5248 22.0361 28.0656 21.5853C27.6569 21.1833 27.2515 20.7796 26.8512 20.3692C26.4929 20.0025 26.4593 19.6644 26.7335 19.3751C27.0026 19.0942 27.3962 19.1346 27.7612 19.4878C28.0522 19.7704 28.3381 20.0563 28.6257 20.3406C28.6392 20.349 28.6543 20.3524 28.698 20.3759Z" fill="#5C5C5C"/>
<path d="M13.5187 28.0257C13.8534 27.6556 14.1343 27.3276 14.4337 27.0181C14.8407 26.5959 15.2545 26.1805 15.6784 25.7751C15.9946 25.4724 16.3495 25.4572 16.6119 25.7045C16.8827 25.9585 16.8776 26.3504 16.5648 26.6683C15.7238 27.5244 14.8744 28.3738 14.0182 29.2148C13.6667 29.5597 13.3437 29.5563 12.9905 29.2165C12.528 28.7708 12.0738 28.3166 11.6281 27.8558C11.3354 27.553 11.3203 27.1746 11.5625 26.9206C11.8181 26.6531 12.2067 26.6649 12.5263 26.9778C12.8459 27.2906 13.1419 27.6253 13.5187 28.0257Z" fill="#5C5C5C"/>
<path d="M21.0477 28.0055C21.7777 27.2705 22.4152 26.6263 23.0543 25.9821C23.1435 25.8929 23.2276 25.7987 23.3251 25.7197C23.6279 25.4724 23.9912 25.4808 24.2284 25.7365C24.4521 25.977 24.4639 26.3437 24.2048 26.6078C23.3251 27.506 22.4354 28.3924 21.5388 29.2721C21.2731 29.5328 20.9451 29.5513 20.6726 29.2956C20.1529 28.8095 19.6466 28.3083 19.1588 27.7902C18.8863 27.5009 18.9099 27.1242 19.1823 26.8954C19.47 26.6515 19.7862 26.665 20.0503 26.9223C20.3883 27.2537 20.6928 27.617 21.0477 28.0055Z" fill="#5C5C5C"/>
<path d="M5.8863 27.9803C6.59779 27.2655 7.25714 26.6028 7.91985 25.9417C8.01909 25.8442 8.11665 25.7416 8.23103 25.6625C8.50856 25.4725 8.79618 25.4859 9.03166 25.7197C9.28228 25.9687 9.30751 26.2681 9.0754 26.5489C8.9072 26.7525 8.71376 26.9358 8.52538 27.1242C7.84416 27.8071 7.16631 28.4917 6.48005 29.1678C6.07132 29.5715 5.76856 29.5732 5.36151 29.1779C4.92082 28.7507 4.4835 28.3167 4.05627 27.8744C3.72828 27.5346 3.71146 27.1864 3.98563 26.9106C4.24466 26.6499 4.62984 26.6684 4.9511 26.9846C5.27068 27.2991 5.56504 27.6355 5.8863 27.9803Z" fill="#5C5C5C"/>
<path d="M21.0651 20.4297C21.7312 19.7636 22.3401 19.153 22.9506 18.5425C23.0499 18.4432 23.1458 18.3423 23.2467 18.2464C23.5831 17.9336 23.9481 17.9067 24.2121 18.1708C24.4796 18.4365 24.4611 18.8099 24.1398 19.1345C23.356 19.9301 22.5621 20.7156 21.7715 21.5045C21.7026 21.5735 21.6353 21.6458 21.5613 21.7097C21.2501 21.9771 20.9238 21.9957 20.6244 21.7114C20.1282 21.2404 19.6421 20.7577 19.1728 20.2598C18.8953 19.9671 18.9121 19.6122 19.1627 19.3599C19.4066 19.116 19.7767 19.1093 20.0626 19.3818C20.4074 19.7115 20.7203 20.0664 21.0651 20.4297Z" fill="#5C5C5C"/>
<path d="M13.4828 20.4331C14.1876 19.7249 14.8453 19.0622 15.5046 18.4029C15.6123 18.2952 15.7216 18.1808 15.8477 18.1001C16.1135 17.9285 16.3877 17.9521 16.6131 18.1691C16.8384 18.386 16.8738 18.6569 16.7106 18.931C16.6484 19.037 16.5592 19.1312 16.4718 19.2203C15.6846 20.0126 14.8957 20.8031 14.1035 21.5903C13.651 22.0394 13.3533 22.0343 12.8924 21.5802C12.4753 21.1681 12.0582 20.756 11.6511 20.3338C11.3366 20.0075 11.3114 19.6341 11.5687 19.37C11.8244 19.1076 12.2129 19.1245 12.5308 19.439C12.8504 19.7485 13.1481 20.0782 13.4828 20.4331Z" fill="#5C5C5C"/>
</svg>
