<svg width="19" height="21" viewBox="0 0 19 21" fill="none" xmlns="http://www.w3.org/2000/svg">
<path fill-rule="evenodd" clip-rule="evenodd" d="M5.82597 0H12.8171C16.0342 0 18.6431 2.81997 18.6431 6.29738V13.8542C18.6431 17.3316 16.0342 20.1516 12.8171 20.1516H5.82597C2.60887 20.1516 0 17.3316 0 13.8542V6.29738C0 2.81997 2.60887 0 5.82597 0ZM12.8172 18.2624C15.066 18.2624 16.8953 16.285 16.8953 13.8542V6.29738C16.8953 3.86659 15.066 1.88921 12.8172 1.88921H5.82601C3.5772 1.88921 1.74785 3.86659 1.74785 6.29738V13.8542C1.74785 16.285 3.5772 18.2624 5.82601 18.2624H12.8172Z" fill="white"/>
<path fill-rule="evenodd" clip-rule="evenodd" d="M4.66089 10.0755C4.66089 7.29332 6.74773 5.0376 9.32162 5.0376C11.8955 5.0376 13.9823 7.29332 13.9823 10.0755C13.9823 12.8577 11.8955 15.1134 9.32162 15.1134C6.74773 15.1134 4.66089 12.8577 4.66089 10.0755ZM6.40874 10.0755C6.40874 11.8111 7.71607 13.2242 9.32168 13.2242C10.9273 13.2242 12.2346 11.8111 12.2346 10.0755C12.2346 8.33868 10.9273 6.92681 9.32168 6.92681C7.71607 6.92681 6.40874 8.33868 6.40874 10.0755Z" fill="white"/>
<ellipse cx="14.332" cy="4.66007" rx="0.621052" ry="0.6713" fill="white"/>
</svg>
