<svg width="69" height="67" viewBox="0 0 69 67" fill="none" xmlns="http://www.w3.org/2000/svg">
<path d="M30.404 64.0031C30.4174 63.893 30.4282 63.8635 30.4201 63.8527C29.4158 62.7196 29.7139 61.6025 30.3879 60.4317C30.8417 59.6422 31.18 58.783 31.5399 57.9425C31.6446 57.6981 31.6553 57.4108 31.7386 56.9973C30.788 57.3651 30.1596 56.9489 29.5232 56.5273C28.5189 55.8614 27.5066 55.2035 26.4781 54.5725C26.2929 54.4597 25.9518 54.4033 25.78 54.5C25.0388 54.9108 24.3192 55.3619 23.6264 55.848C23.0195 56.2749 22.5818 56.8899 22.5657 57.6364C22.5201 59.7309 22.5496 61.8254 22.5496 64.0031C22.8772 64.0031 23.2048 63.987 23.5324 64.0058C24.1124 64.0407 24.5206 64.4489 24.534 64.9779C24.5501 65.4988 24.1473 65.9634 23.5807 65.9983C22.9792 66.0332 22.3724 66.0385 21.7709 65.9902C21.0539 65.9338 20.6082 65.4612 20.5115 64.7308C20.4766 64.465 20.4766 64.1965 20.4712 63.9279C20.4658 63.6648 20.4685 63.4016 20.4685 63.0686C20.1329 63.0686 19.8724 63.0686 19.6119 63.0686C13.7124 63.0686 7.8102 63.0686 1.91068 63.0686C0.484808 63.0686 0.0122015 62.6014 0.0095162 61.1916C0.00683094 59.3603 0.0363688 57.5263 0.00146041 55.6949C-0.0415038 53.5064 0.863429 51.8604 2.727 50.7352C4.13945 49.8813 5.56532 49.0462 6.98583 48.2003C7.21407 48.0634 7.43963 47.9265 7.7189 47.7573C7.57658 47.5693 7.46917 47.4162 7.34834 47.2686C5.87144 45.4909 4.99873 43.5065 5.09272 41.1381C5.1867 38.7751 5.06318 36.3959 5.28337 34.0463C5.48745 31.8498 6.51053 30.0829 8.89505 29.5082C8.99977 29.4841 9.1045 29.4223 9.18506 29.3525C11.2366 27.5265 13.6238 27.4567 16.1184 28.0609C17.7752 28.461 19.2521 29.2343 20.4873 30.4239C21.9213 31.8041 22.7053 33.4717 22.6866 35.4937C22.6678 37.4808 22.6597 39.4706 22.6892 41.4577C22.7241 43.7804 21.7682 45.6896 20.3128 47.4082C20.2403 47.4914 20.1705 47.5774 20.0496 47.7251C22.1871 49.0328 24.3058 50.3244 26.5318 51.6858C26.9749 51.4227 27.563 51.0709 28.2021 50.6896C27.9711 50.4049 27.7644 50.1525 27.563 49.8974C26.2365 48.2084 25.49 46.3287 25.549 44.1456C25.6081 41.9813 25.5222 39.8089 25.6645 37.65C25.7316 36.6322 26.078 35.5957 26.4889 34.6478C26.9803 33.5146 27.947 32.8111 29.1607 32.4862C29.3299 32.4405 29.5259 32.3976 29.6494 32.2875C31.564 30.5582 33.817 30.4105 36.1907 30.8938C37.63 31.1865 38.9566 31.7746 40.13 32.6607C42.1037 34.1537 43.2019 36.0871 43.1536 38.622C43.1187 40.4319 43.0999 42.2418 43.159 44.0516C43.2342 46.3905 42.4071 48.3695 40.949 50.1364C40.8362 50.2734 40.7181 50.4103 40.608 50.5499C40.5811 50.5822 40.5731 50.6278 40.5435 50.7057C41.1289 51.0575 41.7197 51.4119 42.1762 51.6858C44.3781 50.3432 46.4887 49.0543 48.6477 47.7358C48.4033 47.4324 48.167 47.1504 47.9441 46.855C46.6794 45.1875 45.9409 43.3508 46.0161 41.2106C46.0993 38.8476 46.0483 36.4765 46.1853 34.1161C46.2658 32.7359 46.7008 31.2939 47.8931 30.5367C49.5392 29.4921 51.1369 28.179 53.1294 27.889C56.8914 27.3412 60.0493 28.5523 62.4043 31.5893C63.2474 32.6768 63.6126 33.9604 63.6073 35.3487C63.5965 37.2686 63.5509 39.194 63.618 41.1113C63.7039 43.5065 62.8205 45.507 61.3302 47.3008C61.2308 47.4189 61.1288 47.5371 60.9757 47.7197C61.1932 47.8647 61.3812 47.999 61.5799 48.1171C63.0192 48.9737 64.4585 49.8276 65.8978 50.6815C67.8124 51.8201 68.7522 53.4849 68.7039 55.7325C68.6636 57.5182 68.6985 59.3066 68.6958 61.095C68.6931 62.6175 68.2528 63.066 66.7544 63.066C60.8763 63.066 54.9983 63.066 49.1203 63.066C48.8544 63.066 48.5886 63.066 48.218 63.066C48.218 63.6003 48.2476 64.0864 48.2126 64.5697C48.1428 65.5015 47.6299 66.0009 46.6955 66.0036C40.5704 66.0144 34.448 66.0144 28.3229 66.0063C27.6086 66.0063 27.1683 65.574 27.1897 64.9644C27.2112 64.3817 27.6382 64.0085 28.3283 64.0004C29.005 63.9951 29.6978 64.0031 30.404 64.0031ZM61.4993 39.9485C60.1003 40.0076 58.9027 39.4894 57.8688 38.5522C57.5708 38.281 57.2512 38.0313 56.9747 37.7439C55.9059 36.6296 54.6331 36.114 53.0676 36.208C51.3141 36.3127 51.5585 35.8804 51.11 37.8003C50.6965 39.5645 50.0306 40.2009 48.261 40.5124C48.1992 40.5232 48.1375 40.55 48.0086 40.5903C48.0381 41.2455 47.9737 41.9303 48.1187 42.5694C48.7685 45.4157 50.5515 47.3545 53.2153 48.4259C53.9564 48.724 54.907 48.818 55.6884 48.6595C59.3806 47.9023 62.1304 43.7428 61.4993 39.9485ZM20.592 39.9512C19.1984 40.0022 17.9927 39.5001 16.9589 38.5603C16.6608 38.289 16.344 38.0393 16.0647 37.7493C14.9772 36.6161 13.6829 36.1032 12.0932 36.2053C10.4203 36.3127 10.6351 35.8938 10.2081 37.7251C9.92619 38.9308 9.45358 39.9808 8.14049 40.3701C7.82363 40.4641 7.48797 40.4963 7.0825 40.5715C7.12277 41.2885 7.05564 42.0242 7.22481 42.7009C7.91761 45.5017 9.71674 47.3706 12.3429 48.4796C13.1458 48.818 13.9809 48.8905 14.8348 48.6783C18.5244 47.7626 21.1694 43.7831 20.592 39.9512ZM27.6247 43.4501C27.2569 46.7933 29.4883 50.1874 32.759 51.4119C33.8841 51.8335 34.977 51.8013 36.0806 51.3582C39.1203 50.1364 41.1209 47.1907 41.1182 43.9174C41.1182 42.9238 41.1048 42.9936 40.1649 42.811C39.4829 42.6794 38.8035 42.4029 38.1939 42.0618C37.6596 41.7638 37.1762 41.3288 36.7519 40.8803C35.5194 39.5753 34.056 38.998 32.2515 39.1295C31.0055 39.2208 30.976 39.143 30.737 40.3701C30.4013 42.0994 29.6629 43.4098 27.6247 43.4501ZM57.4392 54.0462C57.4956 54.4382 57.4768 54.7202 57.5788 54.9538C57.9951 55.9124 58.3978 56.8872 58.9027 57.8002C59.472 58.8286 59.6572 59.7819 58.8114 60.7405C58.7604 60.7996 58.7496 60.8963 58.7093 61.0064C61.3839 61.0064 64.0154 61.0064 66.6631 61.0064C66.6631 59.0139 66.6819 57.0725 66.655 55.1337C66.6416 54.1643 66.212 53.3641 65.4037 52.8109C64.778 52.384 64.1148 52.0161 63.4864 51.5945C63.1749 51.3851 62.944 51.4361 62.6486 51.6348C61.5557 52.3652 60.4413 53.066 59.3404 53.7857C58.7979 54.1375 58.2448 54.3818 57.4392 54.0462ZM11.2581 54.0408C10.4418 54.3818 9.88591 54.1348 9.34886 53.7776C8.69902 53.3453 8.03845 52.9264 7.38324 52.5021C5.46865 51.2642 5.48208 51.283 3.59434 52.5693C2.52024 53.2997 1.9993 54.2583 2.02078 55.558C2.04763 57.2094 2.02615 58.8635 2.02883 60.5176C2.02883 60.6868 2.05837 60.856 2.07448 61.0278C4.72752 61.0278 7.33222 61.0278 10.0121 61.0278C9.88054 60.7835 9.80535 60.574 9.67377 60.4049C9.14478 59.7201 9.16626 59.0515 9.56099 58.2916C10.1168 57.2255 10.6002 56.1192 11.0835 55.0155C11.1936 54.7631 11.1883 54.4597 11.2581 54.0408ZM46.1584 63.9763C46.1584 61.863 46.1799 59.8114 46.1477 57.7626C46.1343 56.9624 45.71 56.3072 45.0655 55.8453C44.4318 55.3915 43.7471 55.0155 43.1026 54.5752C42.7589 54.3415 42.4957 54.355 42.1466 54.5913C41.1155 55.2948 40.0441 55.942 39.0076 56.6374C38.4141 57.0349 37.8153 57.3249 36.948 57.008C37.0366 57.4189 37.0527 57.725 37.1655 57.9881C37.6112 59.0085 38.0301 60.0477 38.5699 61.0198C39.0774 61.9301 39.0935 62.7303 38.4329 63.5412C38.3443 63.6513 38.3094 63.8071 38.2342 63.9789C40.9007 63.9763 43.5027 63.9763 46.1584 63.9763ZM27.571 41.3744C28.2289 41.4577 28.4625 41.1274 28.5861 40.6494C28.7579 40.0049 28.9002 39.3497 29.1178 38.7187C29.389 37.9292 29.9448 37.3277 30.7772 37.2257C33.3014 36.9196 35.7423 37.0216 37.6918 39.0114C38.159 39.4867 38.6746 39.9244 39.2036 40.3298C39.746 40.7461 40.3636 40.9582 41.1182 40.7622C41.1182 40.0747 41.0886 39.4061 41.1236 38.7429C41.2337 36.7101 40.3502 35.1634 38.6719 34.1484C37.6784 33.5496 36.5506 33.0716 35.4227 32.8245C33.7176 32.4513 32.0366 32.599 30.7397 34.0463C30.5812 34.2236 30.2778 34.3229 30.0281 34.3605C29.0452 34.5109 28.4062 35.0775 28.0517 35.9663C27.3509 37.7225 27.6167 39.5538 27.571 41.3744ZM47.9065 38.4448C48.704 38.5307 48.9377 38.1548 49.0692 37.6634C49.2277 37.0592 49.3351 36.4389 49.5445 35.8535C49.9205 34.8009 50.6885 34.2316 51.8297 34.2155C52.3667 34.2074 52.9038 34.2316 53.4382 34.2021C55.2212 34.1081 56.7061 34.7714 57.9977 35.9502C58.5428 36.447 59.088 36.9437 59.668 37.3975C60.2077 37.8218 60.8334 38.0071 61.5772 37.846C61.5772 36.9921 61.5691 36.1704 61.5799 35.346C61.5933 34.1967 61.2013 33.1951 60.4467 32.3466C59.1443 30.8777 57.4795 30.0695 55.5542 29.8197C53.9242 29.6076 52.3775 29.766 51.196 31.1221C51.0644 31.2751 50.8174 31.3826 50.6106 31.4067C49.2814 31.5651 48.5268 32.411 48.3335 33.614C48.0811 35.1929 48.0435 36.8041 47.9065 38.4448ZM6.99657 38.4448C7.79409 38.528 8.01965 38.1494 8.15123 37.658C8.30966 37.0538 8.41976 36.4335 8.62921 35.8481C9.00783 34.7955 9.77581 34.2289 10.9144 34.2128C11.4272 34.2048 11.9428 34.2316 12.4557 34.1994C14.2897 34.092 15.8096 34.7767 17.1334 35.9958C17.6597 36.4792 18.1914 36.9598 18.7526 37.4002C19.2951 37.8218 19.918 38.0098 20.6619 37.846C20.6619 37.0162 20.6538 36.216 20.6645 35.4131C20.6807 34.1403 20.2215 33.0555 19.3488 32.1479C18.0598 30.8079 16.4648 30.0533 14.6361 29.8224C13.0089 29.6156 11.4595 29.766 10.278 31.1248C10.1464 31.2778 9.89933 31.3852 9.69257 31.4094C8.3929 31.5598 7.62492 32.3761 7.43158 33.5522C7.17111 35.1634 7.13351 36.8121 6.99657 38.4448ZM24.5743 52.8109C23.8385 52.3679 23.2021 52.0027 22.5872 51.6053C22.2838 51.4092 22.0555 51.4092 21.7467 51.616C20.729 52.3034 19.6871 52.9533 18.6587 53.6246C18.0384 54.03 17.4315 54.4516 16.4675 54.0193C16.5588 54.4758 16.5668 54.7604 16.6742 54.9994C17.1898 56.1621 17.7027 57.3249 18.2774 58.458C18.6076 59.1132 18.5969 59.6825 18.1699 60.2679C18.0115 60.4881 17.896 60.7378 17.7349 61.0252C18.7016 61.0252 19.5475 61.0252 20.482 61.0252C20.482 60.088 20.4793 59.1777 20.482 58.2674C20.4873 56.3152 21.3681 54.8517 22.9846 53.8045C23.468 53.493 23.9594 53.1949 24.5743 52.8109ZM50.9409 61.0305C50.8147 60.7915 50.7529 60.6224 50.6482 60.4881C50.0601 59.7523 50.0762 59.03 50.522 58.2029C51.0805 57.1664 51.5397 56.0708 52.0123 54.9887C52.1197 54.7416 52.1009 54.4409 52.1385 54.1643C52.0714 54.218 52.0042 54.269 51.9344 54.3227C51.3893 54.1482 50.7932 54.0596 50.3125 53.7803C49.1579 53.109 48.0569 52.3383 46.9264 51.6241C46.7733 51.5274 46.5156 51.4092 46.4001 51.471C45.6536 51.8765 44.9313 52.3303 44.1149 52.8217C44.4774 53.0392 44.6976 53.1842 44.9313 53.3077C47.2809 54.551 48.4302 56.4629 48.2341 59.1482C48.1885 59.7631 48.2288 60.3861 48.2288 61.0305C49.1525 61.0305 49.9957 61.0305 50.9409 61.0305ZM34.3621 64.0004C34.6064 64.0004 34.8562 63.9709 35.0978 64.0058C35.6349 64.0837 35.8954 63.8178 36.2068 63.3989C36.8271 62.5611 36.8835 61.7958 36.3062 60.9312C36.0618 60.566 35.8604 60.1471 35.7477 59.7228C35.4979 58.7749 34.9179 58.4903 33.9888 58.6245C33.629 58.6756 33.3927 58.7131 33.2316 59.0918C32.8422 60.0128 32.3884 60.907 31.9883 61.8254C31.9104 62.0026 31.8782 62.2738 31.9614 62.4322C32.4609 63.3962 32.8905 64.5106 34.3621 64.0004ZM13.8601 61.0574C14.083 61.0574 14.3112 61.0305 14.5287 61.0627C15.1329 61.154 15.4525 60.8855 15.7962 60.3807C16.344 59.5832 16.4326 58.8904 15.8821 58.0821C15.6216 57.7008 15.4149 57.255 15.2994 56.8093C15.0443 55.8104 14.4106 55.5741 13.4707 55.6815C13.1055 55.7218 12.9176 55.8265 12.7726 56.1541C12.3778 57.0537 11.9455 57.9344 11.5561 58.8367C11.4702 59.0354 11.4192 59.3334 11.5078 59.508C11.9965 60.4478 12.3859 61.5891 13.8601 61.0574ZM54.7674 60.9822C55.9704 61.3904 56.596 60.7942 57.0525 59.7846C57.2244 59.4059 57.313 59.124 57.1116 58.7373C56.7894 58.1251 56.5208 57.4887 56.2308 56.8603C55.6616 55.6332 55.6616 55.6197 54.3189 55.711C54.1256 55.7245 53.8571 55.8829 53.7738 56.0494C53.2958 57.0053 52.8528 57.9828 52.4231 58.9629C52.356 59.1186 52.3587 59.3603 52.4339 59.5107C52.9145 60.4774 53.3388 61.5568 54.7674 60.9822ZM36.4243 53.4769C36.8325 53.9065 37.2138 54.3389 37.6327 54.7309C37.7348 54.8249 38.0113 54.8571 38.1295 54.7846C38.9566 54.2798 39.7648 53.74 40.6751 53.1493C40.0844 52.7948 39.5822 52.4807 39.064 52.1987C38.9619 52.145 38.7686 52.1826 38.6531 52.2444C37.9335 52.6283 37.2219 53.0311 36.4243 53.4769ZM32.2649 53.4849C31.4566 53.0284 30.7262 52.6095 29.9851 52.2094C29.8884 52.1584 29.7166 52.145 29.628 52.196C29.1124 52.486 28.6102 52.8029 28.0275 53.1573C29.013 53.7937 29.9018 54.3711 30.8444 54.9806C31.3277 54.4704 31.7815 53.9898 32.2649 53.4849ZM61.1288 50.2197C60.5434 49.8652 60.0412 49.551 59.523 49.261C59.4317 49.21 59.2625 49.2234 59.1658 49.2745C58.4113 49.6826 57.6675 50.1069 56.8887 50.5419C57.3613 51.0414 57.8259 51.5354 58.3092 52.0456C59.2598 51.428 60.1486 50.8534 61.1288 50.2197ZM11.8032 50.5365C11.0245 50.1015 10.2941 49.688 9.55562 49.2879C9.45627 49.2342 9.2871 49.1993 9.20117 49.2449C8.66949 49.5403 8.15123 49.8598 7.55779 50.2143C8.56207 50.8641 9.45627 51.4388 10.3934 52.043C10.8821 51.522 11.344 51.0279 11.8032 50.5365ZM20.2134 50.217C19.6388 49.8706 19.1742 49.5698 18.6909 49.3067C18.5647 49.2395 18.3418 49.2288 18.2183 49.2932C17.4745 49.6826 16.7494 50.1015 15.9734 50.5365C16.4353 51.0306 16.8971 51.5274 17.3832 52.0483C18.323 51.4415 19.2172 50.8614 20.2134 50.217ZM52.7266 50.5392C51.9425 50.1042 51.2336 49.696 50.5112 49.3174C50.3823 49.2503 50.1595 49.2261 50.0413 49.2906C49.5392 49.5618 49.0612 49.8759 48.4946 50.2197C49.4774 50.8561 50.3797 51.4415 51.3061 52.043C51.7975 51.522 52.254 51.0387 52.7266 50.5392ZM54.1659 53.7803C54.6304 53.6675 55.3581 53.7078 55.581 53.391C56.0993 52.6579 55.8683 52.2524 54.8077 51.3367C53.6584 52.3115 53.5993 52.5048 54.1659 53.7803ZM13.895 51.3367C12.7457 52.2954 12.684 52.4941 13.2452 53.7803C13.7097 53.6675 14.4374 53.7078 14.6603 53.3936C15.1812 52.6579 14.9637 52.2739 13.895 51.3367ZM33.629 56.6428C34.1231 56.4575 34.8051 57.0026 35.1435 56.3313C35.5812 55.464 35.3664 55.0612 34.3218 54.3039C33.0087 55.5956 33.2047 55.1095 33.629 56.6428Z" fill="#5C5C5C"/>
<path d="M47.1221 13.4208C47.098 20.5636 41.7033 26.345 34.402 26.8042C27.5278 27.2392 21.4859 22.3547 20.4199 15.3838C20.1352 13.5256 20.2641 11.6888 20.7716 9.87897C20.9086 9.38756 21.2389 9.04922 21.7169 9.09756C22.0418 9.12978 22.4499 9.37682 22.6137 9.65072C22.7668 9.9085 22.7185 10.3462 22.6379 10.6765C22.0525 13.0288 22.2163 15.3247 23.0783 17.5803C24.9553 22.4863 29.9176 25.381 35.2989 24.715C40.2317 24.1055 44.3321 19.9755 44.9632 14.9783C45.8601 7.88382 40.3553 1.81781 33.2125 2.09171C29.9015 2.21523 27.1465 3.60351 24.9741 6.11691C24.8425 6.26997 24.727 6.43377 24.5901 6.58146C24.1497 7.05944 23.6127 7.12389 23.1615 6.76675C22.7265 6.42303 22.6191 5.80005 23.0326 5.33819C23.7899 4.49233 24.531 3.59545 25.4306 2.92145C29.5417 -0.161228 34.0718 -0.872822 38.8247 1.11427C43.5427 3.08525 46.2494 6.74258 46.9771 11.8204C47.0523 12.3494 47.0765 12.8865 47.1221 13.4208Z" fill="#5C5C5C"/>
<path d="M31.6714 15.4589C33.3175 13.496 34.9072 11.6002 36.4995 9.70174C36.8003 9.34192 37.0903 8.97135 37.4071 8.62764C37.8395 8.15503 38.3953 8.09864 38.8357 8.45846C39.2707 8.81292 39.3513 9.40905 38.9538 9.88971C36.8432 12.4327 34.7192 14.9675 32.5844 17.4917C32.1467 18.0099 31.6284 18.0448 31.1048 17.6152C29.9824 16.6942 28.8761 15.7516 27.7805 14.8011C27.2917 14.3768 27.2461 13.8182 27.6032 13.3752C27.9711 12.9241 28.5753 12.8703 29.0909 13.2919C29.9421 13.9794 30.7665 14.6936 31.6714 15.4589Z" fill="#5C5C5C"/>
</svg>
