<svg width="22" height="21" viewBox="0 0 22 21" fill="none" xmlns="http://www.w3.org/2000/svg">
<path d="M4.37417 9.08833C6.11417 12.39 8.9175 15.085 12.3371 16.7767L14.9954 14.21C15.3217 13.895 15.805 13.79 16.2279 13.93C17.5813 14.3617 19.0433 14.595 20.5417 14.595C21.2063 14.595 21.75 15.12 21.75 15.7617V19.8333C21.75 20.475 21.2063 21 20.5417 21C9.19542 21 0 12.1217 0 1.16667C0 0.525 0.54375 0 1.20833 0H5.4375C6.10208 0 6.64583 0.525 6.64583 1.16667C6.64583 2.625 6.8875 4.025 7.33458 5.33167C7.4675 5.74 7.37083 6.195 7.0325 6.52167L4.37417 9.08833Z" fill="white"/>
</svg>
