<svg width="30" height="36" viewBox="0 0 30 36" fill="none" xmlns="http://www.w3.org/2000/svg">
<path d="M3.65424 15.363V3.57303C2.64516 3.57303 1.82712 2.77317 1.82712 1.78652C1.82712 0.799859 2.64516 0 3.65424 0H25.5797C26.5888 0 27.4068 0.799859 27.4068 1.78652C27.4068 2.77317 26.5888 3.57303 25.5797 3.57303V15.363C27.2822 17.1865 28.1963 18.998 28.6834 20.4267C28.9501 21.2093 29.0875 21.8732 29.1584 22.3579C29.1939 22.6005 29.2127 22.7986 29.2228 22.9453C29.2277 23.0187 29.2304 23.0793 29.2321 23.1261L29.2332 23.1679L29.2335 23.1859L29.2339 23.2081V23.217V23.221V23.2229C29.2339 23.2229 29.2255 22.9883 29.2339 23.2247C29.2339 24.2114 28.4159 25.0112 27.4068 25.0112H16.4441V33.9438C16.4441 34.9305 15.6261 35.7303 14.6169 35.7303C13.6078 35.7303 12.7898 34.9305 12.7898 33.9438V25.0112H1.82712C0.818038 25.0112 0 24.2114 0 23.2247C0 22.3314 0 23.2229 0 23.2229V23.221L1.8296e-05 23.217L7.3184e-05 23.2081L0.000346753 23.1859C0.000602549 23.1695 0.00107789 23.1495 0.00184528 23.1261C0.00338006 23.0793 0.00617604 23.0187 0.0111823 22.9453C0.0211767 22.7986 0.0400318 22.6005 0.0754597 22.3579C0.146279 21.8732 0.283715 21.2093 0.550548 20.4267C1.03758 18.998 1.9518 17.1865 3.65424 15.363ZM21.9254 3.57303H7.30847V16.0786C7.30847 16.5524 7.11597 17.0069 6.77333 17.3419C5.22572 18.8551 4.45044 20.3402 4.05854 21.4382H25.1753C24.7834 20.3402 24.0082 18.8551 22.4606 17.3419C22.118 17.0069 21.9254 16.5524 21.9254 16.0786V3.57303Z" fill="#F98149"/>
</svg>
