<svg width="45" height="43" viewBox="0 0 45 43" fill="none" xmlns="http://www.w3.org/2000/svg">
<path d="M0 4.44492C0 1.99006 1.99006 0 4.44492 0H40.0043C42.4592 0 44.4492 1.99006 44.4492 4.44492V28.892C44.4492 31.3469 42.4592 33.3369 40.0043 33.3369H24.4471V37.7818H31.1144C32.3419 37.7818 33.3369 38.7768 33.3369 40.0043C33.3369 41.2317 32.3419 42.2267 31.1144 42.2267H13.3348C12.1073 42.2267 11.1123 41.2317 11.1123 40.0043C11.1123 38.7768 12.1073 37.7818 13.3348 37.7818H20.0021V33.3369H4.44492C1.99006 33.3369 0 31.3469 0 28.892V4.44492ZM40.0043 28.892V4.44492H4.44492V28.892H40.0043Z" fill="#F98149"/>
</svg>
