<svg width="120" height="120" viewBox="0 0 120 120" fill="none" xmlns="http://www.w3.org/2000/svg">
<path d="M38.1592 60.7799C45.1891 67.8091 52.0953 74.6971 59.0722 81.6909C61.0328 80.384 63.1347 79.0594 65.1483 77.6112C75.9758 69.8578 86.3263 61.5394 95.4934 51.8433C102.965 43.9487 108.953 35.0827 112.627 24.7684C112.944 23.8854 112.856 23.3379 112.167 22.6491C107.151 17.7039 102.188 12.7411 97.2421 7.72526C96.5532 7.0188 96.0056 6.98348 95.1225 7.30138C89.3467 9.38542 83.9594 12.1759 78.9255 15.6552C78.3426 16.0437 77.7774 16.45 77.1768 16.8208C76.1347 17.4567 75.0926 17.2977 74.5097 16.4146C73.9621 15.5846 74.1741 14.5602 75.1809 13.9067C77.7774 12.1936 80.3385 10.4274 83.041 8.90857C90.1062 4.93476 97.6483 2.1796 105.685 1.03161C109.589 0.484107 113.58 0.431123 117.537 0.254509C119.038 0.183864 119.656 0.943302 119.692 2.53282C119.921 13.9067 117.396 24.6448 112.167 34.7294C107.151 44.4432 100.227 52.691 92.2787 60.0911C91.3956 60.9035 91.007 61.716 90.9893 62.9699C90.9363 67.1203 89.6116 70.9882 87.8983 74.7147C84.3304 82.4504 79.2258 89.1264 73.5383 95.4138C72.0192 97.0916 70.4649 98.6988 68.8929 100.324C67.6211 101.631 66.4554 101.472 65.5369 99.8468C63.276 95.82 61.0505 91.7756 58.8073 87.7311C58.5776 87.3249 58.348 86.9364 58.1184 86.5125C55.7516 87.6428 53.473 88.7731 51.1592 89.8505C49.6225 90.5569 49.1632 90.451 47.9622 89.25C42.1687 83.4571 36.3576 77.6465 30.5641 71.8536C29.416 70.7056 29.31 70.2464 30.0165 68.7452C31.0763 66.4669 32.2067 64.2062 33.3548 61.8043C33.0722 61.6277 32.7366 61.4157 32.3657 61.2215C28.2325 58.9255 24.0817 56.6295 19.9486 54.3159C18.4472 53.4858 18.2706 52.2848 19.454 51.1192C25.6537 44.973 32.2421 39.3037 39.7842 34.8354C44.041 32.3098 48.5097 30.2258 53.4201 29.3074C54.7095 29.0602 56.0342 28.9189 57.3589 28.9189C58.2597 28.9189 58.8426 28.601 59.4608 27.9828C62.4989 24.9804 65.5722 22.0133 68.6632 19.0462C68.9459 18.7813 69.2461 18.5163 69.5817 18.3397C70.4119 17.9158 71.2067 18.0571 71.772 18.7636C72.3195 19.4347 72.3195 20.1942 71.7896 20.9183C71.6483 21.1126 71.4893 21.2715 71.3127 21.4305C61.1035 30.4201 52.5369 40.8756 44.4649 51.7373C42.2393 54.7397 40.1904 57.8658 38.1592 60.7799ZM67.7094 96.4558C74.3154 89.5502 80.2855 82.3621 84.3834 73.8316C85.7434 71.0058 86.8385 68.0741 87.2624 64.6654C78.8548 71.9419 70.3059 78.6709 61.1035 84.5697C63.329 88.5789 65.4662 92.429 67.7094 96.4558ZM35.2978 58.7842C41.1972 49.5473 47.9798 41.0699 54.9391 32.6807C42.1334 35.4359 32.7543 43.5954 23.3752 52.1612C27.4554 54.4395 31.3412 56.5942 35.2978 58.7842ZM116.018 3.78678C110.719 3.89275 105.544 4.33428 100.669 5.65888C105.208 10.1978 109.73 14.7191 114.216 19.2051C115.329 15.7612 116.424 6.77154 116.018 3.78678ZM55.6456 83.7573C49.0926 77.205 42.6632 70.7762 36.1279 64.2415C35.2801 65.9194 34.4323 67.6149 33.6198 69.3103C33.5315 69.5046 33.6728 69.8932 33.8317 70.1051C34.291 70.7233 34.8209 71.2884 35.2801 71.8359C36.8874 70.7409 37.6823 70.6526 38.3888 71.412C38.6361 71.677 38.9363 72.1008 38.8834 72.4187C38.7774 73.1075 38.4771 73.761 38.3005 74.2908C39.0423 75.1033 39.7842 75.9157 40.5437 76.7634C41.4092 75.9863 42.31 75.5801 43.2991 76.3396C44.1293 76.9577 44.0763 77.7701 43.2815 79.2537C44.0586 80.1191 44.8005 80.9668 45.5423 81.7793C46.8317 80.7902 47.6442 80.7019 48.4037 81.4084C49.1809 82.1325 49.1279 82.9096 48.0681 84.5874C48.5804 85.0289 49.1103 85.5588 49.7108 85.9827C49.9757 86.1593 50.435 86.3006 50.6999 86.1946C52.3779 85.4351 53.9853 84.6051 55.6456 83.7573Z" fill="#FF8B36" stroke="#FF8B36" stroke-width="0.5" stroke-miterlimit="10"/>
<path d="M28.8154 77.4522C34.4322 77.4346 39.5722 80.9845 41.5328 86.2122C43.5464 91.5989 42.1333 97.5861 37.7706 101.26C29.8399 107.936 21.3086 113.746 11.7706 117.914C10.0219 118.691 8.09664 119.204 6.2067 119.504C2.05588 120.193 -0.346299 117.596 0.377886 113.428C0.907777 110.338 2.09123 107.459 3.52193 104.704C7.7434 96.6148 12.7067 89.0381 18.6591 82.0971C21.185 79.1477 24.9119 77.4522 28.8154 77.4522ZM38.8657 90.8042C38.8127 90.3273 38.8127 89.6209 38.636 88.9497C37.6116 84.923 35.1034 82.2208 31.0409 81.3024C27.1727 80.437 23.7814 81.5673 21.2026 84.6051C15.2325 91.6166 10.1809 99.2463 6.15371 107.512C5.11159 109.649 4.49339 112.015 3.87519 114.311C3.50426 115.742 4.12247 116.325 5.58851 116.025C7.21351 115.689 8.87382 115.318 10.3752 114.647C19.5953 110.479 27.9852 104.969 35.651 98.3809C37.8412 96.4911 38.8127 93.9302 38.8657 90.8042Z" fill="#FF8B36" stroke="#FF8B36" stroke-width="0.5" stroke-miterlimit="10"/>
<path d="M98.0899 31.9743C97.9309 37.5553 93.3385 42.0413 87.969 41.8823C82.3875 41.7057 77.9187 37.1668 78.0247 31.7624C78.1483 26.1638 82.829 21.6071 88.2339 21.8014C93.8684 22.031 98.2488 26.5346 98.0899 31.9743ZM88.0926 25.369C84.507 25.3513 81.6456 28.1595 81.5926 31.7447C81.5396 35.3653 84.401 38.2794 88.022 38.2971C91.5899 38.3148 94.469 35.4889 94.5219 31.9213C94.5749 28.3008 91.7135 25.3867 88.0926 25.369Z" fill="#FF8B36" stroke="#FF8B36" stroke-width="0.5" stroke-miterlimit="10"/>
<path d="M78.0247 51.8964C78.0423 57.3891 73.5736 61.8928 68.045 61.9634C62.6048 62.034 57.8888 57.3185 57.9418 51.8611C58.0124 46.3508 62.5342 41.8471 68.0097 41.8648C73.5029 41.8825 78.007 46.3861 78.0247 51.8964ZM74.4567 51.8435C74.4391 48.2759 71.56 45.4324 67.9921 45.4324C64.3711 45.4324 61.4744 48.3465 61.5097 51.9494C61.545 55.5347 64.4064 58.3605 67.9744 58.3605C71.613 58.3782 74.492 55.464 74.4567 51.8435Z" fill="#FF8B36" stroke="#FF8B36" stroke-width="0.5" stroke-miterlimit="10"/>
<path d="M35.3154 91.0514C35.3154 92.9412 34.6618 94.6014 33.2488 95.82C28.5681 99.8468 23.7461 103.697 18.3942 106.823C17.3697 107.423 16.2393 107.883 15.1265 108.307C14.049 108.713 12.9716 108.642 12.0884 107.777C11.2759 106.982 11.17 105.905 11.5762 104.951C12.4064 103.043 13.2189 101.065 14.42 99.3876C17.4933 95.0959 20.7257 90.9278 23.9933 86.795C25.6713 84.658 28.674 84.0399 31.1999 84.9936C33.6727 85.9473 35.3154 88.3669 35.3154 91.0514ZM15.7447 103.785C15.833 103.856 15.9213 103.927 16.0096 103.997C16.1156 103.962 16.2216 103.927 16.3276 103.874C21.5382 100.836 26.2719 97.1093 30.8289 93.1884C31.1645 92.9059 31.4118 92.4643 31.5708 92.0405C32.083 90.6452 31.5531 89.2676 30.299 88.5259C29.0626 87.8017 27.5613 88.0137 26.5368 89.25C24.4349 91.7932 22.333 94.3364 20.3724 96.9856C18.7297 99.1933 17.2814 101.507 15.7447 103.785Z" fill="#FF8B36" stroke="#FF8B36" stroke-width="0.5" stroke-miterlimit="10"/>
</svg>
