<svg width="96" height="109" viewBox="0 0 96 109" fill="none" xmlns="http://www.w3.org/2000/svg">
<path d="M94.8886 108.25C63.3359 108.25 31.8631 108.25 0.29451 108.25C0.709677 105.727 1.10886 103.284 1.52402 100.826C2.33839 95.9878 3.16873 91.134 3.95116 86.2961C5.26053 78.2171 9.71559 72.7566 17.476 70.0902C21.8193 68.6054 26.1785 67.1365 30.5538 65.7474C31.6236 65.4121 32.1825 64.9491 31.9589 63.7995C31.927 63.6079 31.9909 63.3844 32.0069 63.097C33.0927 63.097 34.1625 63.097 35.3601 63.097C35.1366 67.7592 37.1325 71.9903 37.9469 76.6684C38.2982 76.3012 38.5058 76.0936 38.6974 75.8541C40.6295 73.539 42.5457 71.1919 44.5257 68.9087C44.8291 68.5575 45.4359 68.286 45.9309 68.2701C47.3361 68.2062 48.9169 67.8869 50.0826 68.4138C51.2163 68.9247 51.9189 70.3617 52.7971 71.4155C54.2183 73.1079 55.6234 74.8003 57.1723 76.6525C57.7791 74.2575 58.4019 72.0541 58.8809 69.8188C59.36 67.6155 59.6953 65.3802 60.1264 63.0491C60.9727 63.0491 62.0426 63.0491 63.2082 63.0491C63.2082 63.7835 63.2082 64.4701 63.2082 65.2205C66.7052 66.3861 70.1543 67.4877 73.5555 68.6852C76.1902 69.6113 78.9367 70.4096 81.3957 71.7029C87.1282 74.7365 90.194 79.7499 91.2479 86.0886C92.3976 93.1138 93.5952 100.139 94.7609 107.164C94.8248 107.515 94.8567 107.851 94.8886 108.25ZM32.438 68.7491C27.44 70.4255 22.5538 71.9583 17.7475 73.7146C12.2864 75.7104 8.93315 79.6701 7.68765 85.3541C7.24055 87.4138 6.95314 89.4894 6.60184 91.5651C5.86732 95.9239 5.14874 100.283 4.41422 104.721C8.43814 104.721 12.3822 104.721 16.4381 104.721C16.965 99.4684 17.492 94.2474 18.0349 88.9625C19.2644 89.0903 20.3343 89.202 21.484 89.3138C20.973 94.4869 20.462 99.5642 19.951 104.705C26.4181 104.705 32.7573 104.705 39.0966 104.705C39.1445 104.514 39.1765 104.37 39.1924 104.242C40.1665 97.4726 41.0766 90.6869 42.1625 83.9331C42.4818 81.9054 40.9649 80.9953 40.2303 79.4785C38.8731 81.0911 37.6435 82.56 36.3022 84.1726C35.0088 78.9516 33.7473 73.9382 32.438 68.7491ZM77.2121 88.9785C77.755 94.2953 78.2819 99.5163 78.8089 104.721C82.8967 104.721 86.8089 104.721 90.721 104.721C90.7529 104.594 90.7848 104.514 90.7848 104.45C89.7469 98.223 88.8048 91.9802 87.6551 85.7693C86.6012 80.0692 83.3597 75.9659 77.9147 73.8743C73.6512 72.2457 69.292 70.9205 64.9647 69.4676C64.2781 69.244 63.5914 69.0205 62.809 68.765C61.5156 73.9062 60.2541 78.9516 58.9447 84.1567C57.5715 82.5121 56.342 81.0432 55.0166 79.4625C54.4578 80.2928 53.9149 80.9793 53.5157 81.7457C53.2602 82.2566 53.0367 82.9113 53.1005 83.4701C53.7073 88.1642 54.3939 92.8583 55.0486 97.5525C55.3839 99.9315 55.7512 102.326 56.1025 104.689C62.5535 104.689 68.8768 104.689 75.296 104.689C74.785 99.5163 74.274 94.4231 73.763 89.2978C74.9446 89.202 75.9826 89.1062 77.2121 88.9785ZM42.5776 76.6844C43.5996 78.2171 44.6056 79.6861 45.5477 81.2029C45.7712 81.5541 45.899 82.0491 45.8511 82.4482C45.0048 88.5314 44.1105 94.5987 43.2483 100.666C43.0567 102.007 42.897 103.332 42.7213 104.689C46.0746 104.689 49.2682 104.689 52.4937 104.689C52.4778 104.338 52.4778 104.099 52.4458 103.859C51.4398 96.818 50.4179 89.7768 49.4438 82.7197C49.364 82.1608 49.5396 81.4743 49.8271 80.9953C50.7053 79.5264 51.6953 78.1373 52.6694 76.6844C51.36 75.1197 50.1145 73.6029 48.853 72.102C48.4059 71.5751 46.905 71.5432 46.4579 72.0541C45.1325 73.5709 43.871 75.1197 42.5776 76.6844Z" fill="#FF8B36" stroke="#FF8B36" stroke-width="0.5" stroke-miterlimit="10"/>
<path d="M73.747 26.0709C73.747 27.6835 73.715 29.3121 73.7789 30.9247C73.7949 31.3558 74.0025 31.8827 74.3059 32.1701C76.7969 34.5651 77.7709 37.439 76.9086 40.792C76.0144 44.2247 73.6991 46.2684 70.2819 47.1466C69.8668 47.2583 69.3718 47.6894 69.244 48.0726C68.2061 51.0903 66.4496 53.6449 64.2141 55.8802C62.2022 57.892 60.1902 59.9197 58.1782 61.9155C56.5335 63.56 54.6014 64.6617 52.2222 64.6937C49.1723 64.7416 46.1065 64.7416 43.0566 64.6937C40.837 64.6617 38.9688 63.7357 37.4039 62.2189C34.9289 59.776 32.4698 57.3172 30.0587 54.8105C28.2224 52.9105 26.913 50.6911 26.0986 48.1844C25.8751 47.4978 25.5078 47.2264 24.8052 47.0508C21.404 46.2365 19.1685 44.113 18.3222 40.7121C17.5079 37.4869 18.4021 34.6609 20.7973 32.3617C21.3083 31.8827 21.4999 31.4197 21.4999 30.7331C21.452 26.9012 21.3721 23.0693 22.5218 19.3491C25.3322 10.2642 31.2882 4.21293 40.374 1.43478C44.9089 0.0457027 49.5875 -0.22572 54.1862 1.17932C59.7431 2.88773 63.6552 6.48016 66.0185 11.797C66.1941 12.2121 66.6412 12.6592 67.0564 12.7709C71.1123 13.8886 73.6512 17.1298 73.747 21.4247C73.7789 22.9735 73.747 24.5222 73.747 26.0709ZM66.9127 33.3516C61.8509 32.5533 58.3379 29.9667 55.9268 25.7676C55.5595 26.039 55.32 26.2306 55.0645 26.4222C50.9288 29.7911 46.2342 32.1062 40.9648 32.8567C37.3401 33.3676 33.6195 33.2718 29.9469 33.4474C29.4679 33.4634 28.9888 33.4474 28.5577 33.4474C28.5577 36.9121 28.414 40.2491 28.5896 43.5701C28.7813 47.1306 30.3461 50.1802 32.8371 52.7348C35.1045 55.0819 37.4359 57.3811 39.7512 59.6802C40.853 60.7659 42.1783 61.2928 43.7432 61.2928C46.2342 61.2768 48.7252 61.2609 51.2162 61.2928C52.9727 61.3247 54.4257 60.718 55.6553 59.4726C57.779 57.3331 59.9187 55.1937 62.0584 53.0542C64.3738 50.7231 66.0983 47.9768 66.4336 44.7197C66.8328 40.9836 66.785 37.1835 66.9127 33.3516ZM70.1701 29.9348C70.1861 29.8709 70.2181 29.7592 70.2181 29.6634C70.2181 26.9651 70.25 24.2508 70.2181 21.5524C70.1861 18.2155 68.1103 16.1079 64.757 16.0281C63.9586 16.0121 63.6233 15.8205 63.3838 15.0222C61.8508 9.86504 58.5614 6.19277 53.4038 4.62806C48.3579 3.07932 43.2801 3.60621 38.5057 5.80957C30.6814 9.40201 26.2104 15.581 25.1086 24.123C24.8531 26.0709 25.0767 28.0827 25.0767 29.9508C27.7114 29.9508 30.2663 29.9667 32.8211 29.9508C34.6095 29.9348 36.4139 29.9987 38.1864 29.8071C45.0845 29.0567 50.9128 26.0869 55.7351 21.1214C56.0066 20.834 56.31 20.5625 56.7571 20.1474C59.5195 25.8634 62.9047 30.5735 70.1701 29.9348ZM24.9489 43.4264C24.9489 40.2651 24.9489 37.1197 24.9489 33.9264C22.9689 34.4373 21.5158 36.4651 21.4999 38.6046C21.4679 40.8239 22.9529 42.8836 24.9489 43.4264ZM70.266 43.3785C72.1502 43.0432 73.731 40.8718 73.747 38.6525C73.763 36.2894 71.8308 34.0222 70.266 33.9743C70.266 37.1197 70.266 40.2491 70.266 43.3785Z" fill="#FF8B36" stroke="#FF8B36" stroke-width="0.5" stroke-miterlimit="10"/>
</svg>
