<svg width="127" height="116" viewBox="0 0 127 116" fill="none" xmlns="http://www.w3.org/2000/svg">
<path d="M121.924 103.08C125.929 103.9 126.189 104.235 126.189 108.333C126.189 109.487 126.208 110.624 126.189 111.778C126.152 113.659 125.035 114.851 123.191 115.038C122.743 115.075 122.296 115.075 121.831 115.075C90.8914 115.075 59.9335 115.075 28.9942 115.075C26.2747 115.075 25.8835 114.684 25.8835 111.927C25.8835 110.344 25.8835 108.742 25.8835 107.066C18.5631 107.066 11.3173 107.066 4.01552 107.066C4.01552 108.444 4.01552 109.823 4.01552 111.387C4.44394 111.387 4.87236 111.387 5.3194 111.387C9.65947 111.387 14.0182 111.387 18.3582 111.387C18.8425 111.387 19.4945 111.313 19.7925 111.573C20.2954 112.02 20.8729 112.728 20.8356 113.287C20.817 113.846 20.1651 114.498 19.6435 114.907C19.3082 115.168 18.6935 115.075 18.2092 115.075C13.5711 115.094 8.95165 115.094 4.31355 115.075C1.31462 115.075 0.271509 113.995 0.252882 110.996C0.252882 109.692 0.252882 108.37 0.252882 107.066C0.252882 104.552 1.24011 103.471 3.73611 103.267C3.94101 103.248 4.12728 103.229 4.51845 103.192C4.51845 101.795 4.5557 100.417 4.48119 99.0387C4.46256 98.778 4.09003 98.4613 3.81062 98.3123C1.40775 97.0272 0.252882 95.0343 0.252882 92.3337C0.271509 88.7763 0.271509 85.2003 0.252882 81.6429C0.234255 78.9236 1.40775 76.9493 3.792 75.6269C4.12728 75.4407 4.49982 74.9192 4.49982 74.5653C4.53707 67.1525 4.51845 59.7397 4.51845 52.3083C4.51845 52.1593 4.46256 51.9917 4.42531 51.7682C4.03415 51.7495 3.68023 51.7495 3.32632 51.7123C1.51951 51.5633 0.308762 50.334 0.271509 48.5088C0.234255 46.7021 0.252882 44.8955 0.271509 43.1075C0.290135 40.9283 1.53814 39.6991 3.73611 39.6991C10.7026 39.6805 17.669 39.6991 24.6355 39.6991C30.7079 39.6991 36.7616 39.6991 42.834 39.6991C43.2811 39.6991 43.7281 39.6991 44.3055 39.6991C44.3242 39.1962 44.38 38.7678 44.38 38.3395C44.38 34.9311 44.3987 31.5413 44.38 28.1329C44.3614 25.2087 45.4977 22.9365 47.9005 21.223C52.0171 18.2988 56.0591 15.3002 60.157 12.376C61.0511 11.7428 61.4609 11.0909 61.4237 9.97341C61.3305 7.44039 61.3678 4.88875 61.4051 2.35573C61.4237 0.809848 62.4854 -0.0469111 63.7707 0.344216C64.8138 0.660843 65.0932 1.48035 65.0932 2.44886C65.0932 5.11225 65.0559 7.77564 65.1304 10.439C65.1491 10.9792 65.5216 11.6869 65.95 12.0222C69.9548 15.0022 73.9782 17.9822 78.0761 20.8318C80.8888 22.7875 82.1741 25.3205 82.1182 28.7289C82.025 34.6331 82.0995 40.5372 82.0995 46.4228C82.0995 46.907 82.0995 47.3913 82.0995 47.9686C95.5854 47.9686 108.978 47.9686 122.445 47.9686C122.445 46.5159 122.445 45.0445 122.445 43.3869C122.017 43.3869 121.551 43.3869 121.086 43.3869C110.71 43.3869 100.354 43.3869 89.9787 43.3869C89.5689 43.3869 89.1591 43.4055 88.7494 43.3496C87.7062 43.2006 87.0171 42.3997 87.1102 41.394C87.2033 40.351 87.8366 39.7922 88.8798 39.6991C89.1592 39.6805 89.4572 39.6805 89.7366 39.6805C100.596 39.6805 111.456 39.6805 122.315 39.6805C125.128 39.6805 126.227 40.798 126.227 43.629C126.227 45.0631 126.227 46.4973 126.227 47.9314C126.227 50.483 125.128 51.6192 122.613 51.7123C122.445 51.7123 122.296 51.7495 121.943 51.7682C121.943 52.2152 121.943 52.6435 121.943 53.0719C121.943 60.075 121.961 67.078 121.924 74.0997C121.924 74.9192 122.11 75.4034 122.911 75.8132C125.053 76.9121 126.171 78.7746 126.208 81.1772C126.264 85.0326 126.264 88.888 126.208 92.7248C126.171 95.1833 124.997 97.0458 122.818 98.1633C122.11 98.5358 121.887 98.927 121.924 99.672C121.98 100.827 121.924 101.963 121.924 103.08ZM44.6222 74.0811C44.6222 86.5785 44.6222 98.8897 44.6222 111.275C46.8947 111.275 49.1299 111.275 51.4396 111.275C51.4396 110.735 51.4396 110.288 51.4396 109.841C51.4396 104.589 51.4396 99.3553 51.4396 94.1031C51.4396 91.3093 52.9112 89.8379 55.668 89.8379C60.7158 89.8379 65.7451 89.8379 70.793 89.8379C73.5498 89.8379 75.0213 91.3279 75.0213 94.1031C75.0213 99.3926 75.0213 104.682 75.0213 109.953C75.0213 110.381 75.0213 110.81 75.0213 111.275C77.3869 111.275 79.5849 111.275 81.8015 111.275C81.8015 98.8525 81.8015 86.504 81.8015 74.0624C81.2613 74.0624 80.8143 74.0624 80.3672 74.0624C75.3752 74.0624 70.3646 74.0624 65.3726 74.0624C63.752 74.0624 62.8766 73.3919 62.8952 72.1813C62.9138 71.0079 63.7334 70.3747 65.3167 70.3747C69.2097 70.3747 73.1028 70.3747 76.9958 70.3747C77.4242 70.3747 77.8526 70.3374 78.3183 70.3188C78.3555 70.0022 78.3928 69.8159 78.3928 69.611C78.3928 55.6794 78.3928 41.7478 78.3928 27.8163C78.3928 26.3076 77.7781 25.1715 76.5301 24.2775C72.4136 21.3161 68.297 18.3361 64.1991 15.3188C63.4913 14.7973 63.0442 14.7414 62.2991 15.3002C58.313 18.243 54.3082 21.1671 50.2661 24.0167C48.7015 25.1156 48.0682 26.4939 48.0682 28.375C48.1054 41.8969 48.0868 55.4187 48.0868 68.9405C48.0868 69.3875 48.0868 69.8159 48.0868 70.3747C48.7015 70.3747 49.1299 70.3747 49.577 70.3747C51.7004 70.3747 53.8425 70.356 55.966 70.3933C57.0836 70.4119 57.7914 71.101 57.8473 72.1068C57.9032 73.1498 57.1954 73.9693 56.0777 74.0624C55.3885 74.1183 54.6807 74.0811 53.9915 74.0811C50.8995 74.0811 47.8447 74.0811 44.6222 74.0811ZM8.33696 51.7682C8.29971 52.0289 8.24383 52.1965 8.24383 52.3455C8.24383 59.7211 8.2252 67.0966 8.26245 74.4722C8.26245 74.8261 8.63499 75.3662 8.97028 75.5338C11.5222 76.8003 12.7143 78.8491 12.7329 81.6615C12.7515 85.1816 12.7329 88.7018 12.7329 92.2405C12.7329 95.0902 11.5222 97.1948 8.9144 98.4427C8.65362 98.5731 8.28108 98.8338 8.28108 99.0573C8.2252 100.436 8.24383 101.795 8.24383 103.155C14.2417 103.155 20.016 103.155 25.8835 103.155C25.8835 101.777 25.9208 100.51 25.8649 99.2436C25.8463 98.9642 25.5855 98.5731 25.3247 98.4427C22.6238 97.1203 21.4876 94.9226 21.5248 91.9798C21.5621 88.6273 21.5248 85.2561 21.5434 81.9036C21.5434 81.0841 21.5993 80.246 21.8228 79.4823C22.6797 76.5023 25.5482 74.7143 28.6589 75.1241C31.602 75.4966 33.9117 78.0855 33.949 81.14C34.0049 84.8278 33.9303 88.5155 33.9676 92.2033C34.0049 95.0716 32.7941 97.139 30.2236 98.4427C29.9442 98.5731 29.6275 98.927 29.6089 99.2063C29.553 100.51 29.5716 101.814 29.5716 103.192C33.3902 103.192 37.0783 103.192 40.8409 103.192C40.8409 102.652 40.8409 102.205 40.8409 101.758C40.8409 93.0228 40.8782 84.3063 40.8223 75.5711C40.8037 72.9636 41.6046 71.101 44.2683 70.3933C44.2683 64.1725 44.2683 58.0076 44.2683 51.8054C32.2725 51.7682 20.3513 51.7682 8.33696 51.7682ZM96.8707 103.173C96.8707 101.777 96.9079 100.473 96.8334 99.1877C96.8148 98.9083 96.4236 98.5358 96.107 98.3868C93.7041 97.1203 92.4747 95.1833 92.4747 92.4454C92.4747 88.7949 92.4747 85.1444 92.4747 81.5125C92.4747 80.991 92.512 80.4508 92.6238 79.9293C93.3502 76.8189 96.0139 74.8819 99.2549 75.1054C102.198 75.2917 104.731 77.7316 104.843 80.8233C104.992 84.9209 104.955 89.0184 104.862 93.1159C104.806 95.5186 103.483 97.2507 101.36 98.3682C101.043 98.5358 100.633 98.8711 100.615 99.1505C100.54 100.491 100.577 101.832 100.577 103.192C106.519 103.192 112.312 103.192 118.236 103.192C118.236 101.926 118.31 100.734 118.199 99.5602C118.161 99.1505 117.789 98.6103 117.435 98.4241C115.106 97.2134 113.821 95.3509 113.765 92.7434C113.691 88.888 113.691 85.0326 113.765 81.1958C113.821 78.7001 115.032 76.8003 117.286 75.7201C118.068 75.3476 118.236 74.9192 118.236 74.1369C118.217 67.0966 118.217 60.0377 118.217 52.9974C118.217 52.6063 118.18 52.2152 118.161 51.8427C106.072 51.8427 94.1139 51.8427 82.1182 51.8427C82.1182 58.0635 82.1182 64.1911 82.1182 70.4119C84.9308 71.0824 85.62 73.0753 85.6014 75.7014C85.5455 84.3807 85.5828 93.0787 85.5828 101.758C85.5828 102.242 85.5828 102.708 85.5828 103.211C89.4199 103.173 93.0894 103.173 96.8707 103.173ZM44.3242 43.4614C30.8569 43.4614 17.4455 43.4614 4.03415 43.4614C4.03415 45.0073 4.03415 46.46 4.03415 47.95C17.4828 47.95 30.8755 47.95 44.3242 47.95C44.3242 46.4228 44.3242 44.9514 44.3242 43.4614ZM55.2023 93.6002C55.2023 99.523 55.2023 105.371 55.2023 111.257C57.2699 111.257 59.2816 111.257 61.2933 111.257C61.2933 105.315 61.2933 99.4857 61.2933 93.6002C59.2443 93.6002 57.2885 93.6002 55.2023 93.6002ZM65.1491 111.294C67.2725 111.294 69.247 111.294 71.2401 111.294C71.2401 105.334 71.2401 99.4671 71.2401 93.6561C69.1538 93.6561 67.1608 93.6561 65.1491 93.6561C65.1491 99.5416 65.1491 105.353 65.1491 111.294ZM100.615 111.275C107.991 111.275 115.218 111.275 122.427 111.275C122.427 109.804 122.427 108.426 122.427 107.066C115.106 107.066 107.879 107.066 100.615 107.066C100.615 108.5 100.615 109.841 100.615 111.275ZM3.95964 86.9883C3.95964 88.7949 3.94101 90.5829 3.95964 92.3895C3.97826 94.0286 4.96549 95.1647 6.39976 95.2206C7.87129 95.2764 9.00753 94.1589 9.02616 92.4268C9.06341 88.7763 9.06341 85.1444 9.02616 81.4939C9.00753 79.7617 7.92717 78.7001 6.39976 78.756C4.92824 78.8118 3.99689 79.8921 3.97826 81.5684C3.94101 83.375 3.95964 85.1816 3.95964 86.9883ZM122.501 86.9324C122.501 85.1816 122.52 83.4122 122.501 81.6615C122.483 79.8921 121.533 78.7932 120.024 78.7746C118.497 78.756 117.453 79.8176 117.435 81.5684C117.398 85.163 117.398 88.7763 117.435 92.3709C117.453 94.1031 118.497 95.2392 119.987 95.2392C121.458 95.2392 122.483 94.0658 122.501 92.3523C122.52 90.527 122.501 88.739 122.501 86.9324ZM30.2795 86.9883C30.2795 85.1444 30.2981 83.3005 30.2795 81.4566C30.2608 79.8548 29.3109 78.7932 27.8766 78.7373C26.3678 78.6815 25.2688 79.6872 25.2502 81.3448C25.1943 85.0699 25.2129 88.7949 25.2502 92.5199C25.2688 94.1589 26.3864 95.2392 27.8207 95.2019C29.255 95.1647 30.2608 94.0286 30.2608 92.3895C30.2981 90.6015 30.2795 88.7949 30.2795 86.9883ZM96.1815 87.0255C96.1815 88.8694 96.1629 90.7133 96.1815 92.5572C96.2001 94.1031 97.2432 95.2019 98.6403 95.2392C100.037 95.2764 101.174 94.2148 101.192 92.6689C101.248 88.9067 101.248 85.1444 101.192 81.3821C101.174 79.7803 100.112 78.7932 98.6775 78.7932C97.1874 78.7932 96.2001 79.8548 96.1815 81.5311C96.1629 83.3377 96.1815 85.1816 96.1815 87.0255ZM29.6648 111.275C33.4088 111.275 37.0969 111.275 40.785 111.275C40.785 109.823 40.785 108.444 40.785 107.029C37.0597 107.029 33.3902 107.029 29.6648 107.029C29.6648 108.463 29.6648 109.823 29.6648 111.275ZM85.6387 111.238C89.4386 111.238 93.1267 111.238 96.7962 111.238C96.7962 109.785 96.7962 108.444 96.7962 107.048C93.0522 107.048 89.364 107.048 85.6387 107.048C85.6387 108.482 85.6387 109.823 85.6387 111.238Z" fill="#FF8B36" stroke="#FF8B36" stroke-width="0.5" stroke-miterlimit="10"/>
<path d="M55.463 34.6331C55.463 33.6087 55.3699 32.5843 55.4816 31.56C55.8914 27.3879 59.1139 24.4265 63.1559 24.3893C67.2352 24.352 70.5508 27.2017 70.9606 31.3737C71.1841 33.5156 71.1841 35.732 70.9606 37.8739C70.5508 42.139 67.0862 45.1004 62.951 44.9328C58.7414 44.7652 55.5748 41.5244 55.4258 37.2034C55.3885 36.3466 55.4258 35.4899 55.4258 34.6145C55.4258 34.6331 55.4444 34.6331 55.463 34.6331ZM67.347 34.6703C67.347 33.8136 67.3842 32.9382 67.347 32.0815C67.198 29.7161 65.4843 28.0771 63.2118 28.0771C60.958 28.0957 59.2257 29.7533 59.1325 32.1373C59.058 33.8136 59.058 35.4899 59.1325 37.1847C59.2257 39.5688 60.958 41.245 63.2118 41.2636C65.4657 41.2823 67.198 39.6246 67.347 37.2592C67.4029 36.3839 67.347 35.5271 67.347 34.6703Z" fill="#FF8B36" stroke="#FF8B36" stroke-width="0.5" stroke-miterlimit="10"/>
<path d="M63.2305 53.7239C60.4923 53.7239 57.7541 53.7239 54.9974 53.7239C53.4141 53.7239 52.6131 53.1093 52.5945 51.9173C52.5759 50.7066 53.3954 50.0361 54.9415 50.0361C60.4737 50.0361 65.9872 50.0361 71.5194 50.0361C73.0468 50.0361 73.8851 50.7253 73.8664 51.9173C73.8478 53.0906 73.0841 53.7053 71.5753 53.7239C68.7999 53.7425 66.0245 53.7239 63.2305 53.7239Z" fill="#FF8B36" stroke="#FF8B36" stroke-width="0.5" stroke-miterlimit="10"/>
<path d="M63.2305 61.0994C60.3992 61.0994 57.5865 61.0994 54.7552 61.0994C53.3582 61.0994 52.6131 60.4662 52.5945 59.3114C52.5759 58.1753 53.3396 57.4303 54.6807 57.4117C60.3619 57.393 66.0618 57.393 71.743 57.4117C73.0841 57.4117 73.8664 58.1567 73.8478 59.2928C73.8292 60.4476 73.0841 61.0808 71.6871 61.0808C68.8931 61.1181 66.0618 61.0994 63.2305 61.0994Z" fill="#FF8B36" stroke="#FF8B36" stroke-width="0.5" stroke-miterlimit="10"/>
<path d="M63.2863 79.7243C64.3853 79.7243 65.4843 79.6871 66.6019 79.7243C67.7382 79.7616 68.4087 80.4135 68.446 81.4378C68.5019 82.4436 67.8686 83.319 66.7882 83.3562C64.4226 83.4494 62.057 83.4494 59.6913 83.3562C58.611 83.319 57.9777 82.4808 58.0149 81.4565C58.0522 80.4321 58.7227 79.7616 59.8404 79.7243C60.9952 79.6871 62.1501 79.7243 63.2863 79.7243Z" fill="#FF8B36" stroke="#FF8B36" stroke-width="0.5" stroke-miterlimit="10"/>
<path d="M38.2332 62.6825C38.2332 63.7814 38.2704 64.8803 38.2332 65.9978C38.1959 67.1526 37.4509 67.9162 36.445 67.9348C35.4578 67.9535 34.6196 67.1898 34.5823 66.0537C34.5264 63.8187 34.5264 61.565 34.5823 59.3114C34.6196 58.1753 35.4578 57.4116 36.445 57.4303C37.4509 57.4489 38.1959 58.2125 38.2332 59.3673C38.2518 60.4848 38.2332 61.5837 38.2332 62.6825Z" fill="#FF8B36" stroke="#FF8B36" stroke-width="0.5" stroke-miterlimit="10"/>
<path d="M18.0788 62.7941C18.0788 63.8558 18.1161 64.9174 18.0788 65.979C18.0416 67.1524 17.3151 67.9161 16.3093 67.9347C15.2848 67.9719 14.4466 67.171 14.4279 65.9604C14.3907 63.7626 14.3907 61.5463 14.4279 59.3485C14.4652 58.2124 15.2661 57.4487 16.272 57.4487C17.2779 57.4487 18.0416 58.2124 18.0788 59.3671C18.1161 60.5032 18.0788 61.6394 18.0788 62.7941Z" fill="#FF8B36" stroke="#FF8B36" stroke-width="0.5" stroke-miterlimit="10"/>
<path d="M28.1373 62.8502C28.1373 63.9118 28.1746 64.9734 28.1373 66.0351C28.0814 67.1712 27.2991 67.9348 26.3119 67.9348C25.3619 67.9348 24.5237 67.2084 24.5051 66.1282C24.4492 63.8373 24.4492 61.565 24.5051 59.2741C24.5423 58.1566 25.4178 57.393 26.405 57.4303C27.355 57.4675 28.1001 58.2125 28.1373 59.2928C28.1746 60.4848 28.1373 61.6768 28.1373 62.8502Z" fill="#FF8B36" stroke="#FF8B36" stroke-width="0.5" stroke-miterlimit="10"/>
<path d="M103.297 62.7384C103.297 63.8 103.334 64.8617 103.297 65.9233C103.241 67.1339 102.459 67.9348 101.416 67.9162C100.373 67.8976 99.6275 67.0967 99.6275 65.8674C99.6089 63.7442 99.6089 61.6209 99.6275 59.4976C99.6461 58.2497 100.373 57.4489 101.416 57.4302C102.459 57.4116 103.26 58.2125 103.297 59.4231C103.334 60.5406 103.297 61.6395 103.297 62.7384Z" fill="#FF8B36" stroke="#FF8B36" stroke-width="0.5" stroke-miterlimit="10"/>
<path d="M109.686 62.6452C109.686 61.5463 109.667 60.4474 109.705 59.3299C109.742 58.2496 110.45 57.5046 111.418 57.4487C112.406 57.3929 113.318 58.1379 113.356 59.2554C113.411 61.5463 113.411 63.8372 113.356 66.1094C113.318 67.2269 112.443 67.9906 111.437 67.9347C110.431 67.8975 109.723 67.1152 109.686 65.9604C109.667 64.8429 109.686 63.744 109.686 62.6452Z" fill="#FF8B36" stroke="#FF8B36" stroke-width="0.5" stroke-miterlimit="10"/>
<path d="M93.2199 62.7197C93.2199 63.7814 93.2571 64.843 93.2199 65.9046C93.1826 67.1339 92.4189 67.9348 91.3758 67.9348C90.3327 67.9348 89.569 67.1339 89.5503 65.9046C89.5317 63.7441 89.5317 61.565 89.5503 59.4045C89.569 58.2497 90.2954 57.4675 91.3013 57.4302C92.3444 57.393 93.1267 58.1938 93.2199 59.4045C93.2199 59.479 93.2199 59.5721 93.2199 59.6466C93.2199 60.671 93.2199 61.6953 93.2199 62.7197Z" fill="#FF8B36" stroke="#FF8B36" stroke-width="0.5" stroke-miterlimit="10"/>
</svg>
