<svg width="116" height="116" viewBox="0 0 116 116" fill="none" xmlns="http://www.w3.org/2000/svg">
<path d="M72.7851 47.1756C73.3804 47.1756 73.8227 47.1756 74.2649 47.1756C83.6544 47.1756 93.0608 47.1756 102.45 47.1756C106.056 47.1756 107.604 48.7574 107.604 52.3971C107.604 68.8781 107.604 85.342 107.604 101.823C107.604 102.265 107.604 102.707 107.604 103.286C108.319 103.286 108.897 103.269 109.492 103.286C112.775 103.456 115.276 106.041 115.259 109.273C115.242 112.487 112.707 115.089 109.441 115.242C109.135 115.259 108.846 115.242 108.54 115.242C74.6562 115.242 40.7726 115.242 6.88896 115.242C3.504 115.242 1.1396 113.559 0.425184 110.65C-0.459328 107.044 2.10917 103.524 5.83433 103.286C6.46369 103.252 7.09307 103.286 7.89253 103.286C7.89253 102.707 7.89253 102.231 7.89253 101.772C7.89253 70.0176 7.89253 38.2803 7.89253 6.52603C7.89253 3.19242 9.7126 0.862295 12.7403 0.335041C13.2166 0.25 13.7099 0.25 14.1861 0.25C31.5872 0.25 49.0053 0.25 66.4064 0.25C70.4037 0.25 72.7341 2.59713 72.7341 6.61107C72.7341 19.6393 72.7341 32.6676 72.7341 45.6959C72.7851 46.1381 72.7851 46.5803 72.7851 47.1756ZM69.4171 47.1756C69.4171 46.6484 69.4171 46.2912 69.4171 45.917C69.4171 32.8887 69.4171 19.8605 69.4171 6.83217C69.4171 4.38299 68.6347 3.60062 66.2023 3.60062C48.9883 3.60062 31.7574 3.60062 14.5434 3.60062C12.077 3.60062 11.3115 4.36598 11.3115 6.79816C11.3115 38.5014 11.3115 70.2217 11.3115 101.925C11.3115 102.316 11.3115 102.724 11.3115 103.15C24.5281 103.15 37.6087 103.15 50.7743 103.15C50.7743 101.415 50.7403 99.782 50.7914 98.1322C50.8254 96.9076 51.812 96.1082 52.8666 96.4314C53.7851 96.7035 54.1423 97.4008 54.1423 98.3193C54.1423 99.9181 54.1423 101.517 54.1423 103.167C70.914 103.167 87.5496 103.167 104.253 103.167C104.253 102.707 104.253 102.333 104.253 101.976C104.253 85.4271 104.253 68.8781 104.253 52.3291C104.253 50.6623 104.134 50.5433 102.467 50.5433C86.9713 50.5433 71.4753 50.5433 55.9623 50.5433C54.1763 50.5433 54.1253 50.5773 54.1253 52.3631C54.1253 64.7621 54.1253 77.1441 54.1253 89.5431C54.1253 91.0398 53.5299 91.8562 52.4243 91.8562C51.3357 91.8562 50.7574 91.0738 50.7403 89.5601C50.7403 89.492 50.7403 89.407 50.7403 89.339C50.7403 76.94 50.7403 64.558 50.7403 52.159C50.7403 48.7404 52.3222 47.1586 55.7582 47.1586C60.2658 47.1756 64.7564 47.1756 69.4171 47.1756ZM57.7824 111.858C74.6221 111.858 91.4619 111.858 108.319 111.858C108.761 111.858 109.22 111.875 109.662 111.807C111.006 111.603 111.959 110.446 111.908 109.136C111.857 107.81 110.853 106.772 109.475 106.653C109.067 106.619 108.659 106.619 108.234 106.619C74.5881 106.619 40.9427 106.619 7.29718 106.619C6.85492 106.619 6.39564 106.619 5.95338 106.653C4.72868 106.789 3.81015 107.708 3.67407 108.915C3.53799 110.089 4.23541 111.263 5.39208 111.637C5.95341 111.807 6.56572 111.841 7.16107 111.841C24.0348 111.858 40.9086 111.858 57.7824 111.858Z" fill="#FF8B36" stroke="#FF8B36" stroke-width="0.5" stroke-miterlimit="10"/>
<path d="M94.2175 4.4682C100.324 4.51922 105.852 8.46513 107.655 14.0778C107.995 15.1493 107.638 16.0678 106.737 16.3909C105.801 16.7311 104.951 16.2889 104.508 15.2514C104.423 15.0473 104.355 14.8262 104.27 14.6221C102.569 10.4721 98.572 7.81882 94.0644 7.85283C87.4135 7.90386 82.3616 13.7887 83.2461 20.3879C83.9605 25.6604 86.8011 29.7424 90.4582 33.3651C91.4108 34.3176 92.4994 35.134 93.486 36.0354C93.9283 36.4266 94.2685 36.4436 94.7277 36.0524C99.2183 32.3957 102.995 28.2457 104.593 22.4969C104.917 21.3233 105.767 20.8301 106.788 21.1362C107.706 21.4084 108.131 22.2758 107.842 23.4153C107.009 26.6469 105.58 29.6403 103.369 32.1235C101.175 34.6067 98.708 36.8518 96.2586 39.0799C95.0339 40.2024 93.554 40.2364 92.3293 39.335C87.1753 35.5422 82.9229 30.967 80.8307 24.776C78.7215 18.517 79.572 12.7852 84.6069 8.12496C87.2945 5.62476 90.5433 4.45119 94.2175 4.4682Z" fill="#FF8B36" stroke="#FF8B36" stroke-width="0.5" stroke-miterlimit="10"/>
<path d="M102.076 18.7548C102.076 23.194 98.5209 26.7487 94.0984 26.7317C89.7438 26.7147 86.1717 23.1429 86.1547 18.7888C86.1377 14.4177 89.7948 10.778 94.1834 10.795C98.5379 10.829 102.076 14.3837 102.076 18.7548ZM98.691 18.7548C98.674 16.2206 96.6498 14.1796 94.1324 14.1796C91.6319 14.1796 89.5567 16.2376 89.5227 18.7548C89.4887 21.289 91.6149 23.3981 94.1834 23.3811C96.7009 23.347 98.7081 21.306 98.691 18.7548Z" fill="#FF8B36" stroke="#FF8B36" stroke-width="0.5" stroke-miterlimit="10"/>
<path d="M40.3814 45.1516C39.2927 45.1516 38.2041 45.1686 37.1325 45.1516C35.0063 45.1175 33.5944 43.7399 33.5604 41.6479C33.5264 39.4368 33.5264 37.2257 33.5604 35.0317C33.5944 33.0247 34.9042 31.63 36.9283 31.562C39.2076 31.494 41.487 31.494 43.7663 31.562C45.7905 31.613 47.1172 32.9737 47.1683 34.9977C47.2193 37.2428 47.2193 39.4878 47.1683 41.7329C47.1172 43.7909 45.7054 45.1175 43.6472 45.1686C42.5416 45.1686 41.47 45.1516 40.3814 45.1516ZM43.6983 41.7159C43.6983 39.4028 43.6983 37.2087 43.6983 34.9977C41.3849 34.9977 39.1737 34.9977 36.9794 34.9977C36.9794 37.2938 36.9794 39.4708 36.9794 41.7159C39.2417 41.7159 41.436 41.7159 43.6983 41.7159Z" fill="#FF8B36" stroke="#FF8B36" stroke-width="0.5" stroke-miterlimit="10"/>
<path d="M40.3644 87.1789C39.2417 87.1789 38.119 87.196 36.9964 87.1789C35.0573 87.1449 33.6115 85.8353 33.5604 83.9134C33.4924 81.5662 33.4924 79.2021 33.5604 76.838C33.6115 74.9501 35.0233 73.6574 36.9283 73.6234C39.2077 73.5894 41.487 73.5894 43.7663 73.6234C45.6714 73.6574 47.0662 74.916 47.1342 76.821C47.2193 79.2191 47.2363 81.6173 47.1342 83.9984C47.0492 85.9033 45.6374 87.1279 43.7323 87.1619C42.6096 87.196 41.487 87.1789 40.3644 87.1789ZM36.9794 77.0761C36.9794 79.3212 36.9794 81.4982 36.9794 83.7433C39.2417 83.7433 41.47 83.7433 43.7323 83.7433C43.7323 81.4982 43.7323 79.3212 43.7323 77.0761C41.453 77.0761 39.2417 77.0761 36.9794 77.0761Z" fill="#FF8B36" stroke="#FF8B36" stroke-width="0.5" stroke-miterlimit="10"/>
<path d="M29.9543 38.3314C29.9543 39.488 29.9714 40.6445 29.9543 41.8011C29.9033 43.672 28.5765 45.0666 26.7055 45.1177C24.3581 45.1857 21.9937 45.1857 19.6464 45.1177C17.7753 45.0666 16.4655 43.672 16.4315 41.7671C16.3975 39.488 16.3975 37.2089 16.4315 34.9298C16.4655 33.0078 17.7072 31.6302 19.6293 31.5621C22.0107 31.4601 24.4091 31.4601 26.8075 31.5621C28.7296 31.6472 29.9373 33.0418 29.9713 34.9638C29.9713 36.0863 29.9543 37.2089 29.9543 38.3314ZM26.5013 41.733C26.5013 39.4199 26.5013 37.2089 26.5013 34.9808C24.239 34.9808 22.0617 34.9808 19.8675 34.9808C19.8675 37.2769 19.8675 39.488 19.8675 41.733C22.0957 41.733 24.239 41.733 26.5013 41.733Z" fill="#FF8B36" stroke="#FF8B36" stroke-width="0.5" stroke-miterlimit="10"/>
<path d="M64.3141 38.3144C64.3141 39.4709 64.3311 40.6275 64.3141 41.7841C64.2631 43.672 62.9533 45.0666 61.0652 45.1177C58.7179 45.1857 56.3535 45.1857 54.0062 45.1177C52.1351 45.0666 50.8083 43.672 50.7743 41.7671C50.7403 39.488 50.7403 37.2089 50.7743 34.9298C50.8083 33.0078 52.033 31.6302 53.9551 31.5621C56.3365 31.4601 58.7349 31.4601 61.1333 31.5621C63.0554 31.6472 64.2631 33.0418 64.3141 34.9468C64.3481 36.0863 64.3141 37.2089 64.3141 38.3144ZM54.2273 34.9468C54.2273 37.2769 54.2273 39.488 54.2273 41.699C56.5066 41.699 58.6839 41.699 60.8611 41.699C60.8611 39.4199 60.8611 37.1918 60.8611 34.9468C58.6158 34.9468 56.4726 34.9468 54.2273 34.9468Z" fill="#FF8B36" stroke="#FF8B36" stroke-width="0.5" stroke-miterlimit="10"/>
<path d="M40.4324 52.5674C41.487 52.5674 42.5246 52.5504 43.5792 52.5674C45.6544 52.5844 47.1002 53.894 47.1512 55.935C47.2193 58.2141 47.2193 60.4932 47.1512 62.7723C47.1002 64.7452 45.7905 66.0719 43.8173 66.1399C41.504 66.208 39.1737 66.208 36.8603 66.1399C34.9042 66.0719 33.5944 64.6942 33.5604 62.7383C33.5264 60.4932 33.5264 58.2481 33.5604 56.003C33.5944 53.962 35.0233 52.6014 37.0815 52.5674C38.1871 52.5674 39.3098 52.5674 40.4324 52.5674ZM36.9794 55.986C36.9794 58.2821 36.9794 60.4762 36.9794 62.7383C39.2417 62.7383 41.47 62.7383 43.6983 62.7383C43.6983 60.4422 43.6983 58.2311 43.6983 55.986C41.436 55.986 39.2757 55.986 36.9794 55.986Z" fill="#FF8B36" stroke="#FF8B36" stroke-width="0.5" stroke-miterlimit="10"/>
<path d="M40.3303 10.54C41.4529 10.54 42.5756 10.523 43.6983 10.54C45.6714 10.574 47.0662 11.8327 47.1342 13.7886C47.2193 16.1357 47.2193 18.4999 47.1342 20.847C47.0662 22.7519 45.6714 24.0445 43.7833 24.0786C41.504 24.1126 39.2247 24.1126 36.9454 24.0786C35.0062 24.0445 33.5944 22.7179 33.5604 20.779C33.5094 18.4659 33.4924 16.1357 33.5604 13.8226C33.6115 11.8837 35.0233 10.574 36.9624 10.54C38.102 10.523 39.2247 10.54 40.3303 10.54ZM36.9624 20.6089C39.2927 20.6089 41.504 20.6089 43.7153 20.6089C43.7153 18.3298 43.7153 16.1527 43.7153 13.9927C41.419 13.9927 39.2077 13.9927 36.9624 13.9927C36.9624 16.2378 36.9624 18.3808 36.9624 20.6089Z" fill="#FF8B36" stroke="#FF8B36" stroke-width="0.5" stroke-miterlimit="10"/>
<path d="M29.9543 59.4046C29.9543 60.5611 29.9884 61.7177 29.9543 62.8742C29.9033 64.6261 28.7296 66.0207 26.9946 66.0888C24.4601 66.2078 21.9087 66.2078 19.3742 66.0888C17.6392 66.0037 16.4485 64.6091 16.4315 62.8572C16.3975 60.5441 16.3975 58.214 16.4315 55.9009C16.4655 53.9619 17.8433 52.6013 19.7824 52.5673C22.0617 52.5332 24.341 52.5332 26.6204 52.5673C28.5425 52.6013 29.9203 53.9789 29.9713 55.9009C29.9713 57.0744 29.9543 58.248 29.9543 59.4046ZM19.8334 55.9859C19.8334 58.282 19.8334 60.4761 19.8334 62.7382C22.0788 62.7382 24.273 62.7382 26.5013 62.7382C26.5013 60.4591 26.5013 58.248 26.5013 55.9859C24.256 55.9859 22.0958 55.9859 19.8334 55.9859Z" fill="#FF8B36" stroke="#FF8B36" stroke-width="0.5" stroke-miterlimit="10"/>
<path d="M29.9543 17.2581C29.9543 18.4146 29.9713 19.5712 29.9543 20.7277C29.9032 22.6837 28.5764 24.0443 26.6203 24.0614C24.341 24.0954 22.0617 24.0954 19.7824 24.0614C17.8092 24.0273 16.4484 22.7177 16.4144 20.7618C16.3804 18.4486 16.3804 16.1185 16.4144 13.8054C16.4484 11.9005 17.7922 10.5568 19.6803 10.5228C21.9937 10.4888 24.324 10.4888 26.6373 10.5228C28.5765 10.5568 29.9032 11.9175 29.9543 13.8734C29.9713 15.013 29.9543 16.1355 29.9543 17.2581ZM26.5013 20.6597C26.5013 18.3466 26.5013 16.1525 26.5013 13.9925C24.239 13.9925 22.0447 13.9925 19.8504 13.9925C19.8504 16.2546 19.8504 18.4316 19.8504 20.6597C22.0787 20.6597 24.273 20.6597 26.5013 20.6597Z" fill="#FF8B36" stroke="#FF8B36" stroke-width="0.5" stroke-miterlimit="10"/>
<path d="M57.4081 24.0784C56.2855 24.0784 55.1629 24.1125 54.0402 24.0784C52.1521 24.0274 50.8083 22.7008 50.7743 20.7959C50.7233 18.4827 50.7403 16.1526 50.7743 13.8395C50.8083 11.8836 52.1691 10.5569 54.1423 10.5399C56.4216 10.5059 58.7009 10.5059 60.9802 10.5399C62.9364 10.5739 64.2801 11.9176 64.3142 13.8735C64.3482 16.1526 64.3482 18.4317 64.3142 20.7108C64.2801 22.7178 62.9194 24.0274 60.8952 24.0784C59.7385 24.0955 58.5818 24.0784 57.4081 24.0784ZM54.2103 13.9586C54.2103 16.2547 54.2103 18.4487 54.2103 20.6598C56.4726 20.6598 58.6499 20.6598 60.8442 20.6598C60.8442 18.3807 60.8442 16.1866 60.8442 13.9586C58.5989 13.9586 56.4556 13.9586 54.2103 13.9586Z" fill="#FF8B36" stroke="#FF8B36" stroke-width="0.5" stroke-miterlimit="10"/>
<path d="M29.9544 80.4097C29.9544 81.5322 29.9714 82.6548 29.9544 83.7773C29.9204 85.8013 28.5766 87.1619 26.5694 87.1789C24.2901 87.213 22.0108 87.213 19.7315 87.1789C17.8434 87.1619 16.4655 85.8183 16.4145 83.9474C16.3635 81.6002 16.3635 79.2361 16.4145 76.889C16.4485 75.0521 17.7753 73.7084 19.6124 73.6574C21.9597 73.6064 24.3241 73.6064 26.6715 73.6574C28.5766 73.6914 29.8864 75.0521 29.9374 76.94C29.9714 78.0795 29.9544 79.2531 29.9544 80.4097ZM26.5014 83.7603C26.5014 81.4642 26.5014 79.2701 26.5014 77.0591C24.2561 77.0591 22.0618 77.0591 19.8505 77.0591C19.8505 79.3382 19.8505 81.5322 19.8505 83.7603C22.1129 83.7603 24.2731 83.7603 26.5014 83.7603Z" fill="#FF8B36" stroke="#FF8B36" stroke-width="0.5" stroke-miterlimit="10"/>
<path d="M100.256 89.7642C100.256 90.8187 100.273 91.8562 100.256 92.9107C100.205 94.5095 99.2354 95.6831 97.6535 95.7511C95.3061 95.8532 92.9418 95.8532 90.5944 95.7511C89.1316 95.7001 88.111 94.6966 88.043 93.2509C87.9409 90.9378 87.9409 88.6077 88.0259 86.2945C88.094 84.7978 89.1316 83.7773 90.6454 83.7263C92.9588 83.6413 95.2891 83.6243 97.6024 83.7263C99.2354 83.7943 100.205 84.9679 100.256 86.6347C100.29 87.6722 100.256 88.7267 100.256 89.7642ZM91.4109 92.3835C93.299 92.3835 95.034 92.3835 96.82 92.3835C96.82 90.5976 96.82 88.8628 96.82 87.1279C94.983 87.1279 93.2139 87.1279 91.4109 87.1279C91.4109 88.9138 91.4109 90.6146 91.4109 92.3835Z" fill="#FF8B36" stroke="#FF8B36" stroke-width="0.5" stroke-miterlimit="10"/>
<path d="M73.0403 89.6961C73.0403 88.6416 73.0233 87.6041 73.0403 86.5496C73.0914 84.9679 74.095 83.7943 75.6599 83.7263C77.9732 83.6242 80.3035 83.6242 82.6168 83.7093C84.1988 83.7603 85.2533 84.8488 85.3044 86.4646C85.3894 88.6246 85.3894 90.8017 85.3044 92.9787C85.2363 94.6455 84.1817 95.7 82.5148 95.7681C80.2695 95.8531 78.0242 95.8531 75.7789 95.7681C74.078 95.7 73.0743 94.5265 73.0233 92.8257C73.0233 91.7882 73.0403 90.7336 73.0403 89.6961ZM76.4763 87.0939C76.4763 88.9138 76.4763 90.6316 76.4763 92.3834C78.3133 92.3834 80.0824 92.3834 81.8854 92.3834C81.8854 90.5806 81.8854 88.8627 81.8854 87.0939C80.0484 87.0939 78.3133 87.0939 76.4763 87.0939Z" fill="#FF8B36" stroke="#FF8B36" stroke-width="0.5" stroke-miterlimit="10"/>
<path d="M70.3696 89.7301C70.3696 90.8186 70.4036 91.9071 70.3696 92.9787C70.3186 94.5094 69.332 95.666 67.8181 95.734C65.4708 95.836 63.1064 95.836 60.7591 95.751C59.1772 95.683 58.1566 94.5774 58.1055 92.9616C58.0375 90.8356 58.0375 88.6926 58.1055 86.5666C58.1566 84.8487 59.2452 83.7602 60.9462 83.7092C63.1575 83.6412 65.3687 83.6241 67.563 83.7092C69.315 83.7772 70.3526 84.9338 70.3866 86.7026C70.3866 87.7061 70.3696 88.7096 70.3696 89.7301ZM66.9507 87.1278C65.0796 87.1278 63.2935 87.1278 61.5075 87.1278C61.5075 88.9137 61.5075 90.6145 61.5075 92.3834C63.3446 92.3834 65.1306 92.3834 66.9507 92.3834C66.9507 90.6145 66.9507 88.9137 66.9507 87.1278Z" fill="#FF8B36" stroke="#FF8B36" stroke-width="0.5" stroke-miterlimit="10"/>
<path d="M64.2291 56.1389C65.2837 56.1389 66.3213 56.1219 67.3759 56.1389C69.179 56.1729 70.3526 57.2785 70.3696 59.0643C70.4036 61.1563 70.4036 63.2483 70.3696 65.3574C70.3356 67.0242 69.23 68.2147 67.563 68.2487C65.3517 68.3168 63.1404 68.2998 60.9462 68.2487C59.3472 68.2147 58.1735 67.1092 58.1225 65.4764C58.0375 63.2653 58.0205 61.0543 58.1225 58.8602C58.1906 57.1764 59.3983 56.1729 61.0992 56.1389C62.1198 56.1219 63.1744 56.1389 64.2291 56.1389ZM61.5075 64.8301C63.3956 64.8301 65.1646 64.8301 66.9507 64.8301C66.9507 63.0442 66.9507 61.3434 66.9507 59.5916C65.1136 59.5916 63.3445 59.5916 61.5075 59.5916C61.5075 61.3434 61.5075 63.0442 61.5075 64.8301Z" fill="#FF8B36" stroke="#FF8B36" stroke-width="0.5" stroke-miterlimit="10"/>
<path d="M79.1639 56.1389C80.2185 56.1389 81.2561 56.1219 82.3107 56.1389C84.0627 56.1729 85.2534 57.2104 85.3214 58.9623C85.4065 61.0883 85.4065 63.2313 85.3214 65.3574C85.2534 67.1432 84.0627 68.2488 82.2766 68.2658C80.2184 68.2998 78.1603 68.2998 76.1021 68.2658C74.197 68.2317 73.0573 67.0752 73.0403 65.1533C73.0233 63.1633 73.0233 61.1903 73.0403 59.2004C73.0573 57.2785 74.197 56.1729 76.1361 56.1389C77.1567 56.1389 78.1603 56.1389 79.1639 56.1389ZM81.9024 59.5916C80.0313 59.5916 78.2453 59.5916 76.4593 59.5916C76.4593 61.3774 76.4593 63.0783 76.4593 64.8301C78.2964 64.8301 80.0654 64.8301 81.9024 64.8301C81.9024 63.0783 81.9024 61.3774 81.9024 59.5916Z" fill="#FF8B36" stroke="#FF8B36" stroke-width="0.5" stroke-miterlimit="10"/>
<path d="M64.1612 82.0255C63.1576 82.0255 62.137 82.0425 61.1334 82.0255C59.3644 81.9915 58.1737 80.971 58.1056 79.2362C58.0206 77.0761 58.0206 74.8991 58.1056 72.722C58.1737 71.0042 59.3644 69.9327 61.1164 69.8987C63.2086 69.8646 65.3008 69.8476 67.393 69.8987C69.1961 69.9327 70.3357 71.1062 70.3698 72.8751C70.4038 74.9331 70.4038 76.9911 70.3698 79.0491C70.3527 80.8519 69.2131 81.9745 67.4101 82.0255C66.3214 82.0425 65.2498 82.0255 64.1612 82.0255ZM61.5246 73.3173C61.5246 75.1202 61.5246 76.855 61.5246 78.5728C63.3957 78.5728 65.1647 78.5728 66.9338 78.5728C66.9338 76.787 66.9338 75.0862 66.9338 73.3173C65.1307 73.3173 63.3787 73.3173 61.5246 73.3173Z" fill="#FF8B36" stroke="#FF8B36" stroke-width="0.5" stroke-miterlimit="10"/>
<path d="M79.1637 82.0256C78.1091 82.0256 77.0715 82.0426 76.0169 82.0256C74.2139 81.9745 73.0572 80.852 73.0402 79.0831C73.0062 77.0251 73.0062 74.9671 73.0402 72.9092C73.0572 71.1233 74.1969 69.9497 75.9829 69.9157C78.1091 69.8647 80.2523 69.8647 82.3786 69.9157C84.1136 69.9667 85.2533 71.0723 85.3213 72.8241C85.3893 74.9161 85.3893 77.0081 85.3213 79.1001C85.2703 80.92 84.1136 81.9915 82.3106 82.0256C81.273 82.0426 80.2184 82.0256 79.1637 82.0256ZM76.4592 78.5899C78.2963 78.5899 80.0653 78.5899 81.8853 78.5899C81.8853 76.804 81.8853 75.0692 81.8853 73.3344C80.0313 73.3344 78.2452 73.3344 76.4592 73.3344C76.4592 75.1202 76.4592 76.821 76.4592 78.5899Z" fill="#FF8B36" stroke="#FF8B36" stroke-width="0.5" stroke-miterlimit="10"/>
<path d="M100.256 62.2448C100.256 63.2993 100.29 64.3368 100.256 65.3913C100.205 67.0581 99.0993 68.2316 97.4324 68.2657C95.2211 68.3167 93.0098 68.3167 90.8155 68.2657C89.2506 68.2316 88.0939 67.1601 88.0259 65.5954C87.9238 63.3503 87.9238 61.1052 88.0259 58.8601C88.0939 57.1763 89.2846 56.1728 91.0026 56.1558C93.0948 56.1388 95.1871 56.1388 97.2793 56.1558C99.0823 56.1728 100.205 57.2954 100.256 59.0982C100.29 60.1357 100.256 61.1903 100.256 62.2448ZM96.803 64.864C96.803 63.0271 96.803 61.2923 96.803 59.5745C94.9659 59.5745 93.2309 59.5745 91.4279 59.5745C91.4279 61.3603 91.4279 63.0952 91.4279 64.864C93.2309 64.864 94.983 64.864 96.803 64.864Z" fill="#FF8B36" stroke="#FF8B36" stroke-width="0.5" stroke-miterlimit="10"/>
<path d="M94.0304 82.0254C92.9758 82.0254 91.9382 82.0424 90.8835 82.0254C89.2506 81.9743 88.077 80.9709 88.0089 79.3211C87.9239 77.076 87.9239 74.8309 88.0089 72.5858C88.077 71.0211 89.2166 69.9495 90.7985 69.9155C93.0098 69.8475 95.2211 69.8475 97.4154 69.9155C99.1334 69.9666 100.222 71.1571 100.239 72.909C100.273 74.967 100.273 77.0249 100.239 79.0829C100.205 80.8858 99.0823 81.9913 97.2622 82.0254C96.1906 82.0424 95.119 82.0254 94.0304 82.0254ZM96.803 78.5897C96.803 76.7868 96.803 75.052 96.803 73.3002C94.9829 73.3002 93.231 73.3002 91.4109 73.3002C91.4109 75.069 91.4109 76.8038 91.4109 78.5897C93.2139 78.5897 94.9659 78.5897 96.803 78.5897Z" fill="#FF8B36" stroke="#FF8B36" stroke-width="0.5" stroke-miterlimit="10"/>
</svg>
