<svg width="19" height="17" viewBox="0 0 19 17" fill="none" xmlns="http://www.w3.org/2000/svg">
<path d="M18.6431 1.93833C17.9498 2.26706 17.211 2.48494 16.4408 2.59074C17.2332 2.07939 17.8379 1.27585 18.1222 0.307312C17.3835 0.783394 16.5678 1.11967 15.6986 1.30734C14.9972 0.500012 13.9974 0 12.9068 0C10.7908 0 9.08732 1.85647 9.08732 4.13234C9.08732 4.4598 9.11296 4.77467 9.17588 5.07443C5.9984 4.90692 3.1868 3.26078 1.29802 0.753166C0.968273 1.37157 0.774852 2.07939 0.774852 2.84138C0.774852 4.27214 1.45649 5.54043 2.47253 6.27471C1.85848 6.26211 1.25608 6.06941 0.745722 5.76588C0.745722 5.77847 0.745722 5.79485 0.745722 5.81122C0.745722 7.81882 2.07054 9.48637 3.80784 9.87051C3.49674 9.96245 3.15767 10.0065 2.80578 10.0065C2.56109 10.0065 2.31407 9.99142 2.0822 9.936C2.5774 11.5721 3.98262 12.7749 5.65351 12.8139C4.35315 13.9134 2.70208 14.5759 0.914675 14.5759C0.601238 14.5759 0.300619 14.5608 0 14.5192C1.69302 15.6994 3.69948 16.3732 5.86324 16.3732C12.8963 16.3732 16.7415 10.0758 16.7415 4.61724C16.7415 4.43461 16.7356 4.25829 16.7275 4.08322C17.486 3.50134 18.1234 2.77462 18.6431 1.93833Z" fill="white"/>
</svg>
