<svg width="26" height="20" viewBox="0 0 26 20" fill="none" xmlns="http://www.w3.org/2000/svg">
<path fill-rule="evenodd" clip-rule="evenodd" d="M20.8892 4.46523L20.9026 4.46635L20.9161 4.46739C21.1332 4.48409 21.2932 4.50696 21.407 4.52828C21.4796 4.77179 21.5724 5.20171 21.6431 5.91771C21.7386 6.88466 21.7733 8.12861 21.7733 9.7806C21.7733 11.432 21.7386 12.6843 21.6428 13.6617C21.5741 14.3626 21.4843 14.7967 21.4112 15.0522C21.3132 15.0657 21.1858 15.0786 21.024 15.0869L21.015 15.0874L21.006 15.0879C17.2775 15.295 8.82274 15.2959 5.05285 15.0906C4.85615 15.0742 4.70894 15.0529 4.6024 15.0329C4.52976 14.7894 4.43692 14.3595 4.36624 13.6435C4.27079 12.6765 4.23602 11.4326 4.23602 9.7806C4.23602 8.12861 4.27079 6.88466 4.36624 5.91771C4.43692 5.20171 4.52975 4.77179 4.60239 4.52828C4.71611 4.50696 4.87616 4.48409 5.09327 4.46739L5.10672 4.46635L5.12016 4.46523C8.78745 4.15962 17.2219 4.15962 20.8892 4.46523ZM0 9.7806C0 16.4997 0.541862 18.9922 4.76838 19.3174C8.66978 19.5341 17.3396 19.5341 21.241 19.3174C25.4675 19.1006 26.0094 16.4997 26.0094 9.7806C26.0094 3.06152 25.4675 0.568955 21.241 0.243838C17.3396 -0.0812792 8.66978 -0.0812792 4.76838 0.243838C0.541862 0.568955 0 3.06152 0 9.7806ZM12.8188 12.5828C11.4105 13.2869 9.75355 12.2629 9.75355 10.6884V8.87261C9.75355 7.29811 11.4105 6.27406 12.8188 6.9782L14.6345 7.88608C16.1956 8.66661 16.1956 10.8944 14.6345 11.6749L12.8188 12.5828Z" fill="white"/>
</svg>
