<svg width="49" height="142" viewBox="0 0 49 142" fill="none" xmlns="http://www.w3.org/2000/svg">
<path fill-rule="evenodd" clip-rule="evenodd" d="M48.0881 25.5578C46.8376 26.8707 44.7697 26.9116 43.4692 25.6492L24.5 7.23464L5.53083 25.6492C4.23036 26.9116 2.16241 26.8707 0.911956 25.5578C-0.338502 24.2448 -0.297956 22.157 1.00252 20.8946L21.1038 1.38104C23.0006 -0.460352 25.9994 -0.460343 27.8962 1.38104L47.9975 20.8946C49.298 22.157 49.3385 24.2448 48.0881 25.5578ZM48.088 54.4153C46.8376 55.7282 44.7697 55.7692 43.4692 54.5067L24.5 36.0922L5.53083 54.5067C4.23036 55.7692 2.16241 55.7282 0.911954 54.4153C-0.338503 53.1023 -0.297957 51.0146 1.00252 49.7521L21.1038 30.2386C23.0006 28.3972 25.9994 28.3972 27.8962 30.2386L47.9975 49.7521C49.298 51.0146 49.3385 53.1023 48.088 54.4153ZM43.4692 83.3642C44.7696 84.6267 46.8376 84.5858 48.088 83.2728C49.3385 81.9599 49.298 79.8721 47.9975 78.6096L27.8962 59.0961C25.9994 57.2547 23.0006 57.2547 21.1038 59.0961L1.00252 78.6096C-0.297958 79.8721 -0.338505 81.9599 0.911953 83.2728C2.16241 84.5858 4.23035 84.6267 5.53083 83.3642L24.5 64.9497L43.4692 83.3642ZM48.088 112.13C46.8376 113.443 44.7696 113.484 43.4692 112.222L24.5 93.8072L5.53083 112.222C4.23035 113.484 2.16241 113.443 0.911952 112.13C-0.338506 110.817 -0.297959 108.73 1.00252 107.467L21.1038 87.9536C23.0006 86.1122 25.9994 86.1122 27.8962 87.9536L47.9975 107.467C49.298 108.73 49.3385 110.817 48.088 112.13ZM43.4692 141.079C44.7696 142.342 46.8376 142.301 48.088 140.988C49.3385 139.675 49.298 137.587 47.9975 136.325L27.8962 116.811C25.9994 114.97 23.0006 114.97 21.1038 116.811L1.00252 136.325C-0.297961 137.587 -0.338507 139.675 0.911951 140.988C2.16241 142.301 4.23035 142.342 5.53082 141.079L24.5 122.665L43.4692 141.079Z" fill="#F98149"/>
</svg>
