<svg width="107" height="190" viewBox="0 0 107 190" fill="none" xmlns="http://www.w3.org/2000/svg">
<circle cx="5.77684" cy="5.77684" r="5.77684" fill="#FF914C"/>
<circle cx="5.77684" cy="41.3305" r="5.77684" fill="#FF914C"/>
<circle cx="5.77684" cy="76.8843" r="5.77684" fill="#FF914C"/>
<circle cx="5.77684" cy="112.438" r="5.77684" fill="#FF914C"/>
<circle cx="5.77684" cy="147.992" r="5.77684" fill="#FF914C"/>
<circle cx="5.77684" cy="183.545" r="5.77684" fill="#FF914C"/>
<circle cx="37.3305" cy="5.77684" r="5.77684" fill="#FF914C"/>
<circle cx="37.3305" cy="41.3305" r="5.77684" fill="#FF914C"/>
<circle cx="37.3305" cy="76.8843" r="5.77684" fill="#FF914C"/>
<circle cx="37.3305" cy="112.438" r="5.77684" fill="#FF914C"/>
<circle cx="37.3305" cy="147.992" r="5.77684" fill="#FF914C"/>
<circle cx="37.3305" cy="183.545" r="5.77684" fill="#FF914C"/>
<circle cx="68.8843" cy="5.77684" r="5.77684" fill="#FF914C"/>
<circle cx="68.8843" cy="41.3305" r="5.77684" fill="#FF914C"/>
<circle cx="68.8843" cy="76.8843" r="5.77684" fill="#FF914C"/>
<circle cx="68.8843" cy="112.438" r="5.77684" fill="#FF914C"/>
<circle cx="68.8843" cy="147.992" r="5.77684" fill="#FF914C"/>
<circle cx="68.8843" cy="183.545" r="5.77684" fill="#FF914C"/>
<circle cx="100.438" cy="5.77684" r="5.77684" fill="#FF914C"/>
<circle cx="100.438" cy="41.3305" r="5.77684" fill="#FF914C"/>
<circle cx="100.438" cy="76.8843" r="5.77684" fill="#FF914C"/>
<circle cx="100.438" cy="112.438" r="5.77684" fill="#FF914C"/>
<circle cx="100.438" cy="147.992" r="5.77684" fill="#FF914C"/>
<circle cx="100.438" cy="183.545" r="5.77684" fill="#FF914C"/>
</svg>
