<svg width="63" height="143" viewBox="0 0 63 143" fill="none" xmlns="http://www.w3.org/2000/svg">
<circle cx="3.85714" cy="3.85714" r="3.85714" fill="#F98149"/>
<circle cx="3.85714" cy="30.8571" r="3.85714" fill="#F98149"/>
<circle cx="3.85714" cy="57.8571" r="3.85714" fill="#F98149"/>
<circle cx="3.85714" cy="84.8571" r="3.85714" fill="#F98149"/>
<circle cx="3.85714" cy="111.857" r="3.85714" fill="#F98149"/>
<circle cx="3.85714" cy="138.857" r="3.85714" fill="#F98149"/>
<circle cx="32.1428" cy="3.85714" r="3.85714" fill="#F98149"/>
<circle cx="32.1428" cy="30.8571" r="3.85714" fill="#F98149"/>
<circle cx="32.1428" cy="57.8571" r="3.85714" fill="#F98149"/>
<circle cx="32.1428" cy="84.8571" r="3.85714" fill="#F98149"/>
<circle cx="32.1428" cy="111.857" r="3.85714" fill="#F98149"/>
<circle cx="32.1428" cy="138.857" r="3.85714" fill="#F98149"/>
<ellipse cx="59.7856" cy="3.85714" rx="3.21429" ry="3.85714" fill="#F98149"/>
<ellipse cx="59.7856" cy="30.8571" rx="3.21429" ry="3.85714" fill="#F98149"/>
<ellipse cx="59.7856" cy="57.8571" rx="3.21429" ry="3.85714" fill="#F98149"/>
<ellipse cx="59.7856" cy="84.8571" rx="3.21429" ry="3.85714" fill="#F98149"/>
<ellipse cx="59.7856" cy="111.857" rx="3.21429" ry="3.85714" fill="#F98149"/>
<ellipse cx="59.7856" cy="138.857" rx="3.21429" ry="3.85714" fill="#F98149"/>
</svg>
