<svg width="107" height="402" viewBox="0 0 107 402" fill="none" xmlns="http://www.w3.org/2000/svg">
<circle cx="100.438" cy="183.545" r="5.77684" transform="rotate(-180 100.438 183.545)" fill="#FF914C"/>
<circle cx="100.438" cy="147.992" r="5.77684" transform="rotate(-180 100.438 147.992)" fill="#FF914C"/>
<circle cx="100.438" cy="112.438" r="5.77684" transform="rotate(-180 100.438 112.438)" fill="#FF914C"/>
<circle cx="100.438" cy="76.8843" r="5.77684" transform="rotate(-180 100.438 76.8843)" fill="#FF914C"/>
<circle cx="100.438" cy="41.3306" r="5.77684" transform="rotate(-180 100.438 41.3306)" fill="#FF914C"/>
<circle cx="100.438" cy="5.77688" r="5.77684" transform="rotate(-180 100.438 5.77688)" fill="#FF914C"/>
<circle cx="68.8843" cy="183.545" r="5.77684" transform="rotate(-180 68.8843 183.545)" fill="#FF914C"/>
<circle cx="68.8843" cy="147.992" r="5.77684" transform="rotate(-180 68.8843 147.992)" fill="#FF914C"/>
<circle cx="68.8843" cy="112.438" r="5.77684" transform="rotate(-180 68.8843 112.438)" fill="#FF914C"/>
<circle cx="68.8843" cy="76.8843" r="5.77684" transform="rotate(-180 68.8843 76.8843)" fill="#FF914C"/>
<circle cx="68.8843" cy="41.3306" r="5.77684" transform="rotate(-180 68.8843 41.3306)" fill="#FF914C"/>
<circle cx="68.8843" cy="5.77688" r="5.77684" transform="rotate(-180 68.8843 5.77688)" fill="#FF914C"/>
<circle cx="37.3306" cy="183.545" r="5.77684" transform="rotate(-180 37.3306 183.545)" fill="#FF914C"/>
<circle cx="37.3306" cy="147.992" r="5.77684" transform="rotate(-180 37.3306 147.992)" fill="#FF914C"/>
<circle cx="37.3306" cy="112.438" r="5.77684" transform="rotate(-180 37.3306 112.438)" fill="#FF914C"/>
<circle cx="37.3306" cy="76.8843" r="5.77684" transform="rotate(-180 37.3306 76.8843)" fill="#FF914C"/>
<circle cx="37.3306" cy="41.3306" r="5.77684" transform="rotate(-180 37.3306 41.3306)" fill="#FF914C"/>
<circle cx="37.3306" cy="5.77688" r="5.77684" transform="rotate(-180 37.3306 5.77688)" fill="#FF914C"/>
<circle cx="5.77688" cy="183.545" r="5.77684" transform="rotate(-180 5.77688 183.545)" fill="#FF914C"/>
<circle cx="5.77688" cy="147.992" r="5.77684" transform="rotate(-180 5.77688 147.992)" fill="#FF914C"/>
<circle cx="5.77688" cy="112.438" r="5.77684" transform="rotate(-180 5.77688 112.438)" fill="#FF914C"/>
<circle cx="5.77688" cy="76.8843" r="5.77684" transform="rotate(-180 5.77688 76.8843)" fill="#FF914C"/>
<circle cx="5.77688" cy="41.3306" r="5.77684" transform="rotate(-180 5.77688 41.3306)" fill="#FF914C"/>
<circle cx="5.77688" cy="5.77688" r="5.77684" transform="rotate(-180 5.77688 5.77688)" fill="#FF914C"/>
<circle cx="100.438" cy="396.099" r="5.77684" transform="rotate(-180 100.438 396.099)" fill="#FF914C"/>
<circle cx="100.438" cy="360.545" r="5.77684" transform="rotate(-180 100.438 360.545)" fill="#FF914C"/>
<circle cx="100.438" cy="324.992" r="5.77684" transform="rotate(-180 100.438 324.992)" fill="#FF914C"/>
<circle cx="100.438" cy="289.438" r="5.77684" transform="rotate(-180 100.438 289.438)" fill="#FF914C"/>
<circle cx="100.438" cy="253.884" r="5.77684" transform="rotate(-180 100.438 253.884)" fill="#FF914C"/>
<circle cx="100.438" cy="218.331" r="5.77684" transform="rotate(-180 100.438 218.331)" fill="#FF914C"/>
<circle cx="68.8843" cy="396.099" r="5.77684" transform="rotate(-180 68.8843 396.099)" fill="#FF914C"/>
<circle cx="68.8843" cy="360.545" r="5.77684" transform="rotate(-180 68.8843 360.545)" fill="#FF914C"/>
<circle cx="68.8843" cy="324.992" r="5.77684" transform="rotate(-180 68.8843 324.992)" fill="#FF914C"/>
<circle cx="68.8843" cy="289.438" r="5.77684" transform="rotate(-180 68.8843 289.438)" fill="#FF914C"/>
<circle cx="68.8843" cy="253.884" r="5.77684" transform="rotate(-180 68.8843 253.884)" fill="#FF914C"/>
<circle cx="68.8843" cy="218.331" r="5.77684" transform="rotate(-180 68.8843 218.331)" fill="#FF914C"/>
<circle cx="37.3306" cy="396.099" r="5.77684" transform="rotate(-180 37.3306 396.099)" fill="#FF914C"/>
<circle cx="37.3306" cy="360.545" r="5.77684" transform="rotate(-180 37.3306 360.545)" fill="#FF914C"/>
<circle cx="37.3306" cy="324.992" r="5.77684" transform="rotate(-180 37.3306 324.992)" fill="#FF914C"/>
<circle cx="37.3306" cy="289.438" r="5.77684" transform="rotate(-180 37.3306 289.438)" fill="#FF914C"/>
<circle cx="37.3306" cy="253.884" r="5.77684" transform="rotate(-180 37.3306 253.884)" fill="#FF914C"/>
<circle cx="37.3306" cy="218.331" r="5.77684" transform="rotate(-180 37.3306 218.331)" fill="#FF914C"/>
<circle cx="5.77688" cy="396.099" r="5.77684" transform="rotate(-180 5.77688 396.099)" fill="#FF914C"/>
<circle cx="5.77688" cy="360.545" r="5.77684" transform="rotate(-180 5.77688 360.545)" fill="#FF914C"/>
<circle cx="5.77688" cy="324.992" r="5.77684" transform="rotate(-180 5.77688 324.992)" fill="#FF914C"/>
<circle cx="5.77688" cy="289.438" r="5.77684" transform="rotate(-180 5.77688 289.438)" fill="#FF914C"/>
<circle cx="5.77688" cy="253.884" r="5.77684" transform="rotate(-180 5.77688 253.884)" fill="#FF914C"/>
<circle cx="5.77688" cy="218.331" r="5.77684" transform="rotate(-180 5.77688 218.331)" fill="#FF914C"/>
</svg>
