<svg width="259" height="261" viewBox="0 0 259 261" fill="none" xmlns="http://www.w3.org/2000/svg">
<path d="M130.54 0.00674283C59.26 -0.723257 0 57.9167 0 129.197C0 184.717 35.03 232.057 84.19 250.337V205.367C58.16 189.957 40.72 161.587 40.73 129.147C40.76 81.0267 79.82 41.4067 127.94 40.7367C177.38 40.0467 217.67 79.9167 217.67 129.197C217.67 161.617 200.23 189.967 174.21 205.367V250.337C223.37 232.057 258.4 184.727 258.4 129.197C258.41 58.2867 201.28 0.726743 130.54 0.00674283Z" fill="#9253A0"/>
<path d="M91.1899 252.267V189.547C91.1899 185.127 94.7699 181.547 99.1899 181.547H159.22C163.64 181.547 167.22 185.127 167.22 189.547V252.267C167.22 256.687 163.64 260.267 159.22 260.267H99.1899C94.7699 260.267 91.1899 256.687 91.1899 252.267Z" fill="#9253A0"/>
<path d="M103.22 96.4768V69.7968C103.22 69.4368 103.46 69.1968 103.82 69.1968H106.45C106.81 69.1968 107.05 69.4368 107.05 69.7968V96.4768C107.05 96.8368 106.81 97.0768 106.45 97.0768H103.82C103.46 97.0768 103.22 96.8368 103.22 96.4768Z" fill="black"/>
<path d="M112.3 89.627V88.667C112.3 88.307 112.54 88.067 112.9 88.067H115.45C115.81 88.067 116.05 88.307 116.05 88.667V89.427C116.05 92.057 118.48 94.087 122.46 94.087C126.24 94.087 128 92.297 128 89.907C128 87.397 125.85 86.287 121.19 84.407C116.65 82.657 112.67 81.057 112.67 76.207C112.67 71.587 116.21 68.877 121.75 68.877C127.72 68.877 131.59 72.067 131.59 76.807V77.407C131.59 77.767 131.35 78.007 130.99 78.007H128.4C128.04 78.007 127.8 77.807 127.8 77.487V76.997C127.8 74.327 125.61 72.177 121.59 72.177C118.28 72.177 116.41 73.567 116.41 76.117C116.41 78.787 118.48 79.657 123.18 81.457C127.6 83.167 131.82 84.917 131.82 89.777C131.82 94.317 128.2 97.387 122.18 97.387C116.17 97.387 112.3 94.327 112.3 89.627Z" fill="black"/>
<path d="M136.24 87.877V78.397C136.24 72.707 140.18 68.877 146.08 68.877C152.01 68.877 155.96 72.697 155.96 78.397V87.877C155.96 93.607 152.02 97.437 146.08 97.437C140.18 97.427 136.24 93.607 136.24 87.877ZM152.13 88.037V78.357C152.13 74.657 149.7 72.187 146.08 72.187C142.5 72.187 140.07 74.657 140.07 78.357V88.037C140.07 91.697 142.5 94.127 146.08 94.127C149.7 94.127 152.13 91.697 152.13 88.037Z" fill="black"/>
<path d="M103.22 96.4768V69.7968C103.22 69.4368 103.46 69.1968 103.82 69.1968H106.45C106.81 69.1968 107.05 69.4368 107.05 69.7968V96.4768C107.05 96.8368 106.81 97.0768 106.45 97.0768H103.82C103.46 97.0768 103.22 96.8368 103.22 96.4768Z" fill="#2E343D"/>
<path d="M112.3 89.627V88.667C112.3 88.307 112.54 88.067 112.9 88.067H115.45C115.81 88.067 116.05 88.307 116.05 88.667V89.427C116.05 92.057 118.48 94.087 122.46 94.087C126.24 94.087 128 92.297 128 89.907C128 87.397 125.85 86.287 121.19 84.407C116.65 82.657 112.67 81.057 112.67 76.207C112.67 71.587 116.21 68.877 121.75 68.877C127.72 68.877 131.59 72.067 131.59 76.807V77.407C131.59 77.767 131.35 78.007 130.99 78.007H128.4C128.04 78.007 127.8 77.807 127.8 77.487V76.997C127.8 74.327 125.61 72.177 121.59 72.177C118.28 72.177 116.41 73.567 116.41 76.117C116.41 78.787 118.48 79.657 123.18 81.457C127.6 83.167 131.82 84.917 131.82 89.777C131.82 94.317 128.2 97.387 122.18 97.387C116.17 97.387 112.3 94.327 112.3 89.627Z" fill="#2E343D"/>
<path d="M136.24 87.877V78.397C136.24 72.707 140.18 68.877 146.08 68.877C152.01 68.877 155.96 72.697 155.96 78.397V87.877C155.96 93.607 152.02 97.437 146.08 97.437C140.18 97.427 136.24 93.607 136.24 87.877ZM152.13 88.037V78.357C152.13 74.657 149.7 72.187 146.08 72.187C142.5 72.187 140.07 74.657 140.07 78.357V88.037C140.07 91.697 142.5 94.127 146.08 94.127C149.7 94.127 152.13 91.697 152.13 88.037Z" fill="#2E343D"/>
<path d="M62.0901 145.397V140.657C62.0901 140.207 62.2601 139.867 62.6001 139.467C67.1201 134.947 71.1301 130.267 74.9101 126.197C77.9601 122.807 80.0501 119.817 80.0501 117.727C80.0501 115.077 78.0201 113.207 74.9701 113.207C71.9201 113.207 69.8901 115.067 69.8901 117.837V118.967C69.8901 119.587 69.5501 119.927 68.9301 119.927H62.8301C62.2101 119.927 61.8701 119.587 61.8701 118.967V116.597C62.2101 110.327 67.7401 106.377 74.9701 106.377C83.1601 106.377 88.1201 111.397 88.1201 117.557C88.1201 120.827 86.3701 124.107 83.3801 127.777C80.5001 131.337 76.8301 135.007 72.9401 139.127C72.7101 139.297 72.8301 139.527 73.1101 139.527H87.9001C88.5201 139.527 88.8601 139.867 88.8601 140.487V145.397C88.8601 146.017 88.5201 146.357 87.9001 146.357H63.0501C62.4301 146.357 62.0901 146.017 62.0901 145.397Z" fill="#2E343D"/>
<path d="M97.49 145.227L109.52 114.057C109.58 113.827 109.52 113.667 109.29 113.667H98.84C98.67 113.667 98.5 113.777 98.5 114.007V116.267C98.5 116.887 98.16 117.227 97.54 117.227H92.97C92.35 117.227 92.01 116.887 92.01 116.267L92.07 107.797C92.07 107.177 92.41 106.837 93.03 106.837H117.14C117.76 106.837 118.1 107.177 118.1 107.797V113.047C118.1 113.447 118.04 113.777 117.87 114.237L105.79 145.627C105.62 146.137 105.23 146.357 104.72 146.357H98.23C97.54 146.357 97.26 145.847 97.49 145.227Z" fill="#2E343D"/>
<path d="M121.2 134.047V119.147C121.2 111.297 126.34 106.387 134.64 106.387C142.94 106.387 148.13 111.297 148.13 119.147V134.047C148.13 142.007 142.94 146.977 134.64 146.977C126.33 146.977 121.2 142.007 121.2 134.047ZM140.17 134.447V118.917C140.17 115.417 138.02 113.217 134.64 113.217C131.31 113.217 129.16 115.417 129.16 118.917V134.447C129.16 137.947 131.31 140.147 134.64 140.147C138.02 140.147 140.17 137.947 140.17 134.447Z" fill="#2E343D"/>
<path d="M153.09 134.047V119.147C153.09 111.297 158.23 106.387 166.53 106.387C174.83 106.387 180.02 111.297 180.02 119.147V134.047C180.02 142.007 174.83 146.977 166.53 146.977C158.23 146.977 153.09 142.007 153.09 134.047ZM172.06 134.447V118.917C172.06 115.417 169.91 113.217 166.53 113.217C163.2 113.217 161.05 115.417 161.05 118.917V134.447C161.05 137.947 163.2 140.147 166.53 140.147C169.92 140.147 172.06 137.947 172.06 134.447Z" fill="#2E343D"/>
<path d="M190.47 106.837H196.85C197.47 106.837 197.81 107.177 197.81 107.797V145.397C197.81 146.017 197.47 146.357 196.85 146.357H190.81C190.19 146.357 189.85 146.017 189.85 145.397V114.627C189.85 114.397 189.68 114.227 189.46 114.287L184.49 115.307C183.87 115.417 183.42 115.077 183.42 114.457V110.167C183.42 109.657 183.65 109.267 184.15 109.097L189.29 107.067C189.68 106.897 190.01 106.837 190.47 106.837Z" fill="#2E343D"/>
<path d="M124.89 241.447C123.54 241.447 122.49 240.357 121.82 239.537C116.24 232.727 112.37 230.437 110.05 229.077C108.3 228.047 105.85 227.237 106.35 225.127C106.45 224.717 106.5 224.307 106.61 223.937C107.38 221.377 109.06 218.797 111.22 219.027C112.12 219.127 113.32 219.517 114.69 220.227C118.98 222.457 121 225.147 122.51 227.067C123.54 225.337 125.69 222.057 129.7 216.987C139.45 204.687 149.06 199.527 150.89 198.617C151.17 198.477 151.49 198.387 151.81 198.377H151.96C152.94 198.377 152.92 198.967 153.3 199.887C153.67 200.797 154.35 201.827 153.64 202.507C151.62 204.487 148 208.337 142.27 215.427C136.56 222.487 133.29 229.077 130.9 233.887C128.48 238.757 128.21 241.447 125.95 241.447H124.89Z" fill="white"/>
<path d="M57.16 200.617L59.02 202.417L48.61 213.137L46.75 211.337L57.16 200.617Z" fill="white"/>
<path d="M47.04 189.157L48.7 191.147L44.83 203.057L52.97 196.267L54.63 198.257L43.16 207.837L41.5 205.847L45.39 193.897L37.22 200.717L35.57 198.737L47.04 189.157Z" fill="white"/>
<path d="M35.3099 182.646L38.5299 187.726L43.8799 184.336L45.2699 186.526L32.6499 194.516L27.5699 186.496L29.3399 185.376L33.0299 191.206L36.7799 188.826L33.5599 183.746L35.3099 182.646Z" fill="white"/>
<path d="M27.6801 168.806C28.7101 168.326 29.7001 168.036 30.6401 167.926C31.5801 167.816 32.4501 167.876 33.2401 168.106C34.0401 168.336 34.7401 168.716 35.3701 169.266C35.9901 169.816 36.5001 170.506 36.8901 171.346C37.2801 172.176 37.4801 173.006 37.4901 173.836C37.5101 174.666 37.3501 175.466 37.0101 176.226C36.6701 176.986 36.1601 177.696 35.4701 178.356C34.7801 179.016 33.9201 179.576 32.8901 180.056L32.2001 180.376C31.1701 180.856 30.1801 181.146 29.2301 181.246C28.2801 181.346 27.4101 181.286 26.6101 181.056C25.8101 180.826 25.1001 180.436 24.4801 179.896C23.8601 179.346 23.3501 178.656 22.9701 177.826C22.5801 176.986 22.3801 176.156 22.3601 175.316C22.3401 174.486 22.5101 173.686 22.8501 172.926C23.1901 172.166 23.7101 171.466 24.4001 170.816C25.0901 170.166 25.9601 169.606 26.9901 169.126L27.6801 168.806ZM28.0601 171.486C27.3001 171.836 26.6701 172.216 26.1601 172.636C25.6501 173.056 25.2601 173.486 25.0001 173.946C24.7401 174.406 24.6001 174.886 24.5901 175.386C24.5801 175.886 24.6901 176.396 24.9301 176.906C25.1601 177.406 25.4801 177.816 25.8601 178.126C26.2501 178.436 26.7001 178.646 27.2301 178.746C27.7501 178.846 28.3401 178.836 28.9901 178.726C29.6401 178.606 30.3401 178.376 31.1001 178.026L31.8101 177.696C32.5701 177.346 33.2001 176.956 33.7101 176.536C34.2201 176.116 34.6101 175.666 34.8701 175.196C35.1301 174.726 35.2701 174.246 35.2801 173.746C35.2901 173.246 35.1801 172.746 34.9501 172.246C34.4701 171.206 33.7001 170.586 32.6401 170.396C31.5901 170.206 30.2901 170.456 28.7701 171.166L28.0601 171.486Z" fill="white"/>
<path d="M26.13 159.786L26.98 162.556L32.48 160.876L33.24 163.356L18.95 167.726L17.41 162.706C17.16 161.886 17.03 161.126 17.02 160.436C17.01 159.736 17.12 159.116 17.35 158.556C17.58 158.006 17.93 157.526 18.39 157.136C18.86 156.746 19.44 156.436 20.15 156.226C21.11 155.936 21.98 155.916 22.76 156.186C23.55 156.446 24.24 156.936 24.84 157.656L29.82 152.626L29.95 152.586L30.76 155.246L26.13 159.786ZM24.98 163.166L24.2 160.616C24.06 160.166 23.89 159.796 23.67 159.506C23.45 159.206 23.2 158.976 22.92 158.826C22.64 158.666 22.34 158.576 22.02 158.556C21.7 158.536 21.36 158.576 21.02 158.676C20.65 158.786 20.34 158.946 20.07 159.136C19.8 159.336 19.6 159.566 19.45 159.846C19.3 160.126 19.22 160.456 19.21 160.826C19.2 161.196 19.26 161.616 19.41 162.086L20.19 164.626L24.98 163.166Z" fill="white"/>
<path d="M14.1901 149.657L24.9201 143.777L12.9801 141.137L12.5101 137.817L27.3001 135.707L27.6701 138.267L22.7901 138.957L16.2301 139.627L28.2501 142.377L28.5101 144.217L17.7401 150.197L24.2201 149.017L29.1001 148.327L29.4601 150.887L14.6701 152.997L14.1901 149.657Z" fill="white"/>
<path d="M23.94 124.137L23.84 129.927L27.3 131.197L27.25 133.897L12.41 127.997L12.45 125.667L27.49 120.277L27.44 122.987L23.94 124.137ZM21.76 129.157L21.84 124.827L15.6 126.887L21.76 129.157Z" fill="white"/>
<path d="M16.4101 107.196L15.7701 111.806L28.5001 113.576L28.1501 116.126L15.4201 114.356L14.7901 118.926L12.7201 118.636L14.3501 106.896L16.4101 107.196Z" fill="white"/>
<path d="M30.4101 104.077L29.8101 106.597L15.2701 103.137L15.8701 100.617L30.4101 104.077Z" fill="white"/>
<path d="M28.4401 87.0869C29.5101 87.4669 30.4201 87.9469 31.1701 88.5169C31.9201 89.0969 32.5001 89.7469 32.9101 90.4669C33.3201 91.1869 33.5601 91.9569 33.6201 92.7869C33.6801 93.6169 33.5601 94.4669 33.2601 95.3369C32.9601 96.1969 32.5201 96.9369 31.9501 97.5369C31.3801 98.1469 30.7101 98.5969 29.9401 98.9169C29.1701 99.2269 28.3101 99.3769 27.3601 99.3669C26.4101 99.3569 25.4001 99.1569 24.3301 98.7869L23.6101 98.5369C22.5401 98.1569 21.6301 97.6769 20.8801 97.0869C20.1301 96.4969 19.5501 95.8469 19.1301 95.1269C18.7201 94.4069 18.4801 93.6269 18.4101 92.8069C18.3501 91.9769 18.4701 91.1369 18.7701 90.2669C19.0801 89.3969 19.5201 88.6569 20.0801 88.0469C20.6501 87.4369 21.3201 86.9869 22.1001 86.6769C22.8701 86.3769 23.7401 86.2269 24.6901 86.2469C25.6401 86.2669 26.6501 86.4669 27.7201 86.8369L28.4401 87.0869ZM26.8501 89.2769C26.0601 88.9969 25.3401 88.8269 24.6801 88.7669C24.0201 88.7069 23.4401 88.7469 22.9301 88.8969C22.4201 89.0469 21.9901 89.2969 21.6301 89.6369C21.2701 89.9869 21.0001 90.4269 20.8101 90.9669C20.6301 91.4869 20.5701 91.9969 20.6301 92.4869C20.6901 92.9769 20.8801 93.4469 21.1801 93.8869C21.4801 94.3269 21.9101 94.7269 22.4601 95.0969C23.0101 95.4669 23.6801 95.7869 24.4601 96.0669L25.2001 96.3269C25.9901 96.6069 26.7101 96.7669 27.3701 96.8269C28.0301 96.8869 28.6201 96.8369 29.1301 96.6769C29.6401 96.5269 30.0801 96.2769 30.4401 95.9269C30.8001 95.5769 31.0701 95.1469 31.2501 94.6169C31.6301 93.5369 31.5101 92.5569 30.8901 91.6769C30.2701 90.7969 29.1701 90.0869 27.5801 89.5269L26.8501 89.2769Z" fill="white"/>
<path d="M41.69 76.5967L40.48 78.8967L28 79.8567L37.38 84.7967L36.17 87.0967L22.95 80.1367L24.16 77.8367L36.69 76.8767L27.27 71.9167L28.47 69.6367L41.69 76.5967Z" fill="white"/>
<path d="M48.62 60.6568C48.39 60.4668 48.15 60.3368 47.91 60.2568C47.67 60.1768 47.4 60.1668 47.1 60.2268C46.8 60.2868 46.45 60.4168 46.05 60.6268C45.65 60.8368 45.17 61.1268 44.6 61.5068C43.99 61.9268 43.39 62.2868 42.8 62.5868C42.21 62.8868 41.64 63.0868 41.08 63.1968C40.53 63.3068 39.99 63.3068 39.46 63.2068C38.94 63.1068 38.44 62.8568 37.97 62.4768C37.5 62.0968 37.15 61.6468 36.92 61.1368C36.69 60.6168 36.57 60.0668 36.58 59.4668C36.58 58.8768 36.71 58.2568 36.96 57.6268C37.21 56.9968 37.58 56.3668 38.07 55.7568C38.6 55.0968 39.17 54.5868 39.78 54.2168C40.39 53.8468 41 53.6168 41.62 53.5168C42.24 53.4168 42.83 53.4468 43.42 53.5968C44 53.7468 44.54 54.0268 45.02 54.4168L43.4 56.4268C43.12 56.1968 42.82 56.0368 42.52 55.9268C42.21 55.8268 41.9 55.7968 41.58 55.8368C41.26 55.8768 40.94 55.9968 40.62 56.1968C40.3 56.3968 39.99 56.6868 39.68 57.0668C39.39 57.4268 39.18 57.7668 39.05 58.0868C38.92 58.4168 38.86 58.7168 38.86 59.0068C38.86 59.2968 38.93 59.5568 39.06 59.8068C39.19 60.0468 39.37 60.2568 39.6 60.4468C40.03 60.7968 40.56 60.8768 41.17 60.7068C41.79 60.5268 42.55 60.1268 43.47 59.4868C44.19 58.9868 44.86 58.5868 45.48 58.2968C46.1 58.0068 46.69 57.8268 47.24 57.7468C47.79 57.6668 48.31 57.6968 48.81 57.8468C49.31 57.9868 49.78 58.2468 50.25 58.6268C50.74 59.0268 51.1 59.4768 51.34 59.9868C51.57 60.4968 51.68 61.0468 51.67 61.6268C51.65 62.2068 51.51 62.8168 51.25 63.4368C50.98 64.0668 50.6 64.6968 50.09 65.3268C49.64 65.8868 49.12 66.3768 48.53 66.7968C47.94 67.2168 47.32 67.5168 46.66 67.7068C46.01 67.8868 45.34 67.9268 44.67 67.8268C44 67.7168 43.36 67.4168 42.74 66.9168L44.37 64.8968C44.74 65.1968 45.11 65.3868 45.47 65.4668C45.84 65.5468 46.2 65.5468 46.55 65.4568C46.9 65.3668 47.24 65.1968 47.56 64.9468C47.89 64.6968 48.19 64.3968 48.48 64.0368C49.05 63.3368 49.33 62.6868 49.33 62.1068C49.32 61.5168 49.09 61.0368 48.62 60.6568Z" fill="white"/>
<path d="M56.5501 48.4464L52.1401 52.7164L55.3401 56.0164L60.4901 51.0264L61.9301 52.5164L54.9201 59.3164L44.5201 48.5864L51.4801 41.8364L52.9401 43.3364L47.8401 48.2764L50.7101 51.2364L55.1201 46.9664L56.5501 48.4464Z" fill="white"/>
<path d="M69.8299 40.3365C70.2099 40.9665 70.4799 41.6065 70.6399 42.2665C70.7899 42.9265 70.8099 43.5865 70.6899 44.2365C70.5699 44.8865 70.3099 45.5265 69.8999 46.1465C69.4899 46.7665 68.9199 47.3565 68.1899 47.9065C67.4599 48.4565 66.6899 48.8165 65.8999 49.0065C65.1099 49.1865 64.3199 49.1865 63.5299 49.0165C62.7399 48.8365 61.9799 48.4865 61.2299 47.9665C60.4799 47.4365 59.7899 46.7465 59.1399 45.8765L58.4099 44.9065C57.7699 44.0465 57.2999 43.1865 56.9999 42.3165C56.7099 41.4465 56.5899 40.6065 56.6499 39.7965C56.7099 38.9865 56.9399 38.2165 57.3399 37.4965C57.7399 36.7765 58.3199 36.1365 59.0699 35.5665C59.7799 35.0365 60.4899 34.6665 61.1899 34.4565C61.8899 34.2465 62.5699 34.1865 63.2199 34.2665C63.8699 34.3465 64.4999 34.5565 65.0899 34.8965C65.6799 35.2365 66.2299 35.6865 66.7399 36.2365L64.6699 37.7865C64.3399 37.4465 64.0099 37.1565 63.6799 36.9365C63.3499 36.7165 62.9999 36.5765 62.6499 36.5065C62.2999 36.4465 61.9299 36.4665 61.5399 36.5865C61.1599 36.7065 60.7499 36.9165 60.3299 37.2365C59.8599 37.5865 59.5099 37.9865 59.2899 38.4265C59.0699 38.8665 58.9699 39.3465 58.9899 39.8565C59.0099 40.3665 59.1399 40.9165 59.3899 41.4965C59.6399 42.0765 59.9999 42.6865 60.4799 43.3165L61.2199 44.2965C61.6699 44.8965 62.1299 45.3965 62.5999 45.8065C63.0699 46.2165 63.5399 46.5165 64.0199 46.6965C64.4999 46.8765 64.9799 46.9365 65.4699 46.8665C65.9599 46.7965 66.4399 46.5865 66.9299 46.2265C67.3799 45.8865 67.7199 45.5565 67.9499 45.2165C68.1799 44.8765 68.3199 44.5365 68.3699 44.1765C68.4199 43.8265 68.3899 43.4565 68.2799 43.0765C68.1699 42.6965 67.9999 42.2965 67.7599 41.8765L69.8299 40.3365Z" fill="white"/>
<path d="M77.0599 24.6064L81.9199 33.3364C82.3399 34.0864 82.5699 34.8064 82.6299 35.5164C82.6899 36.2164 82.5999 36.8864 82.3699 37.5064C82.1399 38.1264 81.7799 38.6964 81.2899 39.2164C80.7999 39.7364 80.2199 40.1764 79.5499 40.5564C78.8499 40.9464 78.1499 41.2164 77.4499 41.3564C76.7499 41.4964 76.0799 41.5064 75.4299 41.3664C74.7799 41.2364 74.1799 40.9564 73.6199 40.5264C73.0599 40.0964 72.5799 39.5164 72.1599 38.7664L67.2999 30.0364L69.5599 28.7764L74.4199 37.5064C74.6799 37.9764 74.9599 38.3364 75.2699 38.6064C75.5799 38.8764 75.9099 39.0564 76.2599 39.1564C76.6099 39.2464 76.9799 39.2564 77.3599 39.1864C77.7399 39.1164 78.1299 38.9664 78.5299 38.7364C78.9299 38.5164 79.2599 38.2564 79.5299 37.9764C79.7999 37.6864 79.9799 37.3764 80.0799 37.0264C80.1799 36.6764 80.1999 36.3064 80.1299 35.8964C80.0599 35.4864 79.8999 35.0564 79.6399 34.5864L74.7799 25.8564L77.0599 24.6064Z" fill="white"/>
<path d="M89.91 29.1167L87.22 30.1767L89.32 35.5367L86.9 36.4867L81.44 22.5767L86.33 20.6567C87.13 20.3467 87.87 20.1567 88.57 20.0967C89.27 20.0367 89.9 20.0967 90.47 20.2767C91.04 20.4667 91.54 20.7667 91.97 21.2067C92.4 21.6467 92.75 22.2067 93.02 22.8867C93.39 23.8167 93.47 24.6867 93.26 25.4867C93.06 26.2867 92.62 27.0167 91.95 27.6667L97.35 32.2367L97.4 32.3567L94.81 33.3767L89.91 29.1167ZM86.46 28.2367L88.94 27.2567C89.37 27.0867 89.73 26.8767 90.01 26.6367C90.29 26.3967 90.5 26.1267 90.63 25.8367C90.77 25.5467 90.83 25.2467 90.83 24.9167C90.83 24.5967 90.76 24.2667 90.63 23.9267C90.49 23.5667 90.31 23.2667 90.1 23.0167C89.88 22.7667 89.63 22.5767 89.34 22.4567C89.05 22.3367 88.72 22.2767 88.35 22.2967C87.98 22.3167 87.56 22.4167 87.1 22.5967L84.63 23.5667L86.46 28.2367Z" fill="white"/>
<path d="M102.17 31.1466L99.68 31.8466L95.61 17.4666L98.1 16.7666L102.17 31.1466Z" fill="white"/>
<path d="M113.58 15.6564L109 16.5064L111.33 29.1364L108.8 29.6064L106.47 16.9764L101.93 17.8164L101.55 15.7564L113.21 13.6064L113.58 15.6564Z" fill="white"/>
<path d="M122.56 19.9867L125.61 12.7267L128.48 12.5767L123.99 22.2767L124.29 27.7667L121.69 27.9067L121.39 22.4167L115.87 13.2567L118.75 13.0967L122.56 19.9867Z" fill="white"/>
<path d="M142.35 13.4768L144.84 25.4568L150.86 14.8068L154.18 15.3268L151.87 30.0868L149.32 29.6868L150.08 24.8168L151.35 18.3468L145.21 29.0368L143.37 28.7468L140.8 16.6968L140.04 23.2368L139.28 28.1068L136.73 27.7068L139.04 12.9468L142.35 13.4768Z" fill="white"/>
<path d="M163.9 30.2765L158.4 28.4765L156.17 31.4065L153.61 30.5665L163.62 18.1265L165.83 18.8565L166.55 34.8165L163.98 33.9765L163.9 30.2765ZM159.75 26.7165L163.87 28.0665L163.74 21.5065L159.75 26.7165Z" fill="white"/>
<path d="M178.72 40.7667L176.39 39.6167L175.13 27.1567L170.42 36.6567L168.09 35.5067L174.72 22.1167L177.05 23.2667L178.31 35.7667L183.04 26.2267L185.35 27.3667L178.72 40.7667Z" fill="white"/>
<path d="M190.35 44.3264L185.59 41.0364L182.62 43.2064L180.4 41.6764L193.54 32.5864L195.46 33.9064L191.62 49.4164L189.39 47.8764L190.35 44.3264ZM187.38 39.7364L190.94 42.1964L192.68 35.8664L187.38 39.7364Z" fill="white"/>
<path d="M202.51 56.7567C202.26 56.7967 201.94 56.8167 201.56 56.8167C201.18 56.8067 200.76 56.7367 200.29 56.5967C199.82 56.4567 199.31 56.2367 198.75 55.9267C198.19 55.6167 197.61 55.1767 196.99 54.6167C196.3 53.9867 195.77 53.2867 195.41 52.5167C195.05 51.7467 194.87 50.9567 194.87 50.1267C194.87 49.2967 195.05 48.4567 195.42 47.5867C195.79 46.7167 196.36 45.8667 197.13 45.0267L197.8 44.2967C198.57 43.4567 199.36 42.8067 200.17 42.3367C200.98 41.8667 201.79 41.5867 202.59 41.4867C203.39 41.3867 204.18 41.4767 204.96 41.7567C205.74 42.0367 206.48 42.4967 207.19 43.1467C207.86 43.7567 208.37 44.3867 208.71 45.0167C209.05 45.6467 209.25 46.2767 209.3 46.9067C209.36 47.5367 209.29 48.1567 209.09 48.7667C208.89 49.3767 208.59 49.9667 208.18 50.5467L206.3 48.8267C206.52 48.4967 206.69 48.1667 206.8 47.8267C206.92 47.4867 206.96 47.1467 206.94 46.7967C206.92 46.4467 206.82 46.1067 206.64 45.7567C206.46 45.4067 206.19 45.0667 205.81 44.7167C205.36 44.3067 204.9 44.0267 204.41 43.8967C203.93 43.7567 203.43 43.7567 202.92 43.8667C202.41 43.9867 201.88 44.2267 201.35 44.5967C200.81 44.9667 200.27 45.4467 199.73 46.0367L199.05 46.7767C198.5 47.3767 198.07 47.9767 197.77 48.5667C197.47 49.1567 197.3 49.7167 197.26 50.2567C197.21 50.7967 197.29 51.3167 197.49 51.7967C197.69 52.2867 198.01 52.7267 198.45 53.1367C198.78 53.4367 199.08 53.6767 199.35 53.8467C199.62 54.0167 199.87 54.1467 200.09 54.2267C200.31 54.3067 200.51 54.3567 200.68 54.3767C200.85 54.3967 201.01 54.3967 201.14 54.3867L203.12 52.2267L200.85 50.1467L202.18 48.6967L206.36 52.5267L202.51 56.7567Z" fill="white"/>
<path d="M213.9 62.7566L209.95 58.0566L206.43 61.0166L211.05 66.5066L209.46 67.8366L203.17 60.3666L214.6 50.7466L220.85 58.1666L219.25 59.5166L214.68 54.0866L211.52 56.7466L215.47 61.4366L213.9 62.7566Z" fill="white"/>
<path d="M225.3 64.4564L217.8 74.1264L229.81 71.7864L231.57 74.6464L218.84 82.4764L217.49 80.2764L221.69 77.6964L227.44 74.4664L215.32 76.7364L214.35 75.1564L221.84 65.3764L216.37 69.0364L212.17 71.6164L210.82 69.4164L223.55 61.5864L225.3 64.4564Z" fill="white"/>
<path d="M229.57 90.7065L227.17 85.0565L222.94 86.8565L225.74 93.4565L223.83 94.2665L220.01 85.2765L233.76 79.4365L237.55 88.3665L235.62 89.1865L232.84 82.6465L229.04 84.2565L231.44 89.9065L229.57 90.7065Z" fill="white"/>
<path d="M227.72 107.736L227.03 105.236L235.49 96.0064L225.27 98.8064L224.58 96.3064L239 92.3564L239.69 94.8564L231.19 104.116L241.45 101.296L242.13 103.776L227.72 107.736Z" fill="white"/>
<path d="M242.38 119.537L241.76 114.917L229.03 116.617L228.69 114.067L241.43 112.367L240.82 107.787L242.9 107.507L244.47 119.257L242.38 119.537Z" fill="white"/>
<path d="M233.37 136.586C233.67 136.596 233.94 136.566 234.18 136.486C234.42 136.406 234.64 136.256 234.85 136.026C235.06 135.796 235.26 135.486 235.46 135.076C235.66 134.666 235.87 134.146 236.1 133.506C236.34 132.806 236.61 132.156 236.91 131.566C237.21 130.976 237.55 130.476 237.93 130.056C238.31 129.636 238.74 129.316 239.22 129.096C239.7 128.866 240.25 128.776 240.86 128.796C241.46 128.826 242.01 128.976 242.5 129.256C242.99 129.536 243.42 129.916 243.76 130.396C244.11 130.876 244.37 131.446 244.55 132.106C244.73 132.766 244.8 133.486 244.76 134.276C244.72 135.116 244.57 135.866 244.3 136.526C244.03 137.186 243.67 137.736 243.24 138.176C242.8 138.616 242.3 138.956 241.74 139.176C241.18 139.396 240.59 139.496 239.97 139.466L240.08 136.886C240.44 136.906 240.78 136.856 241.09 136.766C241.4 136.666 241.67 136.506 241.9 136.286C242.13 136.066 242.32 135.776 242.46 135.426C242.6 135.076 242.68 134.656 242.7 134.176C242.72 133.716 242.69 133.316 242.6 132.976C242.51 132.636 242.38 132.356 242.21 132.116C242.04 131.886 241.82 131.716 241.58 131.596C241.33 131.476 241.06 131.416 240.77 131.406C240.22 131.386 239.74 131.626 239.35 132.126C238.96 132.636 238.58 133.416 238.22 134.476C237.94 135.306 237.63 136.026 237.3 136.626C236.97 137.226 236.61 137.726 236.21 138.116C235.81 138.506 235.37 138.786 234.89 138.966C234.41 139.146 233.87 139.216 233.27 139.196C232.64 139.166 232.08 139.016 231.59 138.746C231.1 138.476 230.69 138.096 230.36 137.626C230.03 137.146 229.78 136.576 229.62 135.916C229.46 135.256 229.4 134.516 229.44 133.706C229.47 132.986 229.6 132.286 229.83 131.596C230.06 130.906 230.38 130.296 230.79 129.756C231.21 129.216 231.72 128.796 232.32 128.486C232.92 128.176 233.62 128.036 234.41 128.066L234.3 130.656C233.83 130.636 233.42 130.696 233.07 130.856C232.72 131.006 232.44 131.226 232.21 131.506C231.98 131.786 231.81 132.126 231.69 132.516C231.57 132.906 231.51 133.336 231.48 133.786C231.44 134.686 231.59 135.376 231.94 135.846C232.29 136.306 232.77 136.556 233.37 136.586Z" fill="white"/>
<path d="M236.03 147.527L242.42 152.117L241.93 154.947L233.48 148.407L228.06 147.477L228.5 144.907L233.92 145.837L244.08 142.497L243.59 145.337L236.03 147.527Z" fill="white"/>
<path d="M228.15 162.516C228.44 162.606 228.71 162.636 228.96 162.626C229.21 162.606 229.47 162.516 229.73 162.346C229.99 162.176 230.27 161.926 230.56 161.576C230.85 161.236 231.19 160.776 231.57 160.216C231.98 159.596 232.4 159.036 232.84 158.546C233.28 158.046 233.73 157.646 234.21 157.336C234.68 157.026 235.18 156.826 235.71 156.726C236.23 156.626 236.79 156.666 237.37 156.846C237.95 157.026 238.44 157.306 238.85 157.696C239.26 158.086 239.57 158.566 239.79 159.116C240.01 159.666 240.12 160.286 240.12 160.966C240.13 161.646 240.01 162.366 239.78 163.116C239.53 163.916 239.2 164.606 238.77 165.176C238.34 165.746 237.86 166.186 237.33 166.516C236.8 166.836 236.23 167.036 235.63 167.106C235.03 167.176 234.43 167.126 233.84 166.946L234.6 164.476C234.95 164.586 235.28 164.626 235.61 164.606C235.93 164.586 236.24 164.496 236.52 164.346C236.8 164.186 237.05 163.956 237.27 163.656C237.49 163.356 237.67 162.966 237.82 162.506C237.95 162.066 238.02 161.676 238.02 161.326C238.02 160.976 237.96 160.666 237.85 160.396C237.74 160.126 237.58 159.906 237.37 159.736C237.16 159.556 236.91 159.426 236.63 159.346C236.1 159.186 235.58 159.296 235.08 159.696C234.57 160.086 234.01 160.756 233.4 161.686C232.92 162.416 232.44 163.036 231.98 163.536C231.51 164.036 231.04 164.426 230.56 164.706C230.08 164.986 229.58 165.146 229.07 165.196C228.56 165.246 228.02 165.186 227.45 165.016C226.85 164.836 226.34 164.546 225.94 164.156C225.53 163.766 225.23 163.306 225.03 162.756C224.83 162.216 224.73 161.596 224.75 160.916C224.76 160.236 224.89 159.506 225.12 158.736C225.33 158.046 225.63 157.396 226.02 156.786C226.41 156.176 226.87 155.666 227.41 155.246C227.95 154.836 228.55 154.546 229.21 154.396C229.87 154.246 230.58 154.286 231.34 154.516L230.58 156.996C230.13 156.856 229.72 156.816 229.34 156.876C228.97 156.936 228.64 157.076 228.34 157.286C228.05 157.496 227.8 157.786 227.59 158.136C227.38 158.486 227.21 158.886 227.07 159.316C226.81 160.176 226.78 160.886 227 161.426C227.18 161.976 227.58 162.336 228.15 162.516Z" fill="white"/>
<path d="M230.08 181.226L232 176.976L220.29 171.686L221.35 169.336L233.06 174.626L234.96 170.416L236.87 171.276L231.99 182.076L230.08 181.226Z" fill="white"/>
<path d="M218.46 188.667L221.66 183.427L217.74 181.037L214 187.157L212.23 186.077L217.32 177.737L230.07 185.517L225.02 193.797L223.23 192.707L226.93 186.647L223.41 184.497L220.21 189.737L218.46 188.667Z" fill="white"/>
<path d="M220.47 200.017L208.92 195.977L214.95 206.617L212.8 209.197L201.34 199.617L203 197.637L206.78 200.797L211.67 205.217L205.67 194.447L206.86 193.027L218.51 197.027L213.3 193.007L209.52 189.847L211.18 187.867L222.64 197.447L220.47 200.017Z" fill="white"/>
<path d="M97.05 164.957C97 165.597 96.86 166.187 96.62 166.727C96.38 167.267 96.04 167.727 95.61 168.117C95.18 168.507 94.66 168.807 94.05 169.017C93.44 169.237 92.74 169.347 91.96 169.347C91.15 169.347 90.42 169.207 89.77 168.927C89.12 168.647 88.58 168.237 88.13 167.717C87.68 167.187 87.34 166.547 87.09 165.797C86.85 165.047 86.73 164.207 86.73 163.267V162.427C86.73 161.497 86.85 160.647 87.1 159.897C87.35 159.147 87.7 158.507 88.16 157.977C88.61 157.447 89.17 157.047 89.82 156.757C90.47 156.477 91.19 156.327 91.99 156.327C92.78 156.327 93.48 156.437 94.08 156.657C94.69 156.877 95.2 157.187 95.62 157.587C96.04 157.987 96.37 158.457 96.61 159.007C96.85 159.557 97 160.147 97.06 160.797H94.45C94.42 160.417 94.36 160.087 94.25 159.797C94.15 159.507 94 159.267 93.81 159.067C93.62 158.867 93.37 158.717 93.07 158.617C92.77 158.517 92.4 158.467 91.97 158.467C91.09 158.467 90.43 158.787 90 159.427C89.57 160.067 89.35 161.057 89.35 162.407V163.257C89.35 163.907 89.4 164.487 89.49 164.977C89.59 165.467 89.74 165.877 89.94 166.217C90.15 166.547 90.41 166.797 90.74 166.957C91.07 167.127 91.46 167.207 91.93 167.207C92.34 167.207 92.7 167.157 92.99 167.067C93.29 166.977 93.54 166.837 93.74 166.647C93.94 166.457 94.1 166.227 94.2 165.937C94.31 165.657 94.38 165.327 94.41 164.947H97.05V164.957Z" fill="#2E343D"/>
<path d="M106.38 163.687H101.37V167.077H107.25V169.177H98.76V156.517H107.23V158.627H101.37V161.647H106.38V163.687Z" fill="#2E343D"/>
<path d="M113.46 164.537H111.38V169.167H108.77V156.507H113.47C114.2 156.507 114.86 156.587 115.43 156.757C116.01 156.927 116.5 157.167 116.9 157.487C117.3 157.807 117.61 158.207 117.82 158.687C118.03 159.167 118.14 159.717 118.14 160.337C118.14 160.797 118.09 161.217 117.98 161.587C117.88 161.957 117.73 162.287 117.53 162.567C117.33 162.857 117.1 163.107 116.82 163.317C116.54 163.527 116.23 163.717 115.88 163.877L118.62 169.047V169.167H115.82L113.46 164.537ZM111.39 162.427H113.49C113.83 162.427 114.13 162.387 114.39 162.297C114.65 162.207 114.86 162.077 115.03 161.917C115.2 161.747 115.33 161.557 115.42 161.327C115.51 161.097 115.55 160.837 115.55 160.557C115.55 159.957 115.38 159.487 115.04 159.147C114.7 158.807 114.18 158.637 113.48 158.637H111.38V162.427H111.39Z" fill="#2E343D"/>
<path d="M129.24 158.627H125.36V169.177H122.75V158.627H118.92V156.517H129.23V158.627H129.24Z" fill="#2E343D"/>
<path d="M133.5 169.177H130.89V156.517H133.5V169.177Z" fill="#2E343D"/>
<path d="M143.53 163.997H138.52V169.167H135.91V156.507H144.15V158.617H138.52V161.887H143.53V163.997Z" fill="#2E343D"/>
<path d="M148.44 169.177H145.83V156.517H148.44V169.177Z" fill="#2E343D"/>
<path d="M158.48 163.687H153.47V167.077H159.35V169.177H150.86V156.517H159.33V158.627H153.47V161.647H158.48V163.687Z" fill="#2E343D"/>
<path d="M160.88 169.177V156.517H164.78C165.63 156.517 166.41 156.667 167.12 156.957C167.83 157.247 168.44 157.657 168.95 158.197C169.46 158.727 169.85 159.367 170.14 160.107C170.42 160.847 170.57 161.667 170.57 162.577V163.147C170.57 164.047 170.43 164.877 170.15 165.607C169.87 166.347 169.47 166.977 168.96 167.507C168.45 168.037 167.83 168.447 167.12 168.737C166.41 169.027 165.62 169.167 164.76 169.167H160.88V169.177ZM163.49 158.627V167.077H164.75C165.78 167.077 166.57 166.737 167.11 166.057C167.65 165.377 167.92 164.407 167.92 163.137V162.547C167.92 161.257 167.65 160.287 167.12 159.617C166.59 158.957 165.81 158.617 164.78 158.617H163.49V158.627Z" fill="#2E343D"/>
</svg>
