<svg width="259" height="261" viewBox="0 0 259 261" fill="none" xmlns="http://www.w3.org/2000/svg">
<path d="M130.54 0.00674283C59.26 -0.723257 -0.00999873 57.9168 1.26521e-06 129.207C1.26521e-06 184.727 35.03 232.067 84.19 250.347V205.377C58.16 189.967 40.72 161.597 40.73 129.157C40.76 81.0368 79.82 41.4167 127.94 40.7467C177.38 40.0567 217.67 79.9268 217.67 129.207C217.67 161.627 200.23 189.977 174.21 205.377V250.347C223.37 232.067 258.4 184.737 258.4 129.207C258.4 58.2868 201.28 0.726743 130.54 0.00674283Z" fill="#41AC49"/>
<path d="M91.1797 252.267V189.547C91.1797 185.127 94.7597 181.547 99.1797 181.547H159.21C163.63 181.547 167.21 185.127 167.21 189.547V252.267C167.21 256.687 163.63 260.267 159.21 260.267H99.1797C94.7597 260.267 91.1797 256.687 91.1797 252.267Z" fill="#41AC49"/>
<path d="M103.221 96.4768V69.7968C103.221 69.4368 103.461 69.1968 103.821 69.1968H106.451C106.811 69.1968 107.051 69.4368 107.051 69.7968V96.4768C107.051 96.8368 106.811 97.0768 106.451 97.0768H103.821C103.461 97.0768 103.221 96.8368 103.221 96.4768Z" fill="black"/>
<path d="M112.301 89.627V88.667C112.301 88.307 112.541 88.067 112.901 88.067H115.451C115.811 88.067 116.051 88.307 116.051 88.667V89.427C116.051 92.057 118.481 94.087 122.461 94.087C126.241 94.087 128.001 92.297 128.001 89.907C128.001 87.397 125.851 86.287 121.191 84.407C116.651 82.657 112.671 81.057 112.671 76.207C112.671 71.587 116.211 68.877 121.751 68.877C127.721 68.877 131.591 72.067 131.591 76.807V77.407C131.591 77.767 131.351 78.007 130.991 78.007H128.401C128.041 78.007 127.801 77.807 127.801 77.487V76.997C127.801 74.327 125.611 72.177 121.591 72.177C118.281 72.177 116.411 73.567 116.411 76.117C116.411 78.787 118.481 79.657 123.181 81.457C127.601 83.167 131.821 84.917 131.821 89.777C131.821 94.317 128.201 97.387 122.181 97.387C116.161 97.387 112.301 94.327 112.301 89.627Z" fill="black"/>
<path d="M136.23 87.877V78.397C136.23 72.707 140.17 68.877 146.07 68.877C152 68.877 155.951 72.697 155.951 78.397V87.877C155.951 93.607 152.01 97.437 146.07 97.437C140.17 97.427 136.23 93.607 136.23 87.877ZM152.12 88.037V78.357C152.12 74.657 149.69 72.187 146.07 72.187C142.49 72.187 140.06 74.657 140.06 78.357V88.037C140.06 91.697 142.49 94.127 146.07 94.127C149.69 94.127 152.12 91.697 152.12 88.037Z" fill="black"/>
<path d="M103.221 96.4768V69.7968C103.221 69.4368 103.461 69.1968 103.821 69.1968H106.451C106.811 69.1968 107.051 69.4368 107.051 69.7968V96.4768C107.051 96.8368 106.811 97.0768 106.451 97.0768H103.821C103.461 97.0768 103.221 96.8368 103.221 96.4768Z" fill="#2E343D"/>
<path d="M112.301 89.627V88.667C112.301 88.307 112.541 88.067 112.901 88.067H115.451C115.811 88.067 116.051 88.307 116.051 88.667V89.427C116.051 92.057 118.481 94.087 122.461 94.087C126.241 94.087 128.001 92.297 128.001 89.907C128.001 87.397 125.851 86.287 121.191 84.407C116.651 82.657 112.671 81.057 112.671 76.207C112.671 71.587 116.211 68.877 121.751 68.877C127.721 68.877 131.591 72.067 131.591 76.807V77.407C131.591 77.767 131.351 78.007 130.991 78.007H128.401C128.041 78.007 127.801 77.807 127.801 77.487V76.997C127.801 74.327 125.611 72.177 121.591 72.177C118.281 72.177 116.411 73.567 116.411 76.117C116.411 78.787 118.481 79.657 123.181 81.457C127.601 83.167 131.821 84.917 131.821 89.777C131.821 94.317 128.201 97.387 122.181 97.387C116.161 97.387 112.301 94.327 112.301 89.627Z" fill="#2E343D"/>
<path d="M136.23 87.877V78.397C136.23 72.707 140.17 68.877 146.07 68.877C152 68.877 155.951 72.697 155.951 78.397V87.877C155.951 93.607 152.01 97.437 146.07 97.437C140.17 97.427 136.23 93.607 136.23 87.877ZM152.12 88.037V78.357C152.12 74.657 149.69 72.187 146.07 72.187C142.49 72.187 140.06 74.657 140.06 78.357V88.037C140.06 91.697 142.49 94.127 146.07 94.127C149.69 94.127 152.12 91.697 152.12 88.037Z" fill="#2E343D"/>
<path d="M58.5499 143.217V139.377C58.5499 139.007 58.6899 138.737 58.9599 138.417C62.6199 134.757 65.8699 130.957 68.9399 127.657C71.4099 124.907 73.0999 122.487 73.0999 120.787C73.0999 118.637 71.4499 117.127 68.9799 117.127C66.5099 117.127 64.8599 118.637 64.8599 120.877V121.797C64.8599 122.297 64.5899 122.577 64.0799 122.577H59.1399C58.6399 122.577 58.3599 122.307 58.3599 121.797V119.877C58.6299 114.797 63.1199 111.597 68.9799 111.597C75.6199 111.597 79.6399 115.667 79.6399 120.657C79.6399 123.307 78.2199 125.967 75.7999 128.937C73.4699 131.817 70.4899 134.797 67.3299 138.137C67.1499 138.277 67.2398 138.457 67.4698 138.457H79.4599C79.9599 138.457 80.2399 138.727 80.2399 139.237V143.217C80.2399 143.717 79.9699 143.997 79.4599 143.997H59.3199C58.8199 143.997 58.5499 143.717 58.5499 143.217Z" fill="#2E343D"/>
<path d="M106.46 134.017V121.937C106.46 115.577 110.62 111.597 117.35 111.597C124.08 111.597 128.29 115.577 128.29 121.937V134.017C128.29 140.467 124.08 144.497 117.35 144.497C110.62 144.497 106.46 140.467 106.46 134.017ZM121.84 134.337V121.747C121.84 118.907 120.1 117.127 117.36 117.127C114.66 117.127 112.92 118.917 112.92 121.747V134.337C112.92 137.177 114.66 138.957 117.36 138.957C120.1 138.957 121.84 137.177 121.84 134.337Z" fill="#2E343D"/>
<path d="M81.9199 134.017V121.937C81.9199 115.577 86.0799 111.597 92.8099 111.597C99.5399 111.597 103.75 115.577 103.75 121.937V134.017C103.75 140.467 99.5399 144.497 92.8099 144.497C86.0899 144.497 81.9199 140.467 81.9199 134.017ZM97.2999 134.337V121.747C97.2999 118.907 95.5599 117.127 92.8199 117.127C90.1199 117.127 88.3799 118.917 88.3799 121.747V134.337C88.3799 137.177 90.1199 138.957 92.8199 138.957C95.5599 138.957 97.2999 137.177 97.2999 134.337Z" fill="#2E343D"/>
<path d="M132.31 134.017V121.937C132.31 115.577 136.47 111.597 143.2 111.597C149.93 111.597 154.14 115.577 154.14 121.937V134.017C154.14 140.467 149.93 144.497 143.2 144.497C136.48 144.497 132.31 140.467 132.31 134.017ZM147.69 134.337V121.747C147.69 118.907 145.95 117.127 143.21 117.127C140.51 117.127 138.77 118.917 138.77 121.747V134.337C138.77 137.177 140.51 138.957 143.21 138.957C145.95 138.957 147.69 137.177 147.69 134.337Z" fill="#2E343D"/>
<path d="M157.83 134.017V121.937C157.83 115.577 161.99 111.597 168.72 111.597C175.45 111.597 179.66 115.577 179.66 121.937V134.017C179.66 140.467 175.45 144.497 168.72 144.497C162 144.497 157.83 140.467 157.83 134.017ZM173.21 134.337V121.747C173.21 118.907 171.47 117.127 168.73 117.127C166.03 117.127 164.29 118.917 164.29 121.747V134.337C164.29 137.177 166.03 138.957 168.73 138.957C171.47 138.957 173.21 137.177 173.21 134.337Z" fill="#2E343D"/>
<path d="M201.14 111.957H206.31C206.81 111.957 207.09 112.227 207.09 112.737V143.217C207.09 143.717 206.82 143.997 206.31 143.997H201.41C200.91 143.997 200.63 143.727 200.63 143.217V118.277C200.63 118.097 200.49 117.957 200.31 118.007L196.28 118.827C195.78 118.917 195.41 118.647 195.41 118.137V114.657C195.41 114.247 195.59 113.927 196 113.787L200.16 112.137C200.5 112.007 200.78 111.957 201.14 111.957Z" fill="#2E343D"/>
<path d="M186.25 130.947V127.367H193.79V130.947H186.25Z" fill="black"/>
<path d="M124.88 241.447C123.53 241.447 122.48 240.357 121.81 239.537C116.23 232.727 112.36 230.437 110.04 229.077C108.29 228.047 105.84 227.237 106.34 225.127C106.44 224.717 106.49 224.307 106.6 223.937C107.37 221.377 109.05 218.797 111.21 219.027C112.11 219.127 113.31 219.517 114.68 220.227C118.97 222.457 120.99 225.147 122.5 227.067C123.53 225.337 125.68 222.057 129.69 216.987C139.44 204.687 149.05 199.527 150.88 198.617C151.16 198.477 151.48 198.387 151.8 198.377H151.95C152.93 198.377 152.91 198.967 153.29 199.887C153.66 200.797 154.34 201.827 153.63 202.507C151.61 204.487 147.99 208.337 142.26 215.427C136.55 222.487 133.28 229.077 130.89 233.887C128.47 238.757 128.2 241.447 125.94 241.447C125.95 241.447 124.88 241.447 124.88 241.447Z" fill="white"/>
<path d="M32.0902 154.827L14.3902 159.077L13.4502 155.187L31.1502 150.937L32.0902 154.827Z" fill="white"/>
<path d="M14.7 138.817L29.13 137.367L29.53 141.347L15.1 142.797L15.65 148.307L11.98 148.677L10.48 133.677L14.15 133.307L14.7 138.817Z" fill="white"/>
<path d="M30.4303 112.627C29.9903 115.347 28.6003 117.937 26.3303 119.787L23.9103 116.997C25.5103 115.597 26.6303 114.037 26.9603 111.987C27.2203 110.367 26.7403 109.287 25.6803 109.117L25.6303 109.107C24.6303 108.947 24.0203 109.477 22.7603 112.357C21.2503 115.827 19.8803 117.997 16.3103 117.427L16.2603 117.417C13.0003 116.897 11.2703 113.927 11.8603 110.257C12.2803 107.637 13.4603 105.537 15.2203 103.957L17.8703 106.487C16.5103 107.897 15.5903 109.357 15.3503 110.877C15.1103 112.387 15.6703 113.297 16.5403 113.437L16.5903 113.447C17.7703 113.637 18.2803 112.927 19.5803 109.957C21.1203 106.467 22.7603 104.627 25.8903 105.127L25.9403 105.137C29.4903 105.707 31.0503 108.747 30.4303 112.627Z" fill="white"/>
<path d="M32.3402 101.827L15.1602 95.7969L19.7002 82.8369L23.0602 84.0169L19.8302 93.2169L23.3102 94.4369L26.1502 86.3369L29.5102 87.5169L26.6702 95.6169L30.2802 96.8869L33.5502 87.5669L36.9102 88.7469L32.3402 101.827Z" fill="white"/>
<path d="M44.27 75.2568L37.28 75.7168L35.71 78.4368L40.75 81.3568L38.75 84.8268L23 75.7168L27.17 68.5167C29.32 64.8067 32.56 63.7068 35.8 65.5768L35.84 65.6068C38.38 67.0768 39.19 69.3767 38.77 71.8067L46.62 71.2168L44.27 75.2568ZM33.94 69.1868C32.45 68.3268 31.09 68.9168 30.11 70.6068L28.12 74.0468L32.64 76.6667L34.67 73.1568C35.65 71.4668 35.31 69.9768 33.98 69.2168L33.94 69.1868Z" fill="white"/>
<path d="M54.8401 61.5766L52.5201 64.2466L33.8501 57.7866L36.7501 54.4466L49.5501 59.2566L42.9901 47.2566L45.8201 43.9966L54.8401 61.5766Z" fill="white"/>
<path d="M62.7201 53.547L50.8901 39.727L53.9301 37.127L65.7601 50.947L62.7201 53.547Z" fill="white"/>
<path d="M77.3101 43.0967C72.7801 45.9467 67.2101 44.5767 64.4201 40.1467L64.3901 40.1067C61.6301 35.7267 62.6701 30.0667 67.4101 27.0867C70.3101 25.2567 72.6601 25.1267 74.9801 25.6367L74.3901 29.4767C72.5201 29.1467 70.9001 29.2467 69.3601 30.2167C66.7601 31.8467 66.2501 35.1867 67.9101 37.8267L67.9401 37.8667C69.6001 40.5067 72.8101 41.5567 75.4501 39.8967C77.2101 38.7867 77.8501 37.4067 78.3601 35.5467L81.8901 36.3667C81.3701 39.0667 80.2801 41.2267 77.3101 43.0967Z" fill="white"/>
<path d="M87.09 37.2469L80.46 20.2969L93.2499 15.2969L94.5499 18.6169L85.4699 22.1669L86.8199 25.6069L94.8099 22.4769L96.1099 25.7969L88.1199 28.9269L89.5099 32.4869L98.71 28.8869L100.01 32.2069L87.09 37.2469Z" fill="white"/>
<path d="M127.05 27.8467L126.11 15.9967L121.62 24.1567L121.52 24.1667L115.85 16.8967L116.79 28.6667L112.87 28.9767L111.43 10.8267L115.73 10.4867L121.11 17.7767L125.27 9.72672L129.57 9.38672L131.01 27.5367L127.05 27.8467Z" fill="white"/>
<path d="M149.45 29.6368L148.36 25.3668L140.74 24.3168L138.53 28.1368L134.49 27.5768L144.72 10.4868L148.38 10.9868L153.6 30.2168L149.45 29.6368ZM145.84 15.4968L142.64 21.0168L147.43 21.6768L145.84 15.4968Z" fill="white"/>
<path d="M168.96 35.5669L164.62 21.6869L160.67 32.5669L156.96 31.2169L163.17 14.1069L166.64 15.3669L170.84 28.8069L174.66 18.2669L178.38 19.6169L172.17 36.7269L168.96 35.5669Z" fill="white"/>
<path d="M188.19 46.1065L188.94 41.7665L182.41 37.6965L178.84 40.2765L175.38 38.1165L191.7 26.6865L194.83 28.6365L191.75 48.3165L188.19 46.1065ZM190.67 31.7165L185.49 35.4465L189.59 38.0065L190.67 31.7165Z" fill="white"/>
<path d="M199.7 56.1367C195.57 52.2567 195.45 46.6867 199.14 42.7567L199.18 42.7167C202.72 38.9467 208.56 38.6167 212.58 42.3867C214.97 44.6267 215.8 46.6267 216.08 49.1067L212.16 49.5967C211.94 47.7867 211.49 46.4367 209.96 44.9967C207.84 43.0067 204.39 43.2967 202.27 45.5467L202.23 45.5867C199.95 48.0167 199.94 51.3567 202.29 53.5667C203.35 54.5667 204.55 55.1867 205.79 55.3567L207.57 53.4567L204.63 50.6967L207 48.1767L212.76 53.5867L207.35 59.3467C204.89 59.2267 202.12 58.4167 199.7 56.1367Z" fill="white"/>
<path d="M208.47 64.8268L223.24 54.1968L231.26 65.3368L228.37 67.4168L222.68 59.5068L219.68 61.6668L224.69 68.6268L221.8 70.7068L216.79 63.7468L213.69 65.9768L219.46 73.9968L216.57 76.0768L208.47 64.8268Z" fill="white"/>
<path d="M224.63 92.6666L235.48 87.8266L226.3 86.3166L226.26 86.2166L231.22 78.4566L220.44 83.2666L218.84 79.6766L235.46 72.2666L237.22 76.2066L232.14 83.7066L241.12 84.9366L242.88 88.8766L226.26 96.2866L224.63 92.6666Z" fill="white"/>
<path d="M227.58 101.207L245.36 97.3467L248.27 110.757L244.79 111.507L242.72 101.977L239.11 102.757L240.93 111.137L237.45 111.887L235.63 103.507L231.9 104.317L233.99 113.967L230.51 114.717L227.58 101.207Z" fill="white"/>
<path d="M231.34 131.797L242.73 122.747L231.16 122.977L231.08 119.027L249.28 118.667L249.35 122.357L238.31 131.107L249.52 130.887L249.6 134.837L231.4 135.197L231.34 131.797Z" fill="white"/>
<path d="M243.75 150.887L229.45 148.427L230.13 144.477L244.42 146.937L245.36 141.477L249 142.107L246.44 156.967L242.8 156.337L243.75 150.887Z" fill="white"/>
<path d="M97.0407 164.957C96.9907 165.597 96.8507 166.187 96.6107 166.727C96.3707 167.267 96.0307 167.727 95.6007 168.117C95.1707 168.507 94.6507 168.807 94.0407 169.017C93.4307 169.237 92.7307 169.347 91.9507 169.347C91.1407 169.347 90.4107 169.207 89.7607 168.927C89.1107 168.647 88.5707 168.237 88.1207 167.717C87.6707 167.187 87.3307 166.547 87.0807 165.797C86.8407 165.047 86.7207 164.207 86.7207 163.267V162.427C86.7207 161.497 86.8408 160.647 87.0908 159.897C87.3408 159.147 87.6908 158.507 88.1508 157.977C88.6108 157.447 89.1607 157.047 89.8107 156.757C90.4607 156.477 91.1807 156.327 91.9807 156.327C92.7707 156.327 93.4707 156.437 94.0707 156.657C94.6807 156.877 95.1907 157.187 95.6107 157.587C96.0307 157.987 96.3607 158.457 96.6007 159.007C96.8407 159.557 96.9907 160.147 97.0507 160.797H94.4407C94.4107 160.417 94.3507 160.087 94.2407 159.797C94.1407 159.507 93.9907 159.267 93.8007 159.067C93.6107 158.867 93.3607 158.717 93.0607 158.617C92.7607 158.517 92.3908 158.467 91.9608 158.467C91.0808 158.467 90.4207 158.787 89.9907 159.427C89.5607 160.067 89.3408 161.057 89.3408 162.407V163.257C89.3408 163.907 89.3907 164.487 89.4807 164.977C89.5807 165.467 89.7307 165.877 89.9307 166.217C90.1407 166.547 90.4007 166.797 90.7307 166.957C91.0607 167.127 91.4507 167.207 91.9207 167.207C92.3307 167.207 92.6907 167.157 92.9807 167.067C93.2807 166.977 93.5307 166.837 93.7307 166.647C93.9307 166.457 94.0907 166.227 94.1907 165.937C94.3007 165.657 94.3708 165.327 94.4008 164.947H97.0407V164.957Z" fill="#2E343D"/>
<path d="M106.371 163.687H101.361V167.077H107.241V169.177H98.751V156.517H107.221V158.627H101.361V161.647H106.371V163.687Z" fill="#2E343D"/>
<path d="M113.461 164.537H111.38V169.167H108.771V156.507H113.47C114.2 156.507 114.86 156.587 115.43 156.757C116.01 156.927 116.501 157.167 116.901 157.487C117.301 157.807 117.61 158.207 117.82 158.687C118.03 159.167 118.141 159.717 118.141 160.337C118.141 160.797 118.09 161.217 117.98 161.587C117.88 161.957 117.73 162.287 117.53 162.567C117.33 162.857 117.1 163.107 116.82 163.317C116.54 163.527 116.23 163.717 115.88 163.877L118.62 169.047V169.167H115.82L113.461 164.537ZM111.38 162.427H113.48C113.82 162.427 114.12 162.387 114.38 162.297C114.64 162.207 114.851 162.077 115.021 161.917C115.191 161.747 115.32 161.557 115.41 161.327C115.5 161.097 115.54 160.837 115.54 160.557C115.54 159.957 115.37 159.487 115.03 159.147C114.69 158.807 114.17 158.637 113.47 158.637H111.37V162.427H111.38Z" fill="#2E343D"/>
<path d="M129.231 158.627H125.351V169.177H122.741V158.627H118.911V156.517H129.221V158.627H129.231Z" fill="#2E343D"/>
<path d="M133.491 169.177H130.881V156.517H133.491V169.177Z" fill="#2E343D"/>
<path d="M143.52 163.997H138.51V169.167H135.9V156.507H144.14V158.617H138.51V161.887H143.52V163.997Z" fill="#2E343D"/>
<path d="M148.441 169.177H145.831V156.517H148.441V169.177Z" fill="#2E343D"/>
<path d="M158.471 163.687H153.461V167.077H159.341V169.177H150.851V156.517H159.321V158.627H153.461V161.647H158.471V163.687Z" fill="#2E343D"/>
<path d="M160.871 169.177V156.517H164.771C165.621 156.517 166.401 156.667 167.111 156.957C167.821 157.247 168.431 157.657 168.941 158.197C169.451 158.727 169.841 159.367 170.131 160.107C170.411 160.847 170.561 161.667 170.561 162.577V163.147C170.561 164.047 170.421 164.877 170.141 165.607C169.861 166.347 169.461 166.977 168.951 167.507C168.441 168.037 167.821 168.447 167.111 168.737C166.401 169.027 165.611 169.167 164.751 169.167H160.871V169.177ZM163.481 158.627V167.077H164.741C165.771 167.077 166.561 166.737 167.101 166.057C167.641 165.377 167.911 164.407 167.911 163.137V162.547C167.911 161.257 167.641 160.287 167.111 159.617C166.581 158.957 165.801 158.617 164.771 158.617H163.481V158.627Z" fill="#2E343D"/>
</svg>
