<svg width="259" height="261" viewBox="0 0 259 261" fill="none" xmlns="http://www.w3.org/2000/svg">
<path d="M130.54 0.00674283C59.26 -0.723257 -0.00999873 57.9168 1.26521e-06 129.207C1.26521e-06 184.727 35.03 232.067 84.19 250.347V205.377C58.16 189.967 40.72 161.597 40.73 129.157C40.76 81.0368 79.82 41.4167 127.94 40.7467C177.38 40.0567 217.67 79.9268 217.67 129.207C217.67 161.627 200.23 189.977 174.21 205.377V250.347C223.37 232.067 258.4 184.737 258.4 129.207C258.4 58.2868 201.28 0.726743 130.54 0.00674283Z" fill="#3462A6"/>
<path d="M91.1799 252.267V189.547C91.1799 185.127 94.7599 181.547 99.1799 181.547H159.21C163.63 181.547 167.21 185.127 167.21 189.547V252.267C167.21 256.687 163.63 260.267 159.21 260.267H99.1799C94.7599 260.267 91.1799 256.687 91.1799 252.267Z" fill="#3462A6"/>
<path d="M103.22 96.4768V69.7968C103.22 69.4368 103.46 69.1968 103.82 69.1968H106.45C106.81 69.1968 107.05 69.4368 107.05 69.7968V96.4768C107.05 96.8368 106.81 97.0768 106.45 97.0768H103.82C103.46 97.0768 103.22 96.8368 103.22 96.4768Z" fill="black"/>
<path d="M112.3 89.627V88.667C112.3 88.307 112.54 88.067 112.9 88.067H115.45C115.81 88.067 116.05 88.307 116.05 88.667V89.427C116.05 92.057 118.48 94.087 122.46 94.087C126.24 94.087 128 92.297 128 89.907C128 87.397 125.85 86.287 121.19 84.407C116.65 82.657 112.67 81.057 112.67 76.207C112.67 71.587 116.21 68.877 121.75 68.877C127.72 68.877 131.59 72.067 131.59 76.807V77.407C131.59 77.767 131.35 78.007 130.99 78.007H128.4C128.04 78.007 127.8 77.807 127.8 77.487V76.997C127.8 74.327 125.61 72.177 121.59 72.177C118.28 72.177 116.41 73.567 116.41 76.117C116.41 78.787 118.48 79.657 123.18 81.457C127.6 83.167 131.82 84.917 131.82 89.777C131.82 94.317 128.2 97.387 122.18 97.387C116.16 97.387 112.3 94.327 112.3 89.627Z" fill="black"/>
<path d="M136.23 87.877V78.397C136.23 72.707 140.17 68.877 146.07 68.877C152 68.877 155.95 72.697 155.95 78.397V87.877C155.95 93.607 152.01 97.437 146.07 97.437C140.17 97.427 136.23 93.607 136.23 87.877ZM152.12 88.037V78.357C152.12 74.657 149.69 72.187 146.07 72.187C142.49 72.187 140.06 74.657 140.06 78.357V88.037C140.06 91.697 142.49 94.127 146.07 94.127C149.69 94.127 152.12 91.697 152.12 88.037Z" fill="black"/>
<path d="M103.22 96.4768V69.7968C103.22 69.4368 103.46 69.1968 103.82 69.1968H106.45C106.81 69.1968 107.05 69.4368 107.05 69.7968V96.4768C107.05 96.8368 106.81 97.0768 106.45 97.0768H103.82C103.46 97.0768 103.22 96.8368 103.22 96.4768Z" fill="#2E343D"/>
<path d="M112.3 89.627V88.667C112.3 88.307 112.54 88.067 112.9 88.067H115.45C115.81 88.067 116.05 88.307 116.05 88.667V89.427C116.05 92.057 118.48 94.087 122.46 94.087C126.24 94.087 128 92.297 128 89.907C128 87.397 125.85 86.287 121.19 84.407C116.65 82.657 112.67 81.057 112.67 76.207C112.67 71.587 116.21 68.877 121.75 68.877C127.72 68.877 131.59 72.067 131.59 76.807V77.407C131.59 77.767 131.35 78.007 130.99 78.007H128.4C128.04 78.007 127.8 77.807 127.8 77.487V76.997C127.8 74.327 125.61 72.177 121.59 72.177C118.28 72.177 116.41 73.567 116.41 76.117C116.41 78.787 118.48 79.657 123.18 81.457C127.6 83.167 131.82 84.917 131.82 89.777C131.82 94.317 128.2 97.387 122.18 97.387C116.16 97.387 112.3 94.327 112.3 89.627Z" fill="#2E343D"/>
<path d="M136.23 87.877V78.397C136.23 72.707 140.17 68.877 146.07 68.877C152 68.877 155.95 72.697 155.95 78.397V87.877C155.95 93.607 152.01 97.437 146.07 97.437C140.17 97.427 136.23 93.607 136.23 87.877ZM152.12 88.037V78.357C152.12 74.657 149.69 72.187 146.07 72.187C142.49 72.187 140.06 74.657 140.06 78.357V88.037C140.06 91.697 142.49 94.127 146.07 94.127C149.69 94.127 152.12 91.697 152.12 88.037Z" fill="#2E343D"/>
<path d="M98.62 119.537V136.527C98.62 142.737 93.43 146.807 85.92 146.807C78.52 146.807 73.5 142.747 73.5 136.697V135.397C73.5 134.777 73.84 134.437 74.46 134.437H80.5C81.12 134.437 81.46 134.667 81.46 134.997V135.617C81.46 138.097 83.27 139.967 85.92 139.967C88.69 139.967 90.66 138.107 90.66 135.447V130.257C90.66 129.977 90.49 129.857 90.26 130.087C88.45 131.557 86.31 132.007 84.16 132.007C79.7 132.007 75.92 129.917 73.88 125.967C72.92 124.157 72.52 121.957 72.52 119.477C72.52 117.217 72.92 115.247 73.59 113.607C75.51 109.207 79.8 106.437 85.5 106.437C91.32 106.437 95.72 109.257 97.58 114.007C98.28 115.647 98.62 117.567 98.62 119.537ZM90.6 119.257C90.6 117.957 90.37 116.777 89.87 115.817C89.08 114.237 87.67 113.337 85.58 113.337C83.49 113.337 82.14 114.297 81.35 115.817C80.79 116.777 80.5 118.017 80.5 119.377C80.5 120.677 80.78 122.087 81.4 123.107C82.3 124.577 83.66 125.367 85.52 125.367C87.55 125.367 88.96 124.577 89.75 123.057C90.38 121.967 90.6 120.497 90.6 119.257Z" fill="#2E343D"/>
<path d="M103.58 134.047V119.147C103.58 111.297 108.72 106.387 117.02 106.387C125.32 106.387 130.51 111.297 130.51 119.147V134.047C130.51 142.007 125.32 146.977 117.02 146.977C108.72 146.977 103.58 142.007 103.58 134.047ZM122.55 134.447V118.917C122.55 115.417 120.4 113.217 117.02 113.217C113.69 113.217 111.54 115.417 111.54 118.917V134.447C111.54 137.947 113.69 140.147 117.02 140.147C120.41 140.147 122.55 137.947 122.55 134.447Z" fill="#2E343D"/>
<path d="M135.76 134.047V119.147C135.76 111.297 140.9 106.387 149.2 106.387C157.5 106.387 162.69 111.297 162.69 119.147V134.047C162.69 142.007 157.5 146.977 149.2 146.977C140.9 146.977 135.76 142.007 135.76 134.047ZM154.73 134.447V118.917C154.73 115.417 152.58 113.217 149.2 113.217C145.87 113.217 143.72 115.417 143.72 118.917V134.447C143.72 137.947 145.87 140.147 149.2 140.147C152.59 140.147 154.73 137.947 154.73 134.447Z" fill="#2E343D"/>
<path d="M173.42 106.837H179.8C180.42 106.837 180.76 107.177 180.76 107.797V145.397C180.76 146.017 180.42 146.357 179.8 146.357H173.76C173.14 146.357 172.8 146.017 172.8 145.397V114.627C172.8 114.397 172.63 114.227 172.41 114.287L167.44 115.307C166.82 115.417 166.37 115.077 166.37 114.457V110.167C166.37 109.657 166.6 109.267 167.1 109.097L172.24 107.067C172.63 106.897 172.97 106.837 173.42 106.837Z" fill="#2E343D"/>
<path d="M124.88 241.447C123.53 241.447 122.48 240.357 121.81 239.537C116.23 232.727 112.36 230.437 110.04 229.077C108.29 228.047 105.84 227.237 106.34 225.127C106.44 224.717 106.49 224.307 106.6 223.937C107.37 221.377 109.05 218.797 111.21 219.027C112.11 219.127 113.31 219.517 114.68 220.227C118.97 222.457 120.99 225.147 122.5 227.067C123.53 225.337 125.68 222.057 129.69 216.987C139.44 204.687 149.05 199.527 150.88 198.617C151.16 198.477 151.48 198.387 151.8 198.367H151.95C152.93 198.367 152.91 198.957 153.29 199.877C153.66 200.787 154.34 201.817 153.63 202.497C151.61 204.477 147.99 208.327 142.26 215.417C136.55 222.477 133.28 229.067 130.89 233.877C128.47 238.747 128.2 241.437 125.94 241.437C125.95 241.447 124.88 241.447 124.88 241.447Z" fill="white"/>
<path d="M46.7299 200.077C47.7399 199.087 48.7799 198.397 49.8299 197.987C50.8899 197.587 51.9099 197.457 52.9099 197.607L52.5499 194.377L54.8099 194.527L55.2299 198.557C55.5899 198.797 55.9299 199.087 56.2599 199.427C56.8999 200.077 57.3599 200.797 57.6499 201.567C57.9399 202.347 58.0499 203.147 57.9899 203.977C57.9299 204.807 57.6799 205.647 57.2499 206.497C56.8199 207.347 56.1999 208.167 55.3799 208.957L54.8399 209.487C54.0299 210.277 53.1899 210.887 52.3299 211.297C51.4699 211.707 50.6299 211.937 49.7999 211.987C48.9699 212.037 48.1699 211.907 47.3999 211.597C46.6299 211.287 45.9299 210.807 45.2899 210.157C44.6399 209.487 44.1699 208.767 43.8699 207.987C43.5799 207.207 43.4599 206.397 43.5299 205.567C43.5999 204.737 43.8599 203.897 44.2899 203.057C44.7299 202.217 45.3599 201.397 46.1699 200.607L46.7299 200.077ZM47.9899 202.487C46.7899 203.657 46.0899 204.777 45.9099 205.837C45.7299 206.897 46.0399 207.837 46.8399 208.657C47.2299 209.057 47.6499 209.337 48.1199 209.497C48.5899 209.657 49.0799 209.697 49.6099 209.617C50.1399 209.537 50.6899 209.337 51.2599 209.007C51.8399 208.677 52.4199 208.227 53.0199 207.647L53.5799 207.107C54.1799 206.527 54.6499 205.947 54.9899 205.377C55.3299 204.807 55.5499 204.257 55.6399 203.727C55.7299 203.197 55.6999 202.697 55.5499 202.227C55.3999 201.757 55.1299 201.317 54.7399 200.917C53.9299 200.087 52.9999 199.757 51.9399 199.927C50.8799 200.097 49.7499 200.767 48.5399 201.937L47.9899 202.487Z" fill="white"/>
<path d="M30.9799 192.147L39.0899 186.307C39.7799 185.807 40.4799 185.487 41.1699 185.347C41.8599 185.207 42.5299 185.217 43.1799 185.377C43.8299 185.537 44.4299 185.827 44.9999 186.247C45.5699 186.667 46.0799 187.197 46.5299 187.827C46.9999 188.477 47.3399 189.137 47.5699 189.817C47.7899 190.497 47.8799 191.167 47.8199 191.817C47.7599 192.477 47.5499 193.107 47.1999 193.707C46.8399 194.307 46.3199 194.867 45.6199 195.357L37.5099 201.197L35.9999 199.097L44.1099 193.257C44.5399 192.947 44.8799 192.617 45.1099 192.277C45.3399 191.937 45.4799 191.587 45.5399 191.227C45.5899 190.867 45.5599 190.507 45.4399 190.137C45.3199 189.767 45.1299 189.397 44.8599 189.027C44.5899 188.657 44.2999 188.357 43.9899 188.117C43.6799 187.887 43.3399 187.737 42.9799 187.677C42.6199 187.617 42.2499 187.647 41.8499 187.757C41.4499 187.867 41.0399 188.077 40.6099 188.397L32.4999 194.237L30.9799 192.147Z" fill="white"/>
<path d="M34.2901 174.557L36.9601 179.687L40.6001 179.157L41.8501 181.547L25.9901 183.437L24.9101 181.367L35.5601 169.457L36.8101 171.857L34.2901 174.557ZM34.7701 180.007L32.7701 176.167L28.2701 180.947L34.7701 180.007Z" fill="white"/>
<path d="M31.7901 165.087L29.5101 158.697L31.4601 157.997L34.6101 166.827L20.5401 171.847L19.6701 169.397L31.7901 165.087Z" fill="white"/>
<path d="M30.0099 152.087L30.6299 154.597L16.1299 158.197L15.5099 155.687L30.0099 152.087Z" fill="white"/>
<path d="M14.8 139.077L15.45 143.687L28.17 141.887L28.53 144.437L15.81 146.237L16.46 150.807L14.39 151.097L12.73 139.357L14.8 139.077Z" fill="white"/>
<path d="M19.49 129.207L12.35 125.887L12.3 123.017L21.82 127.867L27.32 127.777L27.36 130.387L21.86 130.477L12.5 135.647L12.45 132.767L19.49 129.207Z" fill="white"/>
<path d="M26.68 104.517L25.5 110.187L28.66 112.087L28.11 114.727L14.64 106.147L15.12 103.867L30.9 101.387L30.35 104.037L26.68 104.517ZM23.6 109.037L24.49 104.797L17.98 105.647L23.6 109.037Z" fill="white"/>
<path d="M30.84 90.1066C30.56 90.0066 30.29 89.9566 30.04 89.9566C29.79 89.9566 29.53 90.0366 29.26 90.1866C28.99 90.3366 28.7 90.5766 28.39 90.9066C28.08 91.2366 27.72 91.6666 27.31 92.2066C26.87 92.8066 26.41 93.3366 25.95 93.8066C25.49 94.2766 25.01 94.6566 24.52 94.9366C24.03 95.2166 23.52 95.3966 22.99 95.4666C22.46 95.5366 21.91 95.4666 21.34 95.2566C20.77 95.0466 20.3 94.7366 19.91 94.3266C19.52 93.9166 19.23 93.4266 19.05 92.8566C18.86 92.2966 18.78 91.6666 18.81 90.9866C18.84 90.3066 18.99 89.5966 19.26 88.8566C19.55 88.0666 19.92 87.3966 20.38 86.8466C20.84 86.2966 21.34 85.8766 21.89 85.5866C22.44 85.2966 23.02 85.1266 23.62 85.0866C24.22 85.0466 24.82 85.1266 25.4 85.3466L24.51 87.7766C24.17 87.6566 23.84 87.5866 23.51 87.5966C23.19 87.5966 22.88 87.6666 22.59 87.8166C22.3 87.9566 22.04 88.1766 21.8 88.4666C21.56 88.7566 21.36 89.1366 21.19 89.5866C21.03 90.0166 20.95 90.4066 20.93 90.7566C20.91 91.1066 20.95 91.4166 21.05 91.6866C21.15 91.9566 21.3 92.1866 21.5 92.3766C21.7 92.5666 21.94 92.7066 22.22 92.8066C22.74 92.9966 23.26 92.9066 23.79 92.5466C24.32 92.1766 24.91 91.5466 25.57 90.6466C26.09 89.9366 26.6 89.3466 27.09 88.8766C27.58 88.3966 28.08 88.0366 28.57 87.7866C29.07 87.5366 29.57 87.3966 30.09 87.3766C30.6 87.3566 31.14 87.4466 31.7 87.6466C32.29 87.8666 32.78 88.1766 33.17 88.5766C33.56 88.9866 33.84 89.4666 34.01 90.0166C34.18 90.5666 34.25 91.1866 34.2 91.8666C34.15 92.5466 33.99 93.2666 33.71 94.0266C33.46 94.6966 33.13 95.3366 32.71 95.9266C32.29 96.5166 31.8 97.0066 31.24 97.3866C30.68 97.7766 30.07 98.0266 29.4 98.1366C28.73 98.2566 28.02 98.1766 27.28 97.9066L28.17 95.4666C28.61 95.6266 29.02 95.6866 29.4 95.6466C29.78 95.6066 30.11 95.4866 30.42 95.2866C30.72 95.0866 30.99 94.8166 31.22 94.4766C31.45 94.1366 31.64 93.7566 31.8 93.3266C32.11 92.4766 32.17 91.7766 31.98 91.2266C31.79 90.6966 31.41 90.3166 30.84 90.1066Z" fill="white"/>
<path d="M37.0001 77.2369C36.7301 77.0969 36.4801 77.0069 36.2301 76.9769C35.9801 76.9469 35.7101 76.9869 35.4301 77.1069C35.1401 77.2269 34.8201 77.4169 34.4701 77.7069C34.1201 77.9869 33.7001 78.3669 33.2201 78.8569C32.7001 79.3869 32.1801 79.8569 31.6601 80.2569C31.1401 80.6569 30.6101 80.9669 30.0901 81.1869C29.5701 81.3969 29.0401 81.5069 28.5101 81.5069C27.9801 81.5069 27.4401 81.3569 26.9001 81.0769C26.3701 80.7969 25.9401 80.4269 25.6101 79.9569C25.2801 79.4969 25.0601 78.9669 24.9501 78.3869C24.8401 77.8069 24.8501 77.1769 24.9701 76.5069C25.0901 75.8369 25.3401 75.1569 25.7001 74.4569C26.0901 73.7169 26.5501 73.0969 27.0801 72.6169C27.6101 72.1369 28.1601 71.7869 28.7501 71.5769C29.3301 71.3669 29.9301 71.2769 30.5301 71.3169C31.1301 71.3569 31.7101 71.5269 32.2601 71.8169L31.0501 74.1069C30.7301 73.9369 30.4101 73.8269 30.0901 73.7869C29.7701 73.7469 29.4501 73.7769 29.1501 73.8769C28.8401 73.9769 28.5501 74.1569 28.2801 74.4169C28.0001 74.6769 27.7501 75.0169 27.5301 75.4469C27.3201 75.8569 27.1801 76.2269 27.1101 76.5669C27.0401 76.9069 27.0401 77.2269 27.1001 77.5069C27.1601 77.7869 27.2801 78.0369 27.4501 78.2469C27.6201 78.4569 27.8401 78.6369 28.1001 78.7669C28.5901 79.0269 29.1201 79.0069 29.6901 78.7169C30.2601 78.4269 30.9401 77.8769 31.7201 77.0769C32.3301 76.4469 32.9101 75.9269 33.4701 75.5269C34.0201 75.1269 34.5601 74.8269 35.0901 74.6469C35.6201 74.4669 36.1401 74.3969 36.6501 74.4469C37.1601 74.4969 37.6801 74.6569 38.2101 74.9369C38.7701 75.2269 39.2101 75.6069 39.5401 76.0569C39.8701 76.5169 40.0801 77.0269 40.1801 77.5969C40.2801 78.1669 40.2501 78.7869 40.1101 79.4569C39.9701 80.1269 39.7101 80.8169 39.3301 81.5269C38.9901 82.1669 38.5801 82.7469 38.0801 83.2669C37.5801 83.7969 37.0301 84.2069 36.4201 84.5169C35.8101 84.8269 35.1701 84.9869 34.4901 85.0169C33.8101 85.0369 33.1201 84.8669 32.4201 84.4969L33.6301 82.1969C34.0501 82.4169 34.4501 82.5369 34.8201 82.5469C35.2001 82.5569 35.5501 82.4869 35.8801 82.3269C36.2101 82.1669 36.5101 81.9369 36.7801 81.6369C37.0501 81.3369 37.3001 80.9769 37.5101 80.5769C37.9301 79.7769 38.0901 79.0969 37.9801 78.5169C37.8601 77.9469 37.5301 77.5169 37.0001 77.2369Z" fill="white"/>
<path d="M37.7101 56.2969L45.8101 62.1569C46.5001 62.6569 47.0201 63.2169 47.3701 63.8269C47.7201 64.4369 47.9201 65.0769 47.9701 65.7369C48.0201 66.3969 47.9401 67.0669 47.7101 67.7469C47.4901 68.4169 47.1501 69.0769 46.7001 69.6969C46.2301 70.3469 45.7101 70.8869 45.1401 71.3069C44.5701 71.7269 43.9601 72.0169 43.3201 72.1669C42.6801 72.3169 42.0101 72.3169 41.3301 72.1669C40.6401 72.0169 39.9601 71.6869 39.2601 71.1869L31.1601 65.3269L32.6801 63.2369L40.7801 69.0969C41.2101 69.4069 41.6301 69.6269 42.0201 69.7369C42.4101 69.8469 42.7901 69.8769 43.1501 69.8169C43.5101 69.7569 43.8401 69.6069 44.1601 69.3769C44.4701 69.1469 44.7701 68.8469 45.0301 68.4769C45.3001 68.1069 45.4901 67.7369 45.6201 67.3569C45.7401 66.9869 45.7801 66.6169 45.7201 66.2669C45.6701 65.9069 45.5201 65.5669 45.2901 65.2269C45.0601 64.8869 44.7301 64.5569 44.3001 64.2469L36.2001 58.3869L37.7101 56.2969Z" fill="white"/>
<path d="M51.98 54.1967L49.97 56.2767L54.11 60.2767L52.3 62.1467L41.56 51.7567L45.21 47.9767C45.8 47.3667 46.4 46.8867 47.01 46.5367C47.62 46.1867 48.22 45.9867 48.81 45.9167C49.4 45.8467 49.99 45.9267 50.56 46.1467C51.13 46.3667 51.68 46.7267 52.21 47.2467C52.93 47.9367 53.36 48.6967 53.51 49.5067C53.66 50.3267 53.56 51.1667 53.23 52.0367L60.04 53.9567L60.14 54.0467L58.21 56.0467L51.98 54.1967ZM48.47 54.8267L50.33 52.9067C50.65 52.5767 50.89 52.2367 51.05 51.8967C51.2 51.5567 51.28 51.2367 51.29 50.9167C51.29 50.5967 51.23 50.2867 51.09 49.9967C50.95 49.7067 50.76 49.4267 50.5 49.1767C50.22 48.9067 49.94 48.7067 49.64 48.5667C49.34 48.4267 49.03 48.3667 48.72 48.3767C48.4 48.3867 48.08 48.4767 47.75 48.6467C47.42 48.8167 47.08 49.0767 46.74 49.4367L44.89 51.3467L48.47 54.8267Z" fill="white"/>
<path d="M66.81 44.2866L62.23 47.8266L63.4 51.3166L61.27 52.9666L56.59 37.6966L58.43 36.2666L72.05 44.6166L69.91 46.2766L66.81 44.2866ZM61.53 45.7266L64.95 43.0766L59.44 39.4966L61.53 45.7266Z" fill="white"/>
<path d="M84.68 37.4667L82.41 38.7267L71.44 32.6867L76.58 41.9567L74.31 43.2167L67.06 30.1567L69.33 28.8967L80.34 34.9567L75.18 25.6567L77.43 24.4067L84.68 37.4667Z" fill="white"/>
<path d="M97.39 27.2868C97.58 27.9968 97.65 28.6868 97.61 29.3668C97.57 30.0468 97.4 30.6768 97.1 31.2668C96.8 31.8568 96.37 32.3968 95.8 32.8768C95.23 33.3568 94.52 33.7568 93.66 34.0768C92.8 34.3968 91.96 34.5268 91.15 34.4768C90.34 34.4268 89.58 34.1968 88.88 33.8068C88.18 33.4168 87.54 32.8568 86.98 32.1468C86.41 31.4268 85.95 30.5668 85.57 29.5468L85.15 28.4068C84.78 27.3968 84.57 26.4368 84.54 25.5168C84.51 24.5968 84.63 23.7568 84.92 22.9968C85.21 22.2368 85.65 21.5668 86.24 20.9868C86.83 20.4068 87.57 19.9568 88.45 19.6368C89.28 19.3268 90.07 19.1768 90.8 19.1768C91.53 19.1768 92.2 19.3168 92.8 19.5768C93.4 19.8368 93.94 20.2168 94.41 20.7168C94.88 21.2168 95.28 21.7968 95.61 22.4668L93.19 23.3668C92.97 22.9468 92.74 22.5768 92.48 22.2668C92.22 21.9568 91.93 21.7268 91.61 21.5668C91.29 21.4068 90.93 21.3268 90.53 21.3268C90.13 21.3268 89.68 21.4268 89.18 21.6068C88.63 21.8068 88.18 22.0968 87.85 22.4568C87.51 22.8168 87.28 23.2468 87.15 23.7468C87.02 24.2468 86.99 24.8068 87.07 25.4368C87.15 26.0668 87.32 26.7468 87.59 27.4868L88.02 28.6368C88.28 29.3368 88.58 29.9468 88.91 30.4768C89.24 31.0068 89.61 31.4168 90.02 31.7368C90.43 32.0468 90.87 32.2468 91.36 32.3168C91.85 32.3868 92.37 32.3268 92.94 32.1168C93.47 31.9268 93.89 31.6968 94.21 31.4368C94.53 31.1768 94.76 30.8868 94.91 30.5668C95.06 30.2368 95.14 29.8768 95.14 29.4868C95.14 29.0868 95.09 28.6568 94.98 28.1868L97.39 27.2868Z" fill="white"/>
<path d="M109.46 22.6069L103.47 23.9269L104.46 28.4169L111.47 26.8769L111.92 28.8969L102.38 30.9969L99.1701 16.4069L108.64 14.3169L109.09 16.3569L102.15 17.8869L103.04 21.9169L109.03 20.5969L109.46 22.6069Z" fill="white"/>
<path d="M125.28 12.6767L129.4 24.1967L133.88 12.8167L137.24 12.8667L137 27.8067L134.41 27.7667L134.49 22.8367L134.85 16.2567L130.25 27.6967L128.39 27.6667L124.17 16.0967L124.32 22.6767L124.24 27.5967L121.65 27.5567L121.89 12.6167L125.28 12.6767Z" fill="white"/>
<path d="M150.01 26.3667L144.31 25.3467L142.5 28.5567L139.84 28.0767L148.03 14.3667L150.32 14.7767L153.25 30.4867L150.58 30.0067L150.01 26.3667ZM145.4 23.4067L149.66 24.1667L148.62 17.6867L145.4 23.4067Z" fill="white"/>
<path d="M167.04 35.0667L164.58 34.2267L161.73 22.0367L158.29 32.0667L155.83 31.2267L160.69 17.0967L163.15 17.9367L166.01 30.1767L169.47 20.1167L171.91 20.9567L167.04 35.0667Z" fill="white"/>
<path d="M179.92 37.6067L174.8 34.9067L172.1 37.4167L169.71 36.1567L181.68 25.5767L183.74 26.6667L181.76 42.5167L179.36 41.2467L179.92 37.6067ZM176.42 33.3867L180.25 35.4067L181.23 28.9167L176.42 33.3867Z" fill="white"/>
<path d="M194.22 49.1265C193.97 49.1965 193.66 49.2565 193.29 49.2865C192.92 49.3265 192.49 49.2965 192 49.2065C191.52 49.1165 190.98 48.9565 190.4 48.7065C189.81 48.4565 189.18 48.0865 188.51 47.5965C187.75 47.0465 187.16 46.4065 186.72 45.6765C186.28 44.9565 186.01 44.1765 185.92 43.3565C185.83 42.5365 185.92 41.6765 186.2 40.7665C186.48 39.8665 186.95 38.9565 187.63 38.0365L188.21 37.2465C188.88 36.3265 189.6 35.5965 190.35 35.0465C191.1 34.4965 191.88 34.1265 192.67 33.9365C193.46 33.7565 194.25 33.7565 195.06 33.9465C195.86 34.1365 196.65 34.5165 197.43 35.0865C198.16 35.6265 198.73 36.1865 199.14 36.7765C199.55 37.3665 199.81 37.9765 199.94 38.5865C200.06 39.2065 200.06 39.8265 199.93 40.4565C199.8 41.0865 199.56 41.7065 199.22 42.3265L197.17 40.8165C197.35 40.4665 197.48 40.1165 197.56 39.7665C197.64 39.4165 197.65 39.0665 197.59 38.7265C197.53 38.3865 197.39 38.0565 197.18 37.7265C196.97 37.3965 196.66 37.0865 196.25 36.7865C195.76 36.4265 195.27 36.2065 194.77 36.1165C194.28 36.0365 193.78 36.0765 193.28 36.2565C192.78 36.4265 192.29 36.7265 191.8 37.1565C191.31 37.5765 190.82 38.1165 190.34 38.7665L189.74 39.5765C189.25 40.2365 188.9 40.8765 188.66 41.4965C188.43 42.1165 188.32 42.6865 188.33 43.2365C188.34 43.7765 188.47 44.2865 188.72 44.7465C188.97 45.2065 189.34 45.6165 189.82 45.9765C190.18 46.2365 190.5 46.4465 190.79 46.5865C191.08 46.7265 191.34 46.8265 191.57 46.8865C191.8 46.9465 192 46.9765 192.18 46.9665C192.36 46.9665 192.51 46.9465 192.64 46.9265L194.37 44.5665L191.89 42.7465L193.06 41.1565L197.63 44.5065L194.22 49.1265Z" fill="white"/>
<path d="M206.91 54.6167L202.51 50.3367L199.3 53.6267L204.44 58.6367L202.99 60.1167L195.99 53.2967L206.42 42.5967L213.37 49.3667L211.91 50.8667L206.82 45.9067L203.94 48.8567L208.34 53.1367L206.91 54.6167Z" fill="white"/>
<path d="M219.14 56.0667L212.53 66.3667L224.28 62.9667L226.29 65.6567L214.31 74.5867L212.76 72.5167L216.71 69.5767L222.15 65.8467L210.28 69.1867L209.17 67.6967L215.76 57.2867L210.64 61.4267L206.69 64.3667L205.14 62.2967L217.12 53.3667L219.14 56.0667Z" fill="white"/>
<path d="M226.19 82.7568L223.34 77.3168L219.27 79.4468L222.6 85.8068L220.76 86.7668L216.23 78.1068L229.47 71.1768L233.97 79.7668L232.12 80.7368L228.83 74.4468L225.18 76.3568L228.03 81.7968L226.19 82.7568Z" fill="white"/>
<path d="M226 100.827L225.14 98.3765L232.93 88.5765L222.93 92.0965L222.07 89.6465L236.16 84.6865L237.02 87.1365L229.2 96.9765L239.24 93.4365L240.1 95.8665L226 100.827Z" fill="white"/>
<path d="M241.61 112.647L240.71 108.077L228.1 110.547L227.6 108.017L240.21 105.547L239.32 101.017L241.37 100.617L243.65 112.247L241.61 112.647Z" fill="white"/>
<path d="M233.55 132.207C233.85 132.207 234.12 132.167 234.36 132.087C234.6 132.007 234.82 131.847 235.02 131.607C235.22 131.377 235.42 131.057 235.61 130.637C235.8 130.227 236 129.697 236.21 129.047C236.43 128.337 236.69 127.687 236.97 127.087C237.25 126.487 237.58 125.977 237.95 125.547C238.32 125.117 238.74 124.787 239.22 124.547C239.7 124.307 240.24 124.197 240.85 124.207C241.45 124.217 242 124.357 242.51 124.617C243.01 124.877 243.44 125.247 243.81 125.717C244.17 126.187 244.45 126.747 244.64 127.407C244.83 128.057 244.93 128.777 244.91 129.567C244.9 130.407 244.76 131.167 244.51 131.827C244.26 132.497 243.92 133.057 243.49 133.507C243.07 133.957 242.58 134.307 242.02 134.547C241.46 134.787 240.88 134.897 240.25 134.887L240.29 132.297C240.65 132.307 240.99 132.257 241.29 132.147C241.6 132.037 241.86 131.867 242.09 131.637C242.32 131.407 242.49 131.117 242.62 130.767C242.75 130.417 242.82 129.997 242.83 129.507C242.84 129.047 242.79 128.647 242.7 128.317C242.6 127.977 242.46 127.697 242.28 127.477C242.1 127.247 241.88 127.087 241.63 126.977C241.38 126.867 241.11 126.807 240.81 126.807C240.26 126.797 239.79 127.057 239.41 127.567C239.03 128.087 238.68 128.877 238.35 129.947C238.09 130.787 237.8 131.507 237.49 132.117C237.18 132.727 236.83 133.237 236.44 133.637C236.05 134.037 235.62 134.337 235.14 134.527C234.66 134.717 234.12 134.807 233.53 134.797C232.9 134.787 232.34 134.657 231.84 134.397C231.34 134.137 230.92 133.777 230.57 133.307C230.22 132.837 229.96 132.277 229.79 131.617C229.61 130.957 229.53 130.227 229.54 129.417C229.55 128.697 229.66 127.997 229.87 127.297C230.08 126.607 230.38 125.977 230.78 125.437C231.18 124.887 231.68 124.447 232.27 124.117C232.86 123.787 233.56 123.627 234.35 123.647L234.31 126.247C233.84 126.237 233.43 126.317 233.09 126.477C232.75 126.637 232.47 126.867 232.25 127.147C232.03 127.437 231.87 127.777 231.76 128.167C231.65 128.567 231.6 128.987 231.59 129.447C231.58 130.347 231.75 131.027 232.11 131.497C232.47 131.957 232.95 132.197 233.55 132.207Z" fill="white"/>
<path d="M236.56 144.127L243.1 148.517L242.7 151.367L234.04 145.097L228.59 144.337L228.95 141.757L234.4 142.517L244.45 138.857L244.05 141.717L236.56 144.127Z" fill="white"/>
<path d="M228.86 160.317C229.15 160.397 229.42 160.427 229.67 160.407C229.92 160.387 230.17 160.287 230.43 160.117C230.69 159.947 230.96 159.687 231.24 159.337C231.53 158.987 231.85 158.527 232.22 157.957C232.62 157.327 233.03 156.767 233.46 156.257C233.89 155.747 234.33 155.337 234.8 155.017C235.27 154.697 235.76 154.487 236.28 154.377C236.8 154.267 237.35 154.297 237.94 154.457C238.52 154.617 239.02 154.897 239.44 155.277C239.86 155.657 240.18 156.127 240.41 156.677C240.64 157.227 240.76 157.837 240.79 158.517C240.81 159.197 240.71 159.917 240.5 160.677C240.27 161.487 239.95 162.177 239.53 162.757C239.11 163.337 238.64 163.787 238.12 164.127C237.59 164.457 237.03 164.667 236.43 164.757C235.83 164.847 235.24 164.807 234.64 164.637L235.34 162.147C235.69 162.247 236.03 162.277 236.35 162.257C236.67 162.227 236.97 162.137 237.25 161.977C237.53 161.817 237.77 161.577 237.99 161.267C238.2 160.957 238.38 160.567 238.51 160.107C238.63 159.667 238.69 159.267 238.68 158.917C238.67 158.567 238.61 158.257 238.49 157.997C238.37 157.737 238.21 157.517 237.99 157.347C237.78 157.177 237.53 157.047 237.24 156.967C236.71 156.817 236.19 156.947 235.69 157.347C235.19 157.747 234.65 158.427 234.05 159.377C233.58 160.117 233.12 160.747 232.67 161.257C232.21 161.767 231.75 162.167 231.27 162.457C230.79 162.747 230.3 162.917 229.79 162.987C229.28 163.047 228.74 162.997 228.16 162.837C227.55 162.667 227.04 162.397 226.63 162.017C226.21 161.637 225.9 161.177 225.69 160.637C225.48 160.097 225.37 159.487 225.36 158.797C225.35 158.107 225.46 157.387 225.68 156.607C225.87 155.917 226.16 155.257 226.54 154.637C226.92 154.017 227.37 153.497 227.9 153.067C228.43 152.637 229.02 152.347 229.68 152.177C230.34 152.007 231.05 152.037 231.81 152.247L231.11 154.747C230.66 154.617 230.24 154.587 229.87 154.657C229.5 154.727 229.17 154.867 228.88 155.097C228.59 155.317 228.35 155.607 228.15 155.957C227.95 156.307 227.78 156.707 227.66 157.147C227.41 158.017 227.41 158.717 227.64 159.257C227.88 159.807 228.28 160.157 228.86 160.317Z" fill="white"/>
<path d="M230.72 179.977L232.59 175.707L220.82 170.557L221.85 168.197L233.62 173.347L235.47 169.117L237.39 169.957L232.64 180.817L230.72 179.977Z" fill="white"/>
<path d="M218.61 188.437L221.79 183.187L217.86 180.807L214.14 186.937L212.37 185.857L217.44 177.507L230.21 185.257L225.18 193.547L223.39 192.457L227.07 186.387L223.54 184.247L220.36 189.497L218.61 188.437Z" fill="white"/>
<path d="M219.95 200.677L208.43 196.557L214.38 207.247L212.21 209.807L200.82 200.147L202.49 198.177L206.25 201.367L211.11 205.827L205.18 194.997L206.38 193.577L218 197.657L212.82 193.597L209.06 190.407L210.73 188.437L222.13 198.097L219.95 200.677Z" fill="white"/>
<path d="M97.04 164.957C96.99 165.597 96.85 166.187 96.61 166.727C96.37 167.267 96.03 167.727 95.6 168.117C95.17 168.507 94.65 168.807 94.04 169.017C93.43 169.237 92.73 169.347 91.95 169.347C91.14 169.347 90.41 169.207 89.76 168.927C89.11 168.647 88.57 168.237 88.12 167.717C87.67 167.187 87.33 166.547 87.09 165.797C86.85 165.047 86.73 164.207 86.73 163.267V162.437C86.73 161.507 86.85 160.657 87.1 159.907C87.35 159.157 87.7 158.517 88.16 157.987C88.61 157.457 89.17 157.057 89.82 156.767C90.47 156.487 91.19 156.337 91.99 156.337C92.78 156.337 93.47 156.447 94.08 156.677C94.69 156.897 95.2 157.207 95.62 157.607C96.04 158.007 96.37 158.477 96.61 159.027C96.85 159.577 97 160.167 97.06 160.817H94.45C94.42 160.437 94.36 160.107 94.25 159.817C94.15 159.527 94 159.287 93.81 159.087C93.62 158.887 93.37 158.737 93.07 158.637C92.77 158.537 92.4 158.487 91.97 158.487C91.09 158.487 90.43 158.807 90 159.447C89.57 160.087 89.35 161.077 89.35 162.427V163.277C89.35 163.937 89.4 164.507 89.49 164.997C89.59 165.487 89.74 165.897 89.94 166.227C90.15 166.557 90.41 166.807 90.74 166.967C91.07 167.127 91.46 167.217 91.93 167.217C92.34 167.217 92.7 167.167 93 167.077C93.3 166.987 93.55 166.847 93.75 166.657C93.95 166.467 94.1 166.237 94.22 165.947C94.33 165.667 94.4 165.337 94.43 164.957H97.04Z" fill="#2E343D"/>
<path d="M106.37 163.687H101.36V167.077H107.24V169.177H98.75V156.517H107.22V158.627H101.36V161.647H106.37V163.687Z" fill="#2E343D"/>
<path d="M113.46 164.537H111.38V169.167H108.77V156.507H113.47C114.2 156.507 114.86 156.587 115.44 156.757C116.02 156.917 116.51 157.167 116.91 157.487C117.31 157.807 117.62 158.207 117.83 158.687C118.04 159.167 118.15 159.717 118.15 160.337C118.15 160.797 118.1 161.217 117.99 161.587C117.89 161.957 117.73 162.287 117.54 162.567C117.34 162.857 117.11 163.107 116.83 163.317C116.55 163.527 116.24 163.717 115.89 163.877L118.63 169.047V169.167H115.83L113.46 164.537ZM111.38 162.427H113.48C113.82 162.427 114.12 162.387 114.38 162.297C114.64 162.207 114.85 162.077 115.02 161.917C115.19 161.757 115.32 161.557 115.41 161.327C115.5 161.097 115.54 160.837 115.54 160.557C115.54 159.957 115.37 159.487 115.03 159.147C114.69 158.807 114.17 158.637 113.47 158.637H111.37V162.427H111.38Z" fill="#2E343D"/>
<path d="M129.23 158.627H125.35V169.177H122.74V158.627H118.91V156.517H129.22V158.627H129.23Z" fill="#2E343D"/>
<path d="M133.49 169.177H130.88V156.517H133.49V169.177Z" fill="#2E343D"/>
<path d="M143.53 163.997H138.52V169.167H135.91V156.507H144.15V158.617H138.52V161.887H143.53V163.997Z" fill="#2E343D"/>
<path d="M148.44 169.177H145.83V156.517H148.44V169.177Z" fill="#2E343D"/>
<path d="M158.47 163.687H153.46V167.077H159.34V169.177H150.85V156.517H159.32V158.627H153.46V161.647H158.47V163.687Z" fill="#2E343D"/>
<path d="M160.87 169.177V156.517H164.77C165.62 156.517 166.4 156.667 167.11 156.957C167.82 157.247 168.43 157.657 168.94 158.187C169.45 158.717 169.84 159.357 170.13 160.097C170.41 160.837 170.56 161.667 170.56 162.567V163.137C170.56 164.037 170.42 164.867 170.14 165.597C169.86 166.337 169.46 166.967 168.95 167.497C168.44 168.027 167.82 168.437 167.11 168.727C166.4 169.017 165.61 169.157 164.75 169.157H160.87V169.177ZM163.48 158.627V167.077H164.74C165.77 167.077 166.56 166.737 167.1 166.057C167.64 165.377 167.91 164.407 167.91 163.137V162.547C167.91 161.257 167.64 160.287 167.11 159.617C166.58 158.957 165.8 158.617 164.77 158.617H163.48V158.627Z" fill="#2E343D"/>
</svg>
