<svg width="259" height="261" viewBox="0 0 259 261" fill="none" xmlns="http://www.w3.org/2000/svg">
<path d="M130.54 0.00674283C59.2599 -0.723257 0 57.9167 0 129.197C0 184.717 35.03 232.057 84.19 250.337V205.367C58.16 189.957 40.72 161.587 40.73 129.147C40.76 81.0267 79.8199 41.4067 127.94 40.7367C177.38 40.0467 217.67 79.9167 217.67 129.197C217.67 161.617 200.23 189.967 174.21 205.367V250.337C223.37 232.057 258.4 184.727 258.4 129.197C258.41 58.2867 201.28 0.726743 130.54 0.00674283Z" fill="#E07185"/>
<path d="M91.1899 252.267V189.547C91.1899 185.127 94.7699 181.547 99.1899 181.547H159.22C163.64 181.547 167.22 185.127 167.22 189.547V252.267C167.22 256.687 163.64 260.267 159.22 260.267H99.1899C94.7699 260.267 91.1899 256.687 91.1899 252.267Z" fill="#E07185"/>
<path d="M103.219 96.4768V69.7968C103.219 69.4368 103.459 69.1968 103.819 69.1968H106.449C106.809 69.1968 107.049 69.4368 107.049 69.7968V96.4768C107.049 96.8368 106.809 97.0768 106.449 97.0768H103.819C103.459 97.0768 103.219 96.8368 103.219 96.4768Z" fill="black"/>
<path d="M112.299 89.627V88.667C112.299 88.307 112.539 88.067 112.899 88.067H115.449C115.809 88.067 116.049 88.307 116.049 88.667V89.427C116.049 92.057 118.479 94.087 122.459 94.087C126.239 94.087 127.999 92.297 127.999 89.907C127.999 87.397 125.849 86.287 121.189 84.407C116.649 82.657 112.669 81.057 112.669 76.207C112.669 71.587 116.209 68.877 121.749 68.877C127.719 68.877 131.589 72.067 131.589 76.807V77.407C131.589 77.767 131.349 78.007 130.989 78.007H128.399C128.039 78.007 127.799 77.807 127.799 77.487V76.997C127.799 74.327 125.609 72.177 121.589 72.177C118.279 72.177 116.409 73.567 116.409 76.117C116.409 78.787 118.479 79.657 123.179 81.457C127.599 83.167 131.819 84.917 131.819 89.777C131.819 94.317 128.199 97.387 122.179 97.387C116.159 97.387 112.299 94.327 112.299 89.627Z" fill="black"/>
<path d="M136.229 87.877V78.397C136.229 72.707 140.169 68.877 146.069 68.877C151.999 68.877 155.949 72.697 155.949 78.397V87.877C155.949 93.607 152.009 97.437 146.069 97.437C140.179 97.427 136.229 93.607 136.229 87.877ZM152.129 88.037V78.357C152.129 74.657 149.699 72.187 146.079 72.187C142.499 72.187 140.069 74.657 140.069 78.357V88.037C140.069 91.697 142.499 94.127 146.079 94.127C149.699 94.127 152.129 91.697 152.129 88.037Z" fill="black"/>
<path d="M103.219 96.4768V69.7968C103.219 69.4368 103.459 69.1968 103.819 69.1968H106.449C106.809 69.1968 107.049 69.4368 107.049 69.7968V96.4768C107.049 96.8368 106.809 97.0768 106.449 97.0768H103.819C103.459 97.0768 103.219 96.8368 103.219 96.4768Z" fill="#2E343D"/>
<path d="M112.299 89.627V88.667C112.299 88.307 112.539 88.067 112.899 88.067H115.449C115.809 88.067 116.049 88.307 116.049 88.667V89.427C116.049 92.057 118.479 94.087 122.459 94.087C126.239 94.087 127.999 92.297 127.999 89.907C127.999 87.397 125.849 86.287 121.189 84.407C116.649 82.657 112.669 81.057 112.669 76.207C112.669 71.587 116.209 68.877 121.749 68.877C127.719 68.877 131.589 72.067 131.589 76.807V77.407C131.589 77.767 131.349 78.007 130.989 78.007H128.399C128.039 78.007 127.799 77.807 127.799 77.487V76.997C127.799 74.327 125.609 72.177 121.589 72.177C118.279 72.177 116.409 73.567 116.409 76.117C116.409 78.787 118.479 79.657 123.179 81.457C127.599 83.167 131.819 84.917 131.819 89.777C131.819 94.317 128.199 97.387 122.179 97.387C116.159 97.387 112.299 94.327 112.299 89.627Z" fill="#2E343D"/>
<path d="M136.229 87.877V78.397C136.229 72.707 140.169 68.877 146.069 68.877C151.999 68.877 155.949 72.697 155.949 78.397V87.877C155.949 93.607 152.009 97.437 146.069 97.437C140.179 97.427 136.229 93.607 136.229 87.877ZM152.129 88.037V78.357C152.129 74.657 149.699 72.187 146.079 72.187C142.499 72.187 140.069 74.657 140.069 78.357V88.037C140.069 91.697 142.499 94.127 146.079 94.127C149.699 94.127 152.129 91.697 152.129 88.037Z" fill="#2E343D"/>
<path d="M61.9798 145.467V140.847C61.9798 140.407 62.1398 140.077 62.4698 139.697C66.8698 135.297 70.7698 130.737 74.4598 126.777C77.4298 123.477 79.4598 120.567 79.4598 118.527C79.4598 115.947 77.4798 114.127 74.5098 114.127C71.5398 114.127 69.5598 115.937 69.5598 118.637V119.737C69.5598 120.337 69.2298 120.677 68.6298 120.677H62.6898C62.0898 120.677 61.7598 120.347 61.7598 119.737V117.427C62.0898 111.327 67.4798 107.477 74.5198 107.477C82.4898 107.477 87.3298 112.367 87.3298 118.367C87.3298 121.557 85.6298 124.747 82.7098 128.317C79.9098 131.777 76.3298 135.357 72.5398 139.367C72.3198 139.527 72.4298 139.757 72.6998 139.757H87.1098C87.7098 139.757 88.0498 140.087 88.0498 140.687V145.467C88.0498 146.067 87.7198 146.397 87.1098 146.397H62.9098C62.3098 146.397 61.9798 146.067 61.9798 145.467Z" fill="#2E343D"/>
<path d="M116.39 120.567V137.557C116.39 143.767 111.2 147.837 103.69 147.837C96.2898 147.837 91.2698 143.767 91.2698 137.727V136.427C91.2698 135.807 91.6098 135.467 92.2298 135.467H98.2698C98.8898 135.467 99.2298 135.697 99.2298 136.027V136.647C99.2298 139.127 101.04 140.997 103.69 140.997C106.46 140.997 108.43 139.137 108.43 136.477V131.287C108.43 131.007 108.26 130.887 108.03 131.117C106.22 132.587 104.08 133.037 101.93 133.037C97.4698 133.037 93.6898 130.947 91.6498 126.997C90.6898 125.187 90.2998 122.987 90.2998 120.507C90.2998 118.247 90.6998 116.277 91.3698 114.637C93.2898 110.237 97.5798 107.467 103.28 107.467C109.1 107.467 113.5 110.287 115.36 115.037C116.05 116.667 116.39 118.587 116.39 120.567ZM108.37 120.287C108.37 118.987 108.14 117.807 107.64 116.847C106.85 115.267 105.44 114.367 103.35 114.367C101.26 114.367 99.9098 115.327 99.1198 116.847C98.5598 117.807 98.2698 119.047 98.2698 120.407C98.2698 121.707 98.5498 123.117 99.1698 124.137C100.07 125.607 101.43 126.397 103.29 126.397C105.32 126.397 106.73 125.607 107.52 124.087C108.15 122.997 108.37 121.527 108.37 120.287Z" fill="#2E343D"/>
<path d="M146.82 120.567V137.557C146.82 143.767 141.63 147.837 134.12 147.837C126.72 147.837 121.7 143.767 121.7 137.727V136.427C121.7 135.807 122.04 135.467 122.66 135.467H128.7C129.32 135.467 129.66 135.697 129.66 136.027V136.647C129.66 139.127 131.47 140.997 134.12 140.997C136.89 140.997 138.86 139.137 138.86 136.477V131.287C138.86 131.007 138.69 130.887 138.46 131.117C136.65 132.587 134.51 133.037 132.36 133.037C127.9 133.037 124.12 130.947 122.08 126.997C121.12 125.187 120.73 122.987 120.73 120.507C120.73 118.247 121.13 116.277 121.8 114.637C123.72 110.237 128.01 107.467 133.71 107.467C139.52 107.467 143.93 110.287 145.79 115.037C146.48 116.667 146.82 118.587 146.82 120.567ZM138.8 120.287C138.8 118.987 138.57 117.807 138.07 116.847C137.28 115.267 135.87 114.367 133.78 114.367C131.69 114.367 130.34 115.327 129.55 116.847C128.99 117.807 128.7 119.047 128.7 120.407C128.7 121.707 128.98 123.117 129.6 124.137C130.5 125.607 131.86 126.397 133.72 126.397C135.75 126.397 137.16 125.607 137.95 124.087C138.57 122.997 138.8 121.527 138.8 120.287Z" fill="#2E343D"/>
<path d="M177.24 120.567V137.557C177.24 143.767 172.05 147.837 164.54 147.837C157.14 147.837 152.12 143.767 152.12 137.727V136.427C152.12 135.807 152.46 135.467 153.08 135.467H159.12C159.74 135.467 160.08 135.697 160.08 136.027V136.647C160.08 139.127 161.89 140.997 164.54 140.997C167.31 140.997 169.28 139.137 169.28 136.477V131.287C169.28 131.007 169.11 130.887 168.88 131.117C167.07 132.587 164.93 133.037 162.78 133.037C158.32 133.037 154.54 130.947 152.5 126.997C151.54 125.187 151.15 122.987 151.15 120.507C151.15 118.247 151.54 116.277 152.22 114.637C154.14 110.237 158.43 107.467 164.13 107.467C169.95 107.467 174.35 110.287 176.21 115.037C176.9 116.667 177.24 118.587 177.24 120.567ZM169.23 120.287C169.23 118.987 169 117.807 168.5 116.847C167.71 115.267 166.3 114.367 164.21 114.367C162.12 114.367 160.77 115.327 159.98 116.847C159.42 117.807 159.13 119.047 159.13 120.407C159.13 121.707 159.41 123.117 160.03 124.137C160.93 125.607 162.29 126.397 164.15 126.397C166.18 126.397 167.59 125.607 168.38 124.087C169 122.997 169.23 121.527 169.23 120.287Z" fill="#2E343D"/>
<path d="M205.229 135.117C205.229 137.317 204.84 139.027 204.24 140.627C202.42 145.257 198.119 148.117 192.449 148.117C186.779 148.117 182.369 145.087 180.549 140.347C179.999 138.967 179.779 137.427 179.669 135.997C179.669 135.387 179.999 135.057 180.609 135.057H186.559C187.109 135.057 187.499 135.387 187.549 135.997C187.609 136.827 187.829 137.757 188.099 138.417C188.759 140.287 190.3 141.447 192.4 141.447C194.44 141.447 195.87 140.507 196.64 138.747C197.14 137.697 197.41 136.267 197.41 134.887C197.41 133.237 197.08 131.797 196.53 130.647C195.76 128.997 194.379 128.057 192.339 128.057C191.569 128.057 190.689 128.497 189.799 129.107C189.299 129.437 188.809 129.327 188.479 128.887L185.559 124.977C185.229 124.477 185.229 124.037 185.669 123.657L194.27 116.167C194.49 116.007 194.379 115.777 194.099 115.777H181.37C180.76 115.777 180.429 115.447 180.429 114.837V110.047C180.429 109.437 180.76 109.107 181.37 109.107H203.799C204.409 109.107 204.74 109.437 204.74 110.047V115.447C204.74 115.887 204.57 116.277 204.24 116.607L197.02 123.167C196.8 123.387 196.91 123.557 197.24 123.607C200.66 124.267 202.86 126.417 204.13 129.287C204.85 130.927 205.229 132.917 205.229 135.117Z" fill="#2E343D"/>
<path d="M124.89 241.447C123.54 241.447 122.49 240.357 121.82 239.537C116.24 232.727 112.37 230.437 110.05 229.077C108.3 228.047 105.85 227.237 106.35 225.127C106.45 224.717 106.5 224.307 106.61 223.937C107.38 221.377 109.06 218.797 111.22 219.027C112.12 219.127 113.32 219.517 114.69 220.227C118.98 222.457 121 225.147 122.51 227.067C123.54 225.337 125.69 222.057 129.7 216.987C139.45 204.687 149.06 199.527 150.89 198.617C151.17 198.477 151.49 198.387 151.81 198.377H151.96C152.94 198.377 152.92 198.967 153.3 199.887C153.67 200.797 154.35 201.827 153.64 202.507C151.62 204.487 148 208.337 142.27 215.427C136.56 222.487 133.29 229.077 130.9 233.887C128.48 238.757 128.21 241.447 125.95 241.447H124.89Z" fill="white"/>
<path d="M53.78 195.797L45.1 202.867L43.54 200.957L50.4901 195.297L46.96 190.967L48.7 189.557L53.78 195.797Z" fill="white"/>
<path d="M47.24 187.517L37.84 193.607L33.25 186.517L35.09 185.327L38.35 190.367L40.2599 189.137L37.39 184.707L39.23 183.517L42.1 187.947L44.0699 186.667L40.77 181.567L42.61 180.377L47.24 187.517Z" fill="white"/>
<path d="M37.5501 170.427L35.7401 172.447L37.8101 176.707L40.5201 176.527L41.6201 178.787L29.3701 179.407L28.3701 177.367L36.4101 168.117L37.5501 170.427ZM31.5501 177.117L35.4701 176.867L34.1701 174.187L31.5501 177.117Z" fill="white"/>
<path d="M33.4198 159.467L30.7998 162.887L31.4198 164.717L34.8098 163.567L35.5998 165.897L24.9898 169.497L23.3398 164.647C22.4898 162.147 23.2998 160.197 25.4798 159.457L25.5097 159.447C27.2197 158.867 28.6097 159.427 29.5697 160.607L32.4798 156.727L33.4198 159.467ZM26.4198 161.787C25.4198 162.127 25.1398 162.997 25.5298 164.137L26.3197 166.457L29.3598 165.427L28.5598 163.067C28.1698 161.927 27.3498 161.487 26.4498 161.787H26.4198Z" fill="white"/>
<path d="M30.2899 146.607L24.3899 153.347L31.3699 151.927L31.8599 154.307L20.8799 156.537L20.4299 154.307L26.1399 147.787L19.3799 149.157L18.8999 146.777L29.8799 144.547L30.2899 146.607Z" fill="white"/>
<path d="M29.5201 141.077L18.3801 142.247L18.1201 139.797L29.2601 138.627L29.5201 141.077Z" fill="white"/>
<path d="M28.8101 127.287L21.7401 132.777L28.8601 132.707L28.8801 135.137L17.6701 135.247L17.6501 132.977L24.5001 127.657L17.6001 127.727L17.5801 125.297L28.7901 125.187L28.8101 127.287Z" fill="white"/>
<path d="M29.7999 116.577C29.3899 120.037 26.6699 122.137 23.3799 121.737H23.3498C20.1898 121.357 17.8899 118.587 18.2899 115.227C18.5299 113.227 19.2098 112.087 20.3298 111.037L21.9999 112.797C21.1799 113.567 20.6798 114.287 20.5298 115.567C20.3198 117.347 21.7199 118.947 23.6099 119.167H23.6398C25.6698 119.407 27.3298 118.187 27.5698 116.217C27.6798 115.327 27.5499 114.507 27.1799 113.837L25.5898 113.647L25.2999 116.107L23.1899 115.857L23.7698 111.027L28.5998 111.607C29.4298 112.877 30.0399 114.547 29.7999 116.577Z" fill="white"/>
<path d="M33.3803 99.6269C32.8903 101.247 31.8203 102.717 30.2903 103.657L29.0403 101.757C30.1303 101.037 30.9403 100.177 31.3103 98.9469C31.6003 97.9769 31.4003 97.2869 30.7703 97.0969L30.7403 97.0869C30.1403 96.9069 29.7303 97.1769 28.7203 98.8369C27.5103 100.827 26.5003 102.047 24.3703 101.397L24.3403 101.387C22.3903 100.797 21.5803 98.8469 22.2403 96.6569C22.7103 95.0969 23.6103 93.9069 24.8103 93.0869L26.2203 94.8469C25.2703 95.5969 24.5902 96.4069 24.3202 97.3169C24.0502 98.2169 24.3203 98.8169 24.8403 98.9769L24.8703 98.9869C25.5803 99.1969 25.9403 98.8069 26.9803 97.0969C28.2103 95.0969 29.3603 94.1069 31.2303 94.6669L31.2602 94.6769C33.3702 95.3269 34.0803 97.3169 33.3803 99.6269Z" fill="white"/>
<path d="M35.3903 93.0267L25.0903 88.6167L28.4203 80.8467L30.4304 81.7067L28.0703 87.2267L30.1603 88.1267L32.2404 83.2767L34.2504 84.1367L32.1703 88.9867L34.3303 89.9167L36.7203 84.3267L38.7404 85.1867L35.3903 93.0267Z" fill="white"/>
<path d="M43.4 76.7566L39.1 77.0566L38.14 78.7366L41.2501 80.5166L40.02 82.6566L30.3101 77.0766L32.86 72.6366C34.17 70.3466 36.17 69.6666 38.17 70.8166L38.2 70.8366C39.77 71.7366 40.27 73.1466 40.01 74.6466L44.84 74.2666L43.4 76.7566ZM37.03 73.0466C36.11 72.5166 35.2801 72.8866 34.6801 73.9266L33.46 76.0466L36.2501 77.6466L37.4901 75.4866C38.0901 74.4466 37.8801 73.5266 37.0601 73.0666L37.03 73.0466Z" fill="white"/>
<path d="M49.5798 67.8766L48.2798 69.6266L36.5298 66.5166L38.1598 64.3366L46.2398 66.7066L41.6598 59.6466L43.2498 57.5166L49.5798 67.8766Z" fill="white"/>
<path d="M54.0002 62.3466L45.6802 54.8466L47.3301 53.0166L55.6501 60.5166L54.0002 62.3466Z" fill="white"/>
<path d="M61.9901 54.4969C59.5701 56.7369 56.0401 56.5269 53.8601 54.1669L53.8401 54.1469C51.6801 51.8069 51.67 48.2669 54.2 45.9269C55.75 44.4969 57.1601 44.1469 58.6201 44.1969L58.7 46.5869C57.53 46.5969 56.5601 46.8469 55.7401 47.6069C54.3501 48.8869 54.4201 50.9669 55.7201 52.3769L55.7401 52.3969C57.0401 53.8069 59.1101 54.0769 60.5201 52.7769C61.4601 51.9069 61.6901 50.9969 61.7901 49.8169L64.0201 49.9169C63.9901 51.5969 63.5701 53.0269 61.9901 54.4969Z" fill="white"/>
<path d="M67.2799 49.6369L60.6899 40.5769L67.5199 35.6069L68.8099 37.3769L63.9599 40.9069L65.2999 42.7469L69.5699 39.6369L70.8599 41.4069L66.5899 44.5169L67.9699 46.4169L72.8899 42.8369L74.1799 44.6069L67.2799 49.6369Z" fill="white"/>
<path d="M80.13 41.267C78.66 42.107 76.88 42.447 75.12 42.077L75.52 39.837C76.81 40.057 77.99 39.987 79.1 39.357C79.98 38.857 80.3 38.207 79.98 37.637L79.96 37.607C79.65 37.067 79.16 36.977 77.29 37.497C75.05 38.117 73.47 38.297 72.37 36.367L72.35 36.337C71.34 34.577 72.0899 32.597 74.0699 31.457C75.4899 30.647 76.95 30.397 78.39 30.627L78.1999 32.877C76.9999 32.777 75.94 32.897 75.12 33.367C74.3 33.837 74.09 34.457 74.36 34.927L74.38 34.957C74.75 35.597 75.28 35.567 77.21 35.037C79.48 34.417 80.99 34.497 81.96 36.187L81.98 36.217C83.07 38.137 82.22 40.067 80.13 41.267Z" fill="white"/>
<path d="M96.3901 33.877C93.1301 35.027 89.9301 33.427 88.8701 30.417L88.8601 30.387C87.8001 27.387 89.3001 24.087 92.5601 22.937C95.8201 21.787 99.0201 23.387 100.08 26.397L100.09 26.427C101.15 29.427 99.6501 32.717 96.3901 33.877ZM97.6701 27.277C97.0301 25.467 95.1701 24.427 93.3001 25.087C91.4301 25.747 90.6501 27.687 91.2901 29.497L91.3001 29.527C91.9401 31.337 93.8001 32.377 95.6701 31.717C97.5401 31.057 98.3201 29.117 97.6801 27.307L97.6701 27.277Z" fill="white"/>
<path d="M109.27 30.2567C106.33 30.8667 104.18 29.6067 103.51 26.3767L102.2 20.1167L104.61 19.6167L105.9 25.8167C106.27 27.5967 107.36 28.3367 108.83 28.0367C110.3 27.7367 111.01 26.6467 110.65 24.9167L109.34 18.6367L111.75 18.1367L113.04 24.3167C113.74 27.6167 112.21 29.6367 109.27 30.2567Z" fill="white"/>
<path d="M121.41 19.3369L122.2 28.2269L119.75 28.4469L118.96 19.5569L115.57 19.8569L115.37 17.5969L124.61 16.7769L124.81 19.0369L121.41 19.3369Z" fill="white"/>
<path d="M131.89 28.1068C130.19 28.0768 128.49 27.4568 127.17 26.2368L128.65 24.5168C129.64 25.3668 130.69 25.9068 131.97 25.9268C132.98 25.9468 133.59 25.5568 133.6 24.8968V24.8668C133.61 24.2468 133.23 23.9168 131.37 23.4068C129.12 22.7968 127.68 22.1468 127.72 19.9268V19.8968C127.75 17.8668 129.41 16.5468 131.69 16.5868C133.32 16.6168 134.7 17.1468 135.82 18.0768L134.51 19.9068C133.53 19.2068 132.56 18.7668 131.62 18.7568C130.68 18.7368 130.17 19.1668 130.16 19.7068V19.7368C130.15 20.4768 130.62 20.7168 132.55 21.2468C134.81 21.8768 136.08 22.7068 136.05 24.6668V24.6968C136.02 26.9268 134.3 28.1468 131.89 28.1068Z" fill="white"/>
<path d="M139.02 28.3168L140.13 17.1768L142.58 17.4168L141.47 28.5568L139.02 28.3168Z" fill="white"/>
<path d="M149.22 29.7467L144.93 28.8967L147.1 17.9067L151.39 18.7567C154.84 19.4367 156.76 22.2767 156.15 25.3767L156.14 25.4067C155.54 28.4967 152.68 30.4267 149.22 29.7467ZM153.62 24.9067C154 22.9567 152.94 21.3267 150.96 20.9367L149.09 20.5667L147.78 27.1967L149.65 27.5667C151.63 27.9567 153.23 26.8867 153.61 24.9367L153.62 24.9067Z" fill="white"/>
<path d="M157.78 31.6966L161.27 21.0566L169.29 23.6866L168.61 25.7666L162.91 23.8966L162.2 26.0566L167.22 27.7066L166.54 29.7866L161.52 28.1366L160.79 30.3666L166.57 32.2666L165.89 34.3466L157.78 31.6966Z" fill="white"/>
<path d="M179.98 30.9069L178.87 33.0169L183.6 35.5069L182.56 37.4869L177.83 34.9969L175.81 38.8369L173.63 37.6869L178.84 27.7769L186.39 31.7469L185.35 33.7269L179.98 30.9069Z" fill="white"/>
<path d="M187.78 46.2366C184.95 44.2566 184.39 40.7266 186.21 38.1166L186.23 38.0866C188.05 35.4766 191.61 34.7766 194.44 36.7566C197.27 38.7366 197.83 42.2666 196.01 44.8766L195.99 44.9066C194.16 47.5066 190.61 48.2066 187.78 46.2366ZM193.87 43.4266C194.97 41.8566 194.73 39.7366 193.1 38.5966C191.47 37.4566 189.45 37.9566 188.35 39.5366L188.33 39.5666C187.23 41.1366 187.47 43.2566 189.1 44.3966C190.73 45.5366 192.75 45.0366 193.85 43.4566L193.87 43.4266Z" fill="white"/>
<path d="M199.94 55.8966L200.58 51.6266L199.15 50.3266L196.74 52.9766L194.92 51.3166L202.46 43.0366L206.24 46.4866C208.19 48.2666 208.42 50.3566 206.87 52.0666L206.85 52.0866C205.63 53.4266 204.15 53.6066 202.74 53.0366L202.07 57.8366L199.94 55.8966ZM204.94 50.4766C205.65 49.6966 205.47 48.7966 204.59 47.9866L202.78 46.3366L200.61 48.7166L202.45 50.3966C203.34 51.2066 204.28 51.1966 204.91 50.4966L204.94 50.4766Z" fill="white"/>
<path d="M209.46 66.2967L215.05 61.5867L209.36 62.2667L209.32 62.2167L210.93 56.7767L205.38 61.4567L203.82 59.6067L212.38 52.3867L214.09 54.4167L212.37 59.7167L217.89 58.9167L219.6 60.9467L211.04 68.1667L209.46 66.2967Z" fill="white"/>
<path d="M217.41 77.8866L218.99 75.6766L216.46 71.6766L213.79 72.1566L212.45 70.0366L224.55 68.0566L225.77 69.9766L218.81 80.0666L217.41 77.8866ZM222.62 70.5766L218.75 71.2666L220.34 73.7766L222.62 70.5766Z" fill="white"/>
<path d="M219.81 82.1867L229.9 77.3467L230.97 79.5667L222.89 83.4367L225.3 88.4667L223.28 89.4367L219.81 82.1867Z" fill="white"/>
<path d="M226.16 97.0668L236.92 93.9468L239.27 102.057L237.17 102.667L235.5 96.9068L233.32 97.5368L234.79 102.607L232.69 103.217L231.22 98.1468L228.96 98.7968L230.65 104.637L228.54 105.247L226.16 97.0668Z" fill="white"/>
<path d="M229.88 112.297L229.18 107.987L240.24 106.197L240.94 110.507C241.5 113.977 239.51 116.767 236.4 117.277H236.37C233.25 117.787 230.44 115.777 229.88 112.297ZM235.95 114.737C237.91 114.417 239.06 112.857 238.74 110.867L238.43 108.987L231.77 110.067L232.07 111.947C232.39 113.937 233.95 115.057 235.91 114.747L235.95 114.737Z" fill="white"/>
<path d="M231.04 125.667C230.94 122.657 232.56 120.767 235.85 120.657L242.25 120.447L242.33 122.907L236 123.117C234.18 123.177 233.26 124.117 233.31 125.627C233.36 127.127 234.3 128.007 236.08 127.957L242.49 127.747L242.57 130.207L236.25 130.417C232.86 130.517 231.14 128.667 231.04 125.667Z" fill="white"/>
<path d="M230.62 138.907C230.91 135.627 233.66 133.417 236.86 133.697H236.89C240.06 133.977 242.44 136.597 242.14 140.027C241.95 142.127 241.14 143.327 240.03 144.267L238.37 142.547C239.23 141.757 239.78 140.927 239.88 139.807C240.05 137.927 238.61 136.437 236.7 136.267H236.67C234.76 136.097 233.05 137.277 232.88 139.187C232.77 140.457 233.21 141.287 233.92 142.237L232.2 143.657C231.08 142.407 230.43 141.067 230.62 138.907Z" fill="white"/>
<path d="M228.21 154.197L230.88 153.737L231.89 149.117L229.66 147.577L230.2 145.127L240.19 152.227L239.7 154.447L227.66 156.727L228.21 154.197ZM237.06 152.667L233.83 150.437L233.19 153.347L237.06 152.667Z" fill="white"/>
<path d="M234.16 165.237L225.69 162.407L226.47 160.067L234.94 162.897L236.02 159.667L238.18 160.387L235.24 169.197L233.08 168.477L234.16 165.237Z" fill="white"/>
<path d="M223.5 168.137L233.79 172.577L232.81 174.837L222.52 170.397L223.5 168.137Z" fill="white"/>
<path d="M218.36 178.257C220.04 175.237 223.5 174.327 226.28 175.877L226.31 175.897C229.09 177.447 230.15 180.917 228.46 183.937C226.78 186.957 223.32 187.867 220.54 186.317L220.51 186.297C217.73 184.747 216.68 181.277 218.36 178.257ZM221.77 184.047C223.45 184.987 225.53 184.537 226.5 182.797C227.47 181.067 226.77 179.097 225.09 178.157L225.06 178.137C223.38 177.197 221.3 177.647 220.33 179.387C219.36 181.127 220.06 183.087 221.74 184.017L221.77 184.047Z" fill="white"/>
<path d="M209.32 192.167L218.28 192.107L212.58 187.827L214.04 185.877L223 192.607L221.63 194.427L212.96 194.487L218.48 198.627L217.02 200.577L208.06 193.847L209.32 192.167Z" fill="white"/>
<path d="M97.05 164.957C97 165.597 96.86 166.187 96.62 166.727C96.38 167.267 96.04 167.727 95.61 168.117C95.18 168.507 94.66 168.807 94.05 169.017C93.44 169.237 92.74 169.347 91.96 169.347C91.15 169.347 90.42 169.207 89.77 168.927C89.12 168.647 88.58 168.237 88.13 167.717C87.68 167.187 87.34 166.547 87.09 165.797C86.85 165.047 86.73 164.207 86.73 163.267V162.427C86.73 161.497 86.85 160.647 87.1 159.897C87.35 159.147 87.7 158.507 88.16 157.977C88.62 157.447 89.1699 157.047 89.8199 156.757C90.4699 156.477 91.19 156.327 91.99 156.327C92.78 156.327 93.48 156.437 94.08 156.657C94.69 156.877 95.2 157.187 95.62 157.587C96.04 157.987 96.37 158.457 96.61 159.007C96.85 159.557 97 160.147 97.06 160.797H94.45C94.42 160.417 94.36 160.087 94.25 159.797C94.15 159.507 94 159.267 93.81 159.067C93.62 158.867 93.3699 158.717 93.0699 158.617C92.7699 158.517 92.4 158.467 91.97 158.467C91.09 158.467 90.43 158.787 90 159.427C89.57 160.067 89.35 161.057 89.35 162.407V163.257C89.35 163.907 89.4 164.487 89.49 164.977C89.59 165.467 89.74 165.877 89.94 166.217C90.15 166.547 90.41 166.797 90.74 166.957C91.07 167.127 91.46 167.207 91.93 167.207C92.34 167.207 92.7 167.157 92.99 167.067C93.29 166.977 93.54 166.837 93.74 166.647C93.94 166.457 94.1 166.227 94.2 165.937C94.31 165.657 94.38 165.327 94.41 164.947H97.05V164.957Z" fill="#2E343D"/>
<path d="M106.38 163.687H101.37V167.077H107.25V169.177H98.7598V156.517H107.23V158.627H101.37V161.647H106.38V163.687Z" fill="#2E343D"/>
<path d="M113.46 164.537H111.38V169.167H108.77V156.507H113.47C114.2 156.507 114.86 156.587 115.43 156.757C116.01 156.927 116.5 157.167 116.9 157.487C117.3 157.807 117.61 158.207 117.82 158.687C118.03 159.167 118.14 159.717 118.14 160.337C118.14 160.797 118.09 161.217 117.98 161.587C117.88 161.957 117.73 162.287 117.53 162.567C117.33 162.857 117.1 163.107 116.82 163.317C116.54 163.527 116.23 163.717 115.88 163.877L118.62 169.047V169.167H115.82L113.46 164.537ZM111.39 162.427H113.49C113.83 162.427 114.13 162.387 114.39 162.297C114.65 162.207 114.86 162.077 115.03 161.917C115.2 161.747 115.33 161.557 115.42 161.327C115.51 161.097 115.55 160.837 115.55 160.557C115.55 159.957 115.38 159.487 115.04 159.147C114.7 158.807 114.18 158.637 113.48 158.637H111.38V162.427H111.39Z" fill="#2E343D"/>
<path d="M129.24 158.627H125.36V169.177H122.75V158.627H118.92V156.517H129.23V158.627H129.24Z" fill="#2E343D"/>
<path d="M133.5 169.177H130.89V156.517H133.5V169.177Z" fill="#2E343D"/>
<path d="M143.53 163.997H138.52V169.167H135.91V156.507H144.15V158.617H138.52V161.887H143.53V163.997Z" fill="#2E343D"/>
<path d="M148.44 169.177H145.83V156.517H148.44V169.177Z" fill="#2E343D"/>
<path d="M158.48 163.687H153.47V167.077H159.35V169.177H150.86V156.517H159.33V158.627H153.47V161.647H158.48V163.687Z" fill="#2E343D"/>
<path d="M160.88 169.177V156.517H164.78C165.63 156.517 166.41 156.667 167.12 156.957C167.83 157.247 168.44 157.657 168.95 158.197C169.46 158.727 169.85 159.367 170.14 160.107C170.42 160.847 170.57 161.667 170.57 162.577V163.147C170.57 164.047 170.43 164.877 170.15 165.607C169.87 166.347 169.47 166.977 168.96 167.507C168.45 168.037 167.83 168.447 167.12 168.737C166.41 169.027 165.62 169.167 164.76 169.167H160.88V169.177ZM163.48 158.627V167.077H164.74C165.77 167.077 166.56 166.737 167.1 166.057C167.64 165.377 167.91 164.407 167.91 163.137V162.547C167.91 161.257 167.64 160.287 167.11 159.617C166.58 158.957 165.8 158.617 164.77 158.617H163.48V158.627Z" fill="#2E343D"/>
</svg>
