<svg width="67" height="145" viewBox="0 0 67 145" fill="none" xmlns="http://www.w3.org/2000/svg">
<path d="M66.4321 56.8581L66.4321 48.6517L56.858 48.6517L56.858 39.0776L48.6517 39.0776L48.6517 48.6517L39.0776 48.6517L39.0776 56.8581L48.6517 56.8581L48.6517 66.4322L56.858 66.4322L56.858 56.8581L66.4321 56.8581Z" fill="#F98149"/>
<path d="M27.3545 56.8581L27.3545 48.6517L17.7804 48.6517L17.7804 39.0776L9.57405 39.0776L9.57404 48.6517L-4.23802e-05 48.6517L-4.27389e-05 56.8581L9.57405 56.8581L9.57405 66.4322L17.7804 66.4322L17.7804 56.8581L27.3545 56.8581Z" fill="#F98149"/>
<path d="M66.4321 17.7804L66.4321 9.57409L56.858 9.57409L56.858 -4.18497e-07L48.6517 -4.18497e-07L48.6517 9.57409L39.0776 9.57409L39.0776 17.7804L48.6517 17.7804L48.6517 27.3545L56.858 27.3545L56.858 17.7804L66.4321 17.7804Z" fill="#F98149"/>
<path d="M27.3545 17.7804L27.3545 9.57409L17.7804 9.57409L17.7804 -4.18497e-07L9.57405 -4.18497e-07L9.57404 9.57409L-4.23802e-05 9.57409L-4.27389e-05 17.7804L9.57405 17.7804L9.57405 27.3545L17.7804 27.3545L17.7804 17.7804L27.3545 17.7804Z" fill="#F98149"/>
<path d="M66.4321 135.014L66.4321 126.808L56.858 126.808L56.858 117.234L48.6517 117.234L48.6517 126.808L39.0776 126.808L39.0776 135.014L48.6517 135.014L48.6517 144.588L56.858 144.588L56.858 135.014L66.4321 135.014Z" fill="#F98149"/>
<path d="M27.3545 135.014L27.3545 126.808L17.7804 126.808L17.7804 117.234L9.57405 117.234L9.57404 126.808L-4.23802e-05 126.808L-4.27389e-05 135.014L9.57405 135.014L9.57405 144.588L17.7804 144.588L17.7804 135.014L27.3545 135.014Z" fill="#F98149"/>
<path d="M66.4321 95.9365L66.4321 87.7301L56.858 87.7301L56.858 78.156L48.6517 78.156L48.6517 87.7301L39.0776 87.7301L39.0776 95.9365L48.6517 95.9365L48.6517 105.511L56.858 105.511L56.858 95.9365L66.4321 95.9365Z" fill="#F98149"/>
<path d="M27.3545 95.9365L27.3545 87.7301L17.7804 87.7301L17.7804 78.156L9.57405 78.156L9.57404 87.7301L-4.23802e-05 87.7301L-4.27389e-05 95.9365L9.57405 95.9365L9.57405 105.511L17.7804 105.511L17.7804 95.9365L27.3545 95.9365Z" fill="#F98149"/>
</svg>
