<svg width="793" height="670" viewBox="0 0 793 670" fill="none" xmlns="http://www.w3.org/2000/svg">
<g clip-path="url(#clip0_494_436)">
<path d="M625.81 251.091V253.851" stroke="#263238" stroke-linecap="round" stroke-linejoin="round"/>
<path d="M625.81 260.583V270.7" stroke="#263238" stroke-linecap="round" stroke-linejoin="round" stroke-dasharray="3.67 3.67"/>
<path d="M625.81 274.085V276.844H623.052" stroke="#263238" stroke-linecap="round" stroke-linejoin="round"/>
<path d="M617.738 276.844H524.591" stroke="#263238" stroke-linecap="round" stroke-linejoin="round" stroke-dasharray="2.89 2.89"/>
<path d="M521.925 276.844H519.167V279.603" stroke="#263238" stroke-linecap="round" stroke-linejoin="round"/>
<path d="M519.167 284.607V332.268" stroke="#263238" stroke-linecap="round" stroke-linejoin="round" stroke-dasharray="2.73 2.73"/>
<path d="M519.167 334.788V337.548" stroke="#263238" stroke-linecap="round" stroke-linejoin="round"/>
<path d="M173.497 254.77V257.53" stroke="#263238" stroke-linecap="round" stroke-linejoin="round"/>
<path d="M173.497 262.919V335.763" stroke="#263238" stroke-linecap="round" stroke-linejoin="round" stroke-dasharray="2.93 2.93"/>
<path d="M173.497 338.467V341.227H176.255" stroke="#263238" stroke-linecap="round" stroke-linejoin="round"/>
<path d="M181.679 341.227H384.999" stroke="#263238" stroke-linecap="round" stroke-linejoin="round" stroke-dasharray="2.95 2.95"/>
<path d="M387.702 341.227H390.46" stroke="#263238" stroke-linecap="round" stroke-linejoin="round"/>
<path d="M456.652 11.9568H55.822V271.326H456.652V11.9568Z" fill="#FF8B36"/>
<path d="M715.905 45.0676C676.244 45.0676 643.994 77.3508 643.994 117.01C643.994 156.67 676.263 188.953 715.905 188.953C755.546 188.953 787.815 156.67 787.815 117.01C787.815 77.3508 755.565 45.0676 715.905 45.0676ZM783.935 115.079H752.531C752.365 102.57 750.6 90.6136 747.438 80.1284C753.413 77.2036 758.985 73.4511 764.023 68.9075C775.919 80.8091 783.439 97.0886 783.935 115.079ZM715.905 185.109C707.391 185.109 699.301 178.21 693.068 165.665C691.579 162.667 690.255 159.429 689.078 155.989C697.463 152.402 706.546 150.508 715.886 150.508C725.227 150.508 734.328 152.402 742.694 155.989C741.517 159.411 740.193 162.648 738.704 165.665C732.526 178.192 724.418 185.109 715.905 185.109ZM715.905 146.645C706.16 146.645 696.672 148.595 687.902 152.292C684.941 142.285 683.287 130.862 683.121 118.923H748.67C748.504 130.862 746.868 142.285 743.889 152.292C735.137 148.595 725.649 146.645 715.905 146.645ZM683.121 115.079C683.287 103.141 684.923 91.7357 687.883 81.7472C696.654 85.463 706.141 87.4128 715.886 87.4128C725.631 87.4128 735.137 85.463 743.889 81.7472C746.849 91.7541 748.486 103.159 748.651 115.079H683.121ZM715.905 48.9122C724.418 48.9122 732.526 55.8103 738.741 68.3557C740.23 71.3724 741.572 74.6099 742.731 78.0498C734.346 81.6552 725.245 83.5499 715.905 83.5499C706.564 83.5499 697.463 81.6552 689.078 78.0498C690.255 74.6099 691.579 71.354 693.068 68.3557C699.301 55.8287 707.391 48.9122 715.905 48.9122ZM761.228 66.2586C756.668 70.3423 751.63 73.7454 746.243 76.431C745.047 72.9728 743.705 69.6985 742.179 66.6449C738.649 59.5077 734.475 54.026 729.878 50.3654C741.756 52.8487 752.494 58.4408 761.228 66.2586ZM689.63 66.6449C688.122 69.6985 686.78 72.9728 685.566 76.431C680.198 73.7454 675.16 70.3423 670.581 66.2586C679.297 58.4592 690.034 52.8671 701.912 50.3654C697.334 54.026 693.16 59.5077 689.63 66.6449ZM667.768 68.9075C672.806 73.4511 678.377 77.2036 684.353 80.1284C681.19 90.6136 679.425 102.57 679.26 115.079H647.855C648.37 97.0886 655.89 80.8091 667.768 68.9075ZM647.874 118.942H679.278C679.444 131.45 681.209 143.426 684.371 153.929C678.414 156.835 672.824 160.606 667.787 165.132C655.89 153.212 648.37 136.951 647.874 118.942ZM670.6 167.78C675.16 163.697 680.198 160.294 685.566 157.626C686.762 161.066 688.104 164.341 689.612 167.376C693.142 174.513 697.316 179.995 701.912 183.655C690.053 181.172 679.333 175.58 670.6 167.78ZM742.198 167.376C743.705 164.341 745.047 161.066 746.243 157.626C751.611 160.312 756.649 163.715 761.209 167.78C752.494 175.58 741.756 181.154 729.897 183.655C734.475 179.995 738.649 174.513 742.198 167.376ZM764.023 165.132C758.985 160.588 753.413 156.835 747.438 153.929C750.6 143.444 752.365 131.469 752.531 118.942H783.935C783.439 136.951 775.919 153.212 764.023 165.132Z" fill="#0046AF"/>
<path d="M471.03 0.919678H74.6316V254.733H471.03V0.919678Z" fill="white" stroke="#263238" stroke-miterlimit="10" stroke-linecap="round" stroke-linejoin="round"/>
<path d="M446.337 13.281H120.506V182.349H446.337V13.281Z" fill="white" stroke="#263238" stroke-miterlimit="10" stroke-linecap="round" stroke-linejoin="round"/>
<path d="M342.048 40.3401H391.195" stroke="#263238" stroke-miterlimit="10" stroke-linecap="round" stroke-linejoin="round"/>
<path d="M315.479 40.3401H336.66" stroke="#263238" stroke-miterlimit="10" stroke-linecap="round" stroke-linejoin="round"/>
<path d="M373.581 51.4324H391.195" stroke="#263238" stroke-miterlimit="10" stroke-linecap="round" stroke-linejoin="round"/>
<path d="M315.479 51.4324H366.778" stroke="#263238" stroke-miterlimit="10" stroke-linecap="round" stroke-linejoin="round"/>
<path d="M382.186 62.5427H391.195" stroke="#263238" stroke-miterlimit="10" stroke-linecap="round" stroke-linejoin="round"/>
<path d="M340.614 62.5427H373.93" stroke="#263238" stroke-miterlimit="10" stroke-linecap="round" stroke-linejoin="round"/>
<path d="M315.479 62.5427H336.66" stroke="#263238" stroke-miterlimit="10" stroke-linecap="round" stroke-linejoin="round"/>
<path d="M335.594 73.6533H391.195" stroke="#263238" stroke-miterlimit="10" stroke-linecap="round" stroke-linejoin="round"/>
<path d="M315.479 73.6533H330.574" stroke="#263238" stroke-miterlimit="10" stroke-linecap="round" stroke-linejoin="round"/>
<path d="M385.771 110.664H391.195" stroke="#263238" stroke-miterlimit="10" stroke-linecap="round" stroke-linejoin="round"/>
<path d="M315.479 110.664H380.752" stroke="#263238" stroke-miterlimit="10" stroke-linecap="round" stroke-linejoin="round"/>
<path d="M358.173 121.775H391.195" stroke="#263238" stroke-miterlimit="10" stroke-linecap="round" stroke-linejoin="round"/>
<path d="M315.479 121.775H351.002" stroke="#263238" stroke-miterlimit="10" stroke-linecap="round" stroke-linejoin="round"/>
<path d="M344.916 132.885H391.195" stroke="#263238" stroke-miterlimit="10" stroke-linecap="round" stroke-linejoin="round"/>
<path d="M315.479 132.885H336.66" stroke="#263238" stroke-miterlimit="10" stroke-linecap="round" stroke-linejoin="round"/>
<path d="M367.495 143.977H391.195" stroke="#263238" stroke-miterlimit="10" stroke-linecap="round" stroke-linejoin="round"/>
<path d="M333.075 143.977H360.324" stroke="#263238" stroke-miterlimit="10" stroke-linecap="round" stroke-linejoin="round"/>
<path d="M315.479 143.977H329.14" stroke="#263238" stroke-miterlimit="10" stroke-linecap="round" stroke-linejoin="round"/>
<path d="M215.731 48.7833C215.731 48.7833 218.011 50.0341 220.935 45.4538C223.858 40.8734 225.09 31.3081 220.935 23.8397C216.779 16.3529 206.795 16.5553 201.408 16.776C196.002 16.9784 192.895 10.5401 178.958 16.9784C165.039 23.4166 163.366 32.982 162.741 41.0942C162.116 49.2064 166.896 56.6931 164.193 61.2551C161.49 65.817 148.197 67.491 145.494 77.4794C142.791 87.4679 148.822 93.0784 148.62 95.5617C148.417 98.0634 145.292 101.798 139.684 104.704C134.076 107.61 129.295 123.632 141.339 132.352C153.4 141.089 167.723 142.119 183.941 133.4C200.158 124.663 211.374 108.457 212.624 99.5166C213.874 90.5766 210.344 88.0749 215.327 84.5431C220.309 81.0113 226.34 74.7754 223.215 67.2886C220.089 59.8019 214.904 54.1914 214.904 52.3151C214.904 50.4388 215.731 48.7833 215.731 48.7833Z" fill="#263238"/>
<path d="M161.343 174.329C161.343 174.329 154.136 184.998 152.977 204.331C151.819 223.646 159.321 249.896 159.321 249.896H227.94C227.94 249.896 233.125 222.781 231.102 205.472C229.08 188.162 225.329 180.675 225.329 180.675L219.85 168.277L163.053 169.712L161.343 174.329Z" fill="#263238"/>
<path d="M183.941 63.3336C183.941 63.3336 183.738 83.7153 182.892 86.1986C182.065 88.7003 178.314 92.4345 167.723 97.0148C167.723 97.0148 174.582 140.464 175.832 153.359C177.082 166.253 177.082 174.77 177.082 174.77C177.082 174.77 192.454 177.051 199.937 176.647C207.42 176.224 216.356 171.662 216.356 171.662L213.653 94.7338L202.015 87.8725L201.39 74.3522C201.39 74.3522 188.721 62.2851 187.25 61.4573C185.816 60.6296 183.941 63.3336 183.941 63.3336Z" fill="white" stroke="#263238" stroke-miterlimit="10" stroke-linecap="round" stroke-linejoin="round"/>
<path d="M188.445 67.9141C188.445 67.9141 197.381 82.3357 201.996 86.6585L201.408 74.3523L189.034 64.4558L188.445 67.9141Z" fill="#263238" stroke="#263238" stroke-miterlimit="10" stroke-linecap="round" stroke-linejoin="round"/>
<path d="M214.076 106.801L169.636 109.321C171.769 123.191 175.005 144.86 175.832 153.34C177.082 166.235 177.082 174.752 177.082 174.752C177.082 174.752 192.454 177.033 199.937 176.628C207.42 176.205 216.356 171.643 216.356 171.643L214.076 106.801Z" fill="#0046AF" stroke="#263238" stroke-miterlimit="10" stroke-linecap="round" stroke-linejoin="round"/>
<path d="M208.652 34.3064C208.652 34.3064 196.646 50.6963 183.904 54.7064L180.631 55.0743C180.631 55.0743 176.99 49.9789 175.17 54.7064C173.35 59.4339 176.99 64.8972 179.178 66.0009C181.366 67.0862 183.554 65.633 183.554 65.633L185.007 64.1798C185.007 64.1798 192.288 72.5495 197.381 75.4743C202.474 78.3807 204.662 80.5697 207.218 78.0312C209.774 75.4743 214.131 68.9257 215.235 61.6413C216.319 54.3569 216.32 43.0624 216.32 43.0624C216.32 43.0624 209.755 34.3064 208.652 34.3064Z" fill="white" stroke="#263238" stroke-miterlimit="10" stroke-linecap="round" stroke-linejoin="round"/>
<path d="M208.652 46.3184C208.652 46.3184 208.285 53.2349 210.473 54.6881C212.661 56.1413 212.661 58.6982 211.208 59.0661C209.755 59.434 207.935 59.0661 207.935 59.0661" stroke="#263238" stroke-miterlimit="10" stroke-linecap="round" stroke-linejoin="round"/>
<path d="M199.569 61.623C199.569 61.623 202.842 65.2653 209.038 63.4442" stroke="#263238" stroke-miterlimit="10" stroke-linecap="round" stroke-linejoin="round"/>
<path d="M200.562 50.4387C200.562 51.7079 200.102 52.7197 199.514 52.7197C198.944 52.7197 198.466 51.6895 198.466 50.4387C198.466 49.1694 198.926 48.1577 199.514 48.1577C200.102 48.1577 200.562 49.1878 200.562 50.4387Z" fill="#263238"/>
<path d="M214.279 49.4087C214.279 50.6779 213.819 51.6896 213.231 51.6896C212.661 51.6896 212.182 50.6595 212.182 49.4087C212.182 48.1394 212.642 47.1277 213.231 47.1277C213.819 47.1093 214.279 48.1394 214.279 49.4087Z" fill="#263238"/>
<path d="M129.498 210.549C129.498 210.549 128.082 218.845 127.622 220.739C127.144 222.616 129.498 231.556 129.498 231.556C129.498 231.556 135.289 235.308 136.393 235.474C137.496 235.639 139.371 234.996 139.206 233.598C139.04 232.181 136.852 232.181 136.852 232.181L134.664 229.054L135.142 227.178C135.142 227.178 136.245 230.93 137.018 228.907C137.808 226.865 137.496 225.78 138.268 222.487C139.059 219.194 138.102 216.38 137.477 214.504C136.852 212.627 136.062 210.438 136.062 210.438L136.852 206.833L129.81 205.582L129.498 210.549Z" fill="white" stroke="#263238" stroke-miterlimit="10" stroke-linecap="round" stroke-linejoin="round"/>
<path d="M135.142 227.159L135.62 221.365" stroke="#263238" stroke-miterlimit="10" stroke-linecap="round" stroke-linejoin="round"/>
<path d="M176.917 91.8459C176.917 91.8459 186.147 171.441 184.989 196.256C184.989 196.256 164.8 195.391 151.543 192.503C151.543 192.503 166.528 152.697 166.822 148.374C167.117 144.051 163.366 137.41 163.366 137.41L138.856 209.519L129.056 206.631L154.43 104.538L176.917 91.8459Z" fill="white" stroke="#263238" stroke-miterlimit="10" stroke-linecap="round" stroke-linejoin="round"/>
<path d="M275.617 114.987L279.055 112.485C279.055 112.485 283.284 111.234 284.7 109.505C286.115 107.776 286.263 107.316 286.263 107.316C286.263 107.316 289.866 107.003 291.282 104.502C292.698 102 292.385 94.9361 292.385 94.9361C292.385 94.9361 294.573 92.1217 294.426 90.5581C294.261 88.9945 292.698 88.5163 290.988 89.7671C289.26 91.018 288.322 91.6434 288.322 91.6434L278.926 101.043L275.8 103.545C275.8 103.545 275.01 106.525 274.072 108.089C273.134 109.652 270.946 112.632 270.946 112.632L275.617 114.987Z" fill="white" stroke="#263238" stroke-miterlimit="10" stroke-linecap="round" stroke-linejoin="round"/>
<path d="M271.48 111.179L275.01 105.734C275.01 105.734 277.198 99.7741 277.676 98.8359C278.154 97.8978 283.468 93.1887 283.946 92.7288C284.424 92.2505 286.759 87.5598 287.862 87.0815C288.965 86.6033 289.591 88.498 289.591 90.3742C289.591 92.2505 285.527 98.2105 285.527 98.2105C285.527 98.2105 285.214 103.692 283.486 106.194C281.758 108.696 278.154 109.634 278.154 109.634" fill="white"/>
<path d="M271.48 111.179L275.01 105.734C275.01 105.734 277.198 99.7741 277.676 98.8359C278.154 97.8978 283.468 93.1887 283.946 92.7288C284.424 92.2505 286.759 87.5598 287.862 87.0815C288.965 86.6033 289.591 88.498 289.591 90.3742C289.591 92.2505 285.527 98.2105 285.527 98.2105C285.527 98.2105 285.214 103.692 283.486 106.194C281.758 108.696 278.154 109.634 278.154 109.634" stroke="#263238" stroke-miterlimit="10" stroke-linecap="round" stroke-linejoin="round"/>
<path d="M301.928 59.6731L282.346 111.381" stroke="#263238" stroke-miterlimit="10" stroke-linecap="round" stroke-linejoin="round"/>
<path d="M286.263 107.298C286.263 107.298 284.7 108.549 285.784 102.589" stroke="#263238" stroke-miterlimit="10" stroke-linecap="round" stroke-linejoin="round"/>
<path d="M292.385 94.918C292.385 94.918 289.885 97.107 288.947 96.0217" stroke="#263238" stroke-miterlimit="10" stroke-linecap="round" stroke-linejoin="round"/>
<path d="M206.611 90.9814C206.611 90.9814 211.796 155.29 211.796 172.03C211.796 188.769 212.091 195.391 212.091 195.391C212.091 195.391 214.977 194.232 220.162 193.368C225.347 192.503 232.261 189.615 232.261 189.615C232.261 189.615 218.416 151.538 218.416 148.944C218.416 146.35 220.144 135.681 220.144 135.681C220.144 135.681 245.223 156.155 248.11 154.996C250.997 153.837 276.646 114.913 276.646 114.913L271.461 111.161L243.495 132.499C243.495 132.499 224.759 97.3093 223.601 96.7391C222.461 96.1872 206.611 90.9814 206.611 90.9814Z" fill="white" stroke="#263238" stroke-miterlimit="10" stroke-linecap="round" stroke-linejoin="round"/>
<path d="M220.162 135.699L223.325 118.96L226.212 140.022L220.162 135.699Z" fill="#263238" stroke="#263238" stroke-miterlimit="10" stroke-linecap="round" stroke-linejoin="round"/>
<path d="M163.366 137.429L157.317 124.442" stroke="#263238" stroke-miterlimit="10" stroke-linecap="round" stroke-linejoin="round"/>
<path d="M471.03 226.46H74.6316V254.734H471.03V226.46Z" fill="#263238" stroke="#263238" stroke-miterlimit="10" stroke-linecap="round" stroke-linejoin="round"/>
<path d="M471.03 236.467H74.6316V244.708H471.03V236.467Z" fill="white" stroke="#263238" stroke-miterlimit="10" stroke-linecap="round" stroke-linejoin="round"/>
<path d="M528.268 669.08L512.088 503.654L499.456 506.432L522.311 669.08H528.268Z" fill="#263238" stroke="#263238" stroke-miterlimit="10" stroke-linecap="round" stroke-linejoin="round"/>
<path d="M341.312 669.08L364.185 506.432L351.554 503.654L335.373 669.08H341.312Z" fill="#263238" stroke="#263238" stroke-miterlimit="10" stroke-linecap="round" stroke-linejoin="round"/>
<path d="M355.286 523.631L347.159 330.208C346.681 318.693 355.875 309.091 367.403 309.091H502.876C514.681 309.091 524.003 319.153 523.083 330.944L508.08 523.65H355.286V523.631Z" fill="#263238" stroke="#263238" stroke-miterlimit="10" stroke-linecap="round" stroke-linejoin="round"/>
<path d="M520.932 481.231H341.147V523.631H520.932V481.231Z" fill="#263238" stroke="#263238" stroke-miterlimit="10" stroke-linecap="round" stroke-linejoin="round"/>
<path d="M355.286 523.631H341.68L332.156 443.981C332.156 437.598 337.341 432.41 343.721 432.41C350.101 432.41 355.286 437.598 355.286 443.981V523.631Z" fill="#263238" stroke="#263238" stroke-miterlimit="10" stroke-linecap="round" stroke-linejoin="round"/>
<path d="M508.08 523.631H521.686L531.21 443.981C531.21 437.598 526.025 432.41 519.645 432.41C513.265 432.41 508.08 437.598 508.08 443.981V523.631Z" fill="#263238" stroke="#263238" stroke-miterlimit="10" stroke-linecap="round" stroke-linejoin="round"/>
<path d="M373.25 373.804L379.667 439.327H481.125L487.542 373.804H373.25Z" fill="white" stroke="#263238" stroke-miterlimit="10" stroke-linecap="round" stroke-linejoin="round"/>
<path d="M414.51 266.488L360.379 296.858L331.034 386.423H542.463C542.463 386.423 508.576 299.378 501.994 294.835C495.411 290.273 443.322 265.991 443.322 265.991L414.51 266.488Z" fill="white" stroke="#263238" stroke-miterlimit="10" stroke-linecap="round" stroke-linejoin="round"/>
<path d="M412.487 258.909C412.487 258.909 407.927 262.459 406.916 265.991C405.905 269.541 402.356 298.385 402.356 298.385C402.356 298.385 421.57 285.729 427.141 284.717C432.713 283.706 460.017 300.408 460.017 300.408C460.017 300.408 453.434 267.518 448.378 260.436C443.34 253.335 421.074 250.797 412.487 258.909Z" fill="white" stroke="#263238" stroke-miterlimit="10" stroke-linecap="round" stroke-linejoin="round"/>
<path d="M415.521 270.535C415.521 270.535 429.182 316.577 430.194 311.519C431.205 306.46 443.34 272.043 443.34 272.043C443.34 272.043 420.577 274.085 415.521 270.535Z" fill="white" stroke="#263238" stroke-miterlimit="10" stroke-linecap="round" stroke-linejoin="round"/>
<path d="M405.004 238.656C405.004 238.656 408.222 256.389 410.906 263.379C413.59 270.369 423.262 284.883 430.782 283.264C438.302 281.645 450.658 266.065 452.276 260.16C453.894 254.255 456.027 229.532 456.027 224.161C456.027 218.79 450.658 210.733 434 215.571C417.36 220.39 405.537 227.914 405.004 238.656Z" fill="white" stroke="#263238" stroke-miterlimit="10" stroke-linecap="round" stroke-linejoin="round"/>
<path d="M415.521 270.535C415.521 270.535 420.945 262.055 432.143 264.005C443.34 265.973 446.429 269.965 446.429 269.965C446.429 269.965 440.067 283.871 430.947 285.453C421.809 287.053 415.172 274.287 415.521 270.535Z" fill="#263238" stroke="#263238" stroke-miterlimit="10" stroke-linecap="round" stroke-linejoin="round"/>
<path d="M423.004 270.369C423.004 270.369 428.171 273.147 437.695 270.369" stroke="white" stroke-miterlimit="10" stroke-linecap="round" stroke-linejoin="round"/>
<path d="M419.805 249.013C419.805 251.036 418.978 252.673 417.966 252.673C416.955 252.673 416.128 251.036 416.128 249.013C416.128 246.989 416.955 245.352 417.966 245.352C418.996 245.334 419.805 246.989 419.805 249.013Z" fill="#263238"/>
<path d="M441.979 249.013C441.979 251.036 441.152 252.673 440.141 252.673C439.13 252.673 438.302 251.036 438.302 249.013C438.302 246.989 439.13 245.352 440.141 245.352C441.17 245.334 441.979 246.989 441.979 249.013Z" fill="#263238"/>
<path d="M433.816 248.001L434.239 261.816H427.711" fill="white"/>
<path d="M433.816 248.001L434.239 261.816H427.711" stroke="#263238" stroke-miterlimit="10" stroke-linecap="round" stroke-linejoin="round"/>
<path d="M435.158 242.666C435.158 242.666 440.49 239.337 445.16 242.335L435.158 242.666Z" fill="white"/>
<path d="M435.158 242.666C435.158 242.666 440.49 239.337 445.16 242.335" stroke="#263238" stroke-miterlimit="10" stroke-linecap="round" stroke-linejoin="round"/>
<path d="M426.811 242.998C426.811 242.998 421.478 238.656 413.149 242.004L426.811 242.998Z" fill="white"/>
<path d="M426.811 242.998C426.811 242.998 421.478 238.656 413.149 242.004" stroke="#263238" stroke-miterlimit="10" stroke-linecap="round" stroke-linejoin="round"/>
<path d="M391.766 223.738L394.634 199.861C396.068 187.923 403.735 177.64 414.749 172.839C422.876 169.307 432.051 169.105 440.325 172.287L440.674 172.416C453.526 177.346 462.113 189.578 462.389 203.338L462.775 222.597" stroke="#263238" stroke-miterlimit="10" stroke-linecap="round" stroke-linejoin="round"/>
<path d="M399.543 245.297C396.454 246.014 393.365 244.083 392.648 240.992L390.055 229.79C389.338 226.7 391.269 223.609 394.358 222.892C397.447 222.174 400.536 224.106 401.253 227.196L403.845 238.399C404.563 241.489 402.632 244.58 399.543 245.297Z" fill="white" stroke="#263238" stroke-miterlimit="10" stroke-linecap="round" stroke-linejoin="round"/>
<path d="M461.083 245.573C457.921 245.334 455.531 242.574 455.77 239.41L456.615 227.932C456.854 224.768 459.612 222.377 462.775 222.616C465.937 222.855 468.328 225.614 468.089 228.778L467.243 240.257C467.004 243.421 464.264 245.794 461.083 245.573Z" fill="white" stroke="#263238" stroke-miterlimit="10" stroke-linecap="round" stroke-linejoin="round"/>
<path d="M445.822 220.924C445.822 220.924 437.769 228.447 424.328 237.589C410.906 246.732 399.083 242.961 399.616 240.275C400.15 237.589 402.301 233.818 402.301 233.818C402.301 233.818 397.465 235.437 396.399 226.295C395.332 217.153 393.181 196.734 403.386 188.677C413.59 180.62 436.684 177.401 446.889 180.62C457.093 183.839 461.396 198.886 461.396 205.876C461.396 212.867 459.245 226.828 459.245 226.828C459.245 226.828 461.396 230.047 455.494 232.733C449.592 235.419 445.289 232.733 446.355 227.895C447.44 223.076 445.822 220.924 445.822 220.924Z" fill="#263238" stroke="#263238" stroke-miterlimit="10" stroke-linecap="round" stroke-linejoin="round"/>
<path d="M340.154 362.142C340.154 362.142 346.222 359.603 356.849 363.669C367.477 367.715 388.713 373.786 391.747 373.786C394.781 373.786 411.972 375.313 411.972 375.313L412.487 386.442C412.487 386.442 335.594 387.968 331.053 386.442C326.493 384.915 328 370.236 340.154 362.142Z" fill="white" stroke="#263238" stroke-miterlimit="10" stroke-linecap="round" stroke-linejoin="round"/>
<path d="M394.137 380.187C394.137 380.187 407.633 368.562 411.752 365.931C415.87 363.301 427.491 381.677 427.877 383.186C428.245 384.694 424.88 385.43 424.88 385.43C424.88 385.43 415.889 383.553 414.013 383.186C412.138 382.818 410.262 384.694 405.39 384.694C400.517 384.694 391.894 384.694 391.894 384.694" fill="white"/>
<path d="M394.137 380.187C394.137 380.187 407.633 368.562 411.752 365.931C415.87 363.301 427.491 381.677 427.877 383.186C428.245 384.694 424.88 385.43 424.88 385.43C424.88 385.43 415.889 383.553 414.013 383.186C412.138 382.818 410.262 384.694 405.39 384.694C400.517 384.694 391.894 384.694 391.894 384.694" stroke="#263238" stroke-miterlimit="10" stroke-linecap="round" stroke-linejoin="round"/>
<path d="M535.568 362.142C535.568 362.142 529.5 359.603 518.873 363.669C508.245 367.715 487.008 373.786 483.975 373.786C480.941 373.786 463.749 375.313 463.749 375.313L463.234 386.442C463.234 386.442 540.128 387.968 544.669 386.442C549.229 384.915 547.703 370.236 535.568 362.142Z" fill="white" stroke="#263238" stroke-miterlimit="10" stroke-linecap="round" stroke-linejoin="round"/>
<path d="M477.025 380.187C477.025 380.187 463.529 368.562 459.41 365.931C455.291 363.301 443.671 381.677 443.285 383.186C442.917 384.694 446.282 385.43 446.282 385.43C446.282 385.43 455.273 383.553 457.149 383.186C459.024 382.818 460.899 384.694 465.772 384.694C470.644 384.694 479.268 384.694 479.268 384.694" fill="white"/>
<path d="M477.025 380.187C477.025 380.187 463.529 368.562 459.41 365.931C455.291 363.301 443.671 381.677 443.285 383.186C442.917 384.694 446.282 385.43 446.282 385.43C446.282 385.43 455.273 383.553 457.149 383.186C459.024 382.818 460.899 384.694 465.772 384.694C470.644 384.694 479.268 384.694 479.268 384.694" stroke="#263238" stroke-miterlimit="10" stroke-linecap="round" stroke-linejoin="round"/>
<path d="M477.264 439.327H379.667V481.727H477.264V439.327Z" fill="white" stroke="#263238" stroke-miterlimit="10" stroke-linecap="round" stroke-linejoin="round"/>
<path d="M388.658 436.77C388.658 436.77 416.918 444.477 422.048 465.043" stroke="#263238" stroke-miterlimit="10" stroke-linecap="round" stroke-linejoin="round"/>
<path d="M470.847 439.327C470.847 439.327 447.735 438.039 440.031 463.737" stroke="#263238" stroke-miterlimit="10" stroke-linecap="round" stroke-linejoin="round"/>
<path d="M399.543 463.7C400.517 448.175 390.074 433.717 374.739 431.123C370.106 430.332 365.215 430.663 360.398 432.907C341.128 441.902 359.938 652.138 359.938 652.138H375.346C375.364 652.138 395.516 527.807 399.543 463.7Z" fill="white" stroke="#263238" stroke-miterlimit="10" stroke-linecap="round" stroke-linejoin="round"/>
<path d="M358.265 639.593L353.705 659.11L338.389 668.859H377.387L378.049 639.593H358.265Z" fill="white" stroke="#263238" stroke-miterlimit="10" stroke-linecap="round" stroke-linejoin="round"/>
<path d="M353.705 659.11C353.705 659.11 363.45 652.837 370.418 659.11H353.705Z" fill="white"/>
<path d="M353.705 659.11C353.705 659.11 363.45 652.837 370.418 659.11" stroke="#263238" stroke-miterlimit="10" stroke-linecap="round" stroke-linejoin="round"/>
<path d="M463.823 463.7C462.848 448.175 473.292 433.717 488.627 431.123C493.26 430.332 498.151 430.663 502.968 432.907C522.237 441.902 503.428 652.138 503.428 652.138H488.02C488.02 652.138 467.868 527.807 463.823 463.7Z" fill="white" stroke="#263238" stroke-miterlimit="10" stroke-linecap="round" stroke-linejoin="round"/>
<path d="M505.119 639.593L509.661 659.11L524.995 668.859H485.979L485.335 639.593H505.119Z" fill="white" stroke="#263238" stroke-miterlimit="10" stroke-linecap="round" stroke-linejoin="round"/>
<path d="M509.661 659.11C509.661 659.11 499.916 652.837 492.948 659.11H509.661Z" fill="white"/>
<path d="M509.661 659.11C509.661 659.11 499.916 652.837 492.948 659.11" stroke="#263238" stroke-miterlimit="10" stroke-linecap="round" stroke-linejoin="round"/>
<path d="M494.345 387.141H368.451V316.945C368.451 314.407 370.51 312.347 373.048 312.347H489.748C492.285 312.347 494.345 314.407 494.345 316.945V387.141Z" fill="#FF8B36"/>
<path d="M553.274 312.954C553.936 312.071 554.69 311.316 555.444 310.709" stroke="#263238" stroke-miterlimit="10" stroke-linecap="round" stroke-linejoin="round"/>
<path d="M559.452 338.78C559.452 338.78 565.079 332.875 556.253 327.265C550.902 323.862 550.277 319.668 551.491 316.191" stroke="#263238" stroke-miterlimit="10" stroke-linecap="round" stroke-linejoin="round"/>
<path d="M568.866 325.775C568.866 325.775 575.706 328.976 573.573 338.596" stroke="#263238" stroke-miterlimit="10" stroke-linecap="round" stroke-linejoin="round"/>
<path d="M584.256 343.416H555.499V385.927H584.256V343.416Z" fill="white" stroke="#263238" stroke-miterlimit="10" stroke-linecap="round" stroke-linejoin="round"/>
<path d="M582.969 380.132H579.972C578.666 380.132 577.6 379.065 577.6 377.759C577.6 376.453 578.666 375.386 579.972 375.386H582.969C585.451 375.386 587.473 373.363 587.473 370.879V360.578C587.473 358.095 585.451 356.072 582.969 356.072H579.108C577.802 356.072 576.736 355.005 576.736 353.699C576.736 352.393 577.802 351.326 579.108 351.326H582.969C588.062 351.326 592.217 355.465 592.217 360.578V370.879C592.217 375.993 588.062 380.132 582.969 380.132Z" fill="white" stroke="#263238" stroke-miterlimit="10" stroke-linecap="round" stroke-linejoin="round"/>
<path d="M262.599 350.038H237.041V386.423H262.599V350.038Z" fill="#263238" stroke="#263238" stroke-miterlimit="10" stroke-linecap="round" stroke-linejoin="round"/>
<path d="M658.667 669.08L643.7 408.148H630.921L652.838 669.08H658.667Z" fill="#263238" stroke="#263238" stroke-miterlimit="10" stroke-linecap="round" stroke-linejoin="round"/>
<path d="M705.663 669.08L690.696 408.148H677.899L699.816 669.08H705.663Z" fill="#263238" stroke="#263238" stroke-miterlimit="10" stroke-linecap="round" stroke-linejoin="round"/>
<path d="M218.305 669.08L236.949 408.148H224.207L212.532 669.08H218.305Z" fill="#263238" stroke="#263238" stroke-miterlimit="10" stroke-linecap="round" stroke-linejoin="round"/>
<path d="M165.719 669.08L184.363 408.148H171.64L159.983 669.08H165.719Z" fill="#263238" stroke="#263238" stroke-miterlimit="10" stroke-linecap="round" stroke-linejoin="round"/>
<path d="M707.079 393.413H163.311V416.241H707.079V393.413Z" fill="white" stroke="#263238" stroke-miterlimit="10" stroke-linecap="round" stroke-linejoin="round"/>
<path d="M707.079 393.413H163.311V401.25H707.079V393.413Z" fill="#263238" stroke="#263238" stroke-miterlimit="10" stroke-linecap="round" stroke-linejoin="round"/>
<path d="M714.158 385.816H156.232V394.517H714.158V385.816Z" fill="white" stroke="#263238" stroke-miterlimit="10" stroke-linecap="round" stroke-linejoin="round"/>
<path d="M666.187 0.919678H502.821V105.513H666.187V0.919678Z" fill="white" stroke="#263238" stroke-miterlimit="10" stroke-linecap="round" stroke-linejoin="round"/>
<path d="M666.187 93.8694H502.821V105.513H666.187V93.8694Z" fill="#263238" stroke="#263238" stroke-miterlimit="10" stroke-linecap="round" stroke-linejoin="round"/>
<path d="M666.187 97.99H502.821V101.393H666.187V97.99Z" fill="white" stroke="#263238" stroke-miterlimit="10" stroke-linecap="round" stroke-linejoin="round"/>
<path d="M605.731 52.7015C605.731 39.4019 594.957 28.6409 581.682 28.6409C568.388 28.6409 557.632 39.4203 557.632 52.7015C557.632 65.9827 568.406 76.7621 581.682 76.7621C594.957 76.7805 605.731 66.001 605.731 52.7015Z" fill="#FF8B36"/>
<path d="M595.619 53.235L574.676 41.1311V65.3205L595.619 53.235Z" fill="white"/>
<path d="M666.187 138.588H502.821V243.181H666.187V138.588Z" fill="white" stroke="#263238" stroke-miterlimit="10" stroke-linecap="round" stroke-linejoin="round"/>
<path d="M666.187 231.537H502.821V243.181H666.187V231.537Z" fill="#263238" stroke="#263238" stroke-miterlimit="10" stroke-linecap="round" stroke-linejoin="round"/>
<path d="M666.187 235.658H502.821V239.061H666.187V235.658Z" fill="white" stroke="#263238" stroke-miterlimit="10" stroke-linecap="round" stroke-linejoin="round"/>
<path d="M605.731 190.388C605.731 177.088 594.957 166.327 581.682 166.327C568.388 166.327 557.632 177.107 557.632 190.388C557.632 203.688 568.406 214.449 581.682 214.449C594.957 214.449 605.731 203.669 605.731 190.388Z" fill="#FF8B36"/>
<path d="M595.619 190.903L574.676 178.818V202.989L595.619 190.903Z" fill="white"/>
<path d="M734.199 302.818H688.49V249.013L696.304 241.508H734.199V302.818Z" fill="white" stroke="#263238" stroke-miterlimit="10" stroke-linecap="round" stroke-linejoin="round"/>
<path d="M688.49 250.558H703.126L697.224 244.414V249.013H688.637L688.49 249.252V250.558Z" fill="#263238"/>
<path d="M697.113 257.971H726.661" stroke="#263238" stroke-miterlimit="10" stroke-linecap="round" stroke-linejoin="round"/>
<path d="M697.113 265.403H726.661" stroke="#263238" stroke-miterlimit="10" stroke-linecap="round" stroke-linejoin="round"/>
<path d="M697.113 272.853H726.661" stroke="#263238" stroke-miterlimit="10" stroke-linecap="round" stroke-linejoin="round"/>
<path d="M697.113 280.284H726.661" stroke="#263238" stroke-miterlimit="10" stroke-linecap="round" stroke-linejoin="round"/>
<path d="M697.113 287.734H726.661" stroke="#263238" stroke-miterlimit="10" stroke-linecap="round" stroke-linejoin="round"/>
<path d="M792.081 342.441H746.371V288.635L754.186 281.149H792.081V342.441Z" fill="white" stroke="#263238" stroke-miterlimit="10" stroke-linecap="round" stroke-linejoin="round"/>
<path d="M746.371 290.181H761.007L755.087 284.037V288.635H746.518L746.371 288.874V290.181Z" fill="#263238"/>
<path d="M754.976 297.594H784.542" stroke="#263238" stroke-miterlimit="10" stroke-linecap="round" stroke-linejoin="round"/>
<path d="M754.976 305.025H784.542" stroke="#263238" stroke-miterlimit="10" stroke-linecap="round" stroke-linejoin="round"/>
<path d="M754.976 312.475H784.542" stroke="#263238" stroke-miterlimit="10" stroke-linecap="round" stroke-linejoin="round"/>
<path d="M754.976 319.907H784.542" stroke="#263238" stroke-miterlimit="10" stroke-linecap="round" stroke-linejoin="round"/>
<path d="M754.976 327.357H784.542" stroke="#263238" stroke-miterlimit="10" stroke-linecap="round" stroke-linejoin="round"/>
<path d="M8.18207 493.795C12.0617 495.487 21.5492 495.266 21.5492 495.266C21.6411 495.266 19.5083 489.049 19.3244 488.681C17.2467 484.321 10.6643 477.129 5.31374 477.865C1.45254 478.38 -0.680322 482.243 0.183853 485.885C1.0848 489.582 4.89085 492.341 8.18207 493.795Z" fill="#0046AF"/>
<path d="M11.4549 521.277C15.4816 521.865 23.9395 519.4 24.6198 519.216C25.962 523.962 27.7087 528.708 29.7497 533.417C30.908 536.121 32.1767 538.789 33.4638 541.456C32.6915 540.334 31.9928 539.322 31.8825 539.193C28.72 535.551 20.4828 530.345 15.5183 532.461C11.9329 533.988 10.8849 538.274 12.6868 541.548C14.5255 544.896 18.9199 546.551 22.4869 547.066C26.1091 547.6 33.3535 545.65 35.2841 545.098C35.7989 546.11 36.2769 547.14 36.7918 548.152C39.2372 553.026 41.701 557.901 43.981 562.739C44.79 564.45 45.5071 566.16 46.2425 567.871C45.5622 566.859 44.9738 566.032 44.8635 565.903C41.701 562.261 33.4638 557.055 28.4994 559.17C24.914 560.697 23.8659 564.983 25.6678 568.257C27.5065 571.605 31.9009 573.261 35.4679 573.776C38.9246 574.273 45.6358 572.543 47.9157 571.918C48.6144 573.684 49.3131 575.468 49.9199 577.216C50.306 578.411 50.7473 579.552 51.0598 580.784C51.3908 581.998 51.7401 583.194 52.0711 584.39C52.6227 586.708 53.2111 589.08 53.6891 591.343C54.0385 592.925 54.3327 594.415 54.6452 595.942C53.873 594.231 52.2734 590.92 52.1079 590.662C49.5337 586.579 42.1791 580.196 36.9389 581.52C33.1696 582.477 31.478 586.56 32.7651 590.074C34.0705 593.661 38.1708 595.96 41.6091 597.009C45.3967 598.168 53.7995 597.101 54.8475 596.972C55.3439 599.474 55.822 601.939 56.2265 604.238C57.1274 609.352 57.8078 613.932 58.3226 617.813H61.8712C61.2461 613.803 60.4554 609.021 59.3706 603.649C58.8742 601.092 58.2858 598.388 57.6607 595.592C58.2858 595.335 61.8712 593.9 65.0521 592.116C67.8101 595.114 74.9074 598.609 75.8267 599.069C74.8706 601.442 73.8961 603.741 72.9584 605.893C70.991 610.4 69.134 614.41 67.4975 617.813H71.322C72.7378 614.668 74.2822 611.099 75.9003 607.144C76.8931 604.735 77.9044 602.141 78.9157 599.474C79.9269 599.694 88.2377 601.368 92.1173 600.504C95.6292 599.713 99.8949 597.726 101.458 594.249C103.002 590.846 101.623 586.652 97.9275 585.401C92.816 583.672 84.9833 589.504 82.1334 593.385C81.9679 593.606 80.405 596.31 79.4489 598.02C79.8534 596.935 80.2579 595.868 80.6624 594.746C81.4714 592.52 82.2253 590.276 83.0527 587.848C83.402 586.671 83.7698 585.475 84.1191 584.279C84.5052 583.084 84.7627 581.796 85.0752 580.527C85.7739 577.602 86.3255 574.604 86.8404 571.568C88.7893 572.286 95.7579 574.714 99.3801 574.456C102.965 574.199 107.489 572.875 109.566 569.692C111.607 566.565 110.872 562.205 107.415 560.421C102.616 557.938 94.0112 562.518 90.5912 565.921C90.3706 566.142 88.201 568.846 87.0242 570.373C87.3184 568.552 87.6126 566.731 87.8332 564.873C88.4952 559.52 89.01 554.075 89.5248 548.648C89.6903 546.993 89.8742 545.337 90.0396 543.663C90.7383 543.921 98.9572 546.993 103.002 546.698C106.588 546.441 111.111 545.116 113.188 541.934C115.229 538.807 114.494 534.447 111.037 532.663C106.238 530.18 97.6333 534.76 94.2134 538.163C93.956 538.421 90.8303 542.339 90.0764 543.369C90.4625 539.708 90.8854 536.085 91.437 532.516C92.1909 527.586 93.2205 522.803 94.5444 518.241C94.8569 518.37 103.425 521.589 107.581 521.313C111.184 521.056 115.689 519.731 117.767 516.549C119.808 513.422 119.072 509.062 115.616 507.278C110.817 504.795 102.212 509.375 98.7917 512.778C98.5159 513.054 95.1511 517.267 94.5995 518.076C94.6731 517.8 94.7282 517.506 94.8202 517.248C96.3095 512.392 98.3504 507.885 100.465 503.746C101.697 501.336 103.002 499.111 104.326 496.977C105.852 497.749 112.913 501.171 116.664 501.318C120.267 501.465 124.882 500.637 127.309 497.694C129.681 494.806 129.442 490.391 126.188 488.239C121.683 485.241 112.637 488.846 108.868 491.845C108.665 492.01 106.753 493.905 105.393 495.303C105.999 494.346 106.624 493.353 107.213 492.433C109.474 489.03 111.754 486.05 113.795 483.42C114.972 481.948 116.057 480.624 117.086 479.41C118.98 479.373 126.629 479.152 129.976 477.57C133.23 476.043 136.962 473.174 137.753 469.44C138.525 465.779 136.282 461.99 132.403 461.567C127.034 460.996 120.653 468.354 118.686 472.769C118.521 473.155 116.553 479.41 116.645 479.41C116.645 479.41 116.737 479.41 116.756 479.41C115.744 480.569 114.659 481.819 113.519 483.199C111.423 485.774 109.07 488.718 106.735 492.084C104.381 495.45 101.917 499.166 99.6927 503.305C97.4495 507.462 95.2982 511.95 93.6802 516.862C93.6618 516.917 93.6434 516.972 93.625 517.027C93.6618 515.445 93.5883 511.012 93.5331 510.681C92.908 505.898 88.8997 497.014 83.5859 496.02C79.7615 495.321 76.5254 498.32 76.2128 502.035C75.9003 505.843 78.6583 509.651 81.3427 512.042C84.3765 514.746 92.7793 517.377 93.4596 517.579C91.9519 522.27 90.8119 527.2 89.9109 532.258C89.3961 535.146 88.9732 538.071 88.5687 541.014C88.5503 539.653 88.5135 538.421 88.4952 538.255C87.87 533.472 83.8617 524.588 78.548 523.594C74.7235 522.877 71.4875 525.894 71.1749 529.61C70.8623 533.417 73.6203 537.225 76.3048 539.616C79.026 542.045 86.16 544.436 88.0539 545.043C87.9068 546.165 87.7597 547.306 87.631 548.428C86.9874 553.854 86.3623 559.262 85.5901 564.56C85.3143 566.418 84.9833 568.257 84.6523 570.078C84.6339 568.864 84.6156 567.834 84.5788 567.687C83.9536 562.904 79.9453 554.02 74.6316 553.026C70.8072 552.327 67.5711 555.326 67.2585 559.041C66.9459 562.849 69.7039 566.657 72.3884 569.048C74.9809 571.366 81.545 573.629 83.7882 574.364C83.402 576.222 82.9975 578.099 82.5379 579.883C82.1885 581.097 81.9495 582.293 81.5266 583.488C81.1405 584.684 80.7544 585.861 80.3866 587.039C79.5776 589.264 78.7502 591.582 77.9044 593.734C77.3344 595.243 76.7461 596.659 76.1761 598.094C76.4703 596.236 76.9667 592.594 76.9667 592.3C77.0402 589.099 75.9003 583.875 73.6387 580.214C73.6571 579.736 73.6203 579.276 73.5468 578.798C72.9584 575.1 69.4833 572.378 65.7324 573.371C60.5106 574.769 57.201 583.93 56.962 588.749C56.9436 589.025 57.1274 592.134 57.2745 594.084C57.0171 592.943 56.7781 591.84 56.4839 590.681C55.9323 588.363 55.3256 586.082 54.6636 583.617C54.3143 582.44 53.9465 581.244 53.5788 580.049C53.2479 578.853 52.733 577.62 52.3101 576.388C51.2805 573.555 50.0853 570.759 48.835 567.945C50.8576 567.466 58.01 565.645 60.8783 563.438C63.7283 561.249 66.7621 557.662 66.7437 553.836C66.7253 550.101 63.7099 546.864 59.8303 547.287C54.4614 547.876 49.7912 556.429 48.8167 561.157C48.7615 561.451 48.4305 564.928 48.3018 566.823C47.5296 565.149 46.7757 563.456 45.9483 561.782C43.5397 556.944 40.9655 552.125 38.4098 547.305C37.6192 545.834 36.8653 544.344 36.0931 542.872C36.8101 542.707 45.36 540.72 48.5776 538.255C51.4276 536.066 54.4614 532.479 54.443 528.653C54.4246 524.919 51.4092 521.681 47.5296 522.104C42.1607 522.693 37.4905 531.247 36.516 535.974C36.4424 536.324 36.0011 541.327 35.946 542.596C34.2544 539.34 32.5996 536.085 31.0919 532.792C29.0142 528.267 27.2307 523.705 25.8149 519.161C26.1459 519.088 35.0818 517.046 38.373 514.526C41.223 512.337 44.2568 508.75 44.2384 504.923C44.22 501.189 41.2046 497.952 37.325 498.375C31.9561 498.963 27.2858 507.517 26.3113 512.245C26.2378 512.613 25.7597 517.984 25.7414 518.977C25.6494 518.701 25.5391 518.444 25.4656 518.168C24.0314 513.293 23.2408 508.4 22.7259 503.783C22.4317 501.097 22.2847 498.522 22.2111 496.002C23.9211 495.8 31.6803 494.751 34.8979 492.82C37.9869 490.943 41.3884 487.724 41.7746 483.916C42.1607 480.201 39.513 476.65 35.6334 476.65C30.2277 476.632 24.6565 484.634 23.1672 489.233C23.0937 489.49 22.5421 492.102 22.1743 494.034C22.1559 492.893 22.1192 491.734 22.1192 490.631C22.1192 486.547 22.3766 482.794 22.634 479.483C22.7995 477.607 22.9833 475.896 23.1672 474.314C24.7301 473.229 30.9816 468.833 32.8938 465.669C34.7692 462.597 36.2953 458.145 34.8979 454.595C33.5189 451.118 29.5474 449.187 26.0907 450.971C21.2918 453.454 20.0231 463.112 20.8137 467.876C20.8873 468.281 22.6892 474.59 22.7811 474.535C22.7811 474.535 22.8546 474.48 22.873 474.461C22.6708 475.988 22.4501 477.625 22.2663 479.41C21.9353 482.721 21.6043 486.473 21.494 490.575C21.3837 494.677 21.3837 499.129 21.8066 503.82C22.2295 508.529 22.9098 513.459 24.252 518.444C24.2704 518.499 24.2888 518.554 24.3072 518.609C23.4614 517.266 20.9608 513.624 20.7402 513.367C17.5777 509.725 9.34042 504.519 4.37601 506.634C0.790605 508.161 -0.257437 512.447 1.54446 515.721C3.49345 519.088 7.88787 520.743 11.4549 521.277Z" fill="#0046AF"/>
<path d="M104.105 495.873C104.197 495.928 105.834 489.564 105.889 489.159C106.551 484.376 105.025 474.756 100.171 472.401C96.6589 470.709 92.7425 472.751 91.4738 476.264C90.1684 479.851 91.8232 484.247 93.7721 487.283C96.0705 490.814 104.087 495.873 104.105 495.873Z" fill="#0046AF"/>
<path d="M91.8231 669.08H39.991L33.5189 611.486H98.2953L91.8231 669.08Z" fill="white" stroke="#263238" stroke-miterlimit="10" stroke-linecap="round" stroke-linejoin="round"/>
<path d="M34.6957 622.044L35.3208 627.618H96.475L97.1185 622.044H34.6957Z" fill="#263238"/>
<path d="M95.096 639.887L95.7395 634.313H36.0747L36.6998 639.887H95.096Z" fill="#263238"/>
</g>
<defs>
<clipPath id="clip0_494_436">
<rect width="793" height="670" fill="white"/>
</clipPath>
</defs>
</svg>
